<svg width="17" height="22" viewBox="0 0 17 22" fill="none" xmlns="http://www.w3.org/2000/svg">
<path d="M12.6458 4.47654C11.4877 3.13913 10.1844 1.93484 8.75982 0.88591C8.63371 0.797571 8.48347 0.750183 8.3295 0.750183C8.17553 0.750183 8.02529 0.797571 7.89919 0.88591C6.47724 1.93527 5.17643 3.13955 4.02075 4.47654C1.44356 7.43622 0.083252 10.5562 0.083252 13.5C0.083252 15.688 0.952446 17.7864 2.49962 19.3336C4.0468 20.8808 6.14522 21.75 8.33325 21.75C10.5213 21.75 12.6197 20.8808 14.1669 19.3336C15.7141 17.7864 16.5833 15.688 16.5833 13.5C16.5833 10.5562 15.2229 7.43622 12.6458 4.47654ZM8.33325 20.25C6.54365 20.248 4.82791 19.5362 3.56247 18.2708C2.29703 17.0053 1.58524 15.2896 1.58325 13.5C1.58325 8.13466 6.78356 3.65622 8.33325 2.43747C9.88294 3.65622 15.0833 8.13279 15.0833 13.5C15.0813 15.2896 14.3695 17.0053 13.104 18.2708C11.8386 19.5362 10.1229 20.248 8.33325 20.25ZM13.5729 14.3756C13.3785 15.4619 12.8558 16.4625 12.0754 17.2428C11.295 18.023 10.2943 18.5454 9.20794 18.7397C9.1667 18.7463 9.12502 18.7497 9.08325 18.75C8.89512 18.7499 8.71388 18.6792 8.57547 18.5518C8.43706 18.4243 8.3516 18.2495 8.33602 18.0621C8.32045 17.8746 8.3759 17.6881 8.49139 17.5396C8.60687 17.3911 8.77396 17.2914 8.9595 17.2603C10.5129 16.9987 11.8311 15.6806 12.0945 14.1243C12.1278 13.9282 12.2377 13.7533 12.4 13.6381C12.5623 13.5229 12.7636 13.477 12.9598 13.5103C13.156 13.5436 13.3309 13.6535 13.4461 13.8158C13.5612 13.978 13.6072 14.1794 13.5739 14.3756H13.5729Z" fill="#3B82F6"/>
</svg>
