<svg width="21" height="20" viewBox="0 0 21 20" fill="none" xmlns="http://www.w3.org/2000/svg">
<path d="M19.1336 5.79626C20.1743 7.97295 20.3719 10.458 19.6881 12.7718C19.0044 15.0856 17.4878 17.0641 15.4311 18.3255C13.3744 19.5869 10.9234 20.0417 8.55103 19.6022C6.1787 19.1627 4.05326 17.86 2.58492 15.9455C1.11657 14.0311 0.409427 11.6406 0.599951 9.23541C0.790475 6.83024 1.86517 4.5809 3.61661 2.92151C5.36805 1.26211 7.67208 0.310305 10.084 0.249778C12.496 0.189252 14.8448 1.0243 16.6773 2.59376L18.8026 0.467507C18.9433 0.326776 19.1342 0.247715 19.3332 0.247715C19.5323 0.247715 19.7231 0.326776 19.8639 0.467507C20.0046 0.608238 20.0837 0.799109 20.0837 0.998132C20.0837 1.19715 20.0046 1.38803 19.8639 1.52876L10.8639 10.5288C10.7231 10.6695 10.5323 10.7486 10.3332 10.7486C10.1342 10.7486 9.94334 10.6695 9.80261 10.5288C9.66188 10.388 9.58282 10.1972 9.58282 9.99813C9.58282 9.79911 9.66188 9.60824 9.80261 9.46751L12.4014 6.86876C11.6971 6.40296 10.8562 6.1885 10.0148 6.26008C9.17349 6.33166 8.38092 6.6851 7.76544 7.26318C7.14996 7.84126 6.74759 8.61015 6.62347 9.44536C6.49935 10.2806 6.66075 11.1332 7.08153 11.8653C7.50232 12.5974 8.15786 13.166 8.94204 13.4792C9.72621 13.7923 10.5931 13.8316 11.4024 13.5908C12.2117 13.3499 12.9161 12.843 13.4014 12.152C13.8867 11.461 14.1247 10.6265 14.0767 9.78345C14.0711 9.68495 14.0851 9.58634 14.1176 9.49322C14.1502 9.40011 14.2008 9.31432 14.2665 9.24076C14.3322 9.1672 14.4118 9.1073 14.5007 9.06449C14.5896 9.02168 14.686 8.9968 14.7845 8.99126C14.9834 8.98007 15.1786 9.04836 15.3272 9.1811C15.4007 9.24682 15.4606 9.3264 15.5034 9.41527C15.5463 9.50414 15.5711 9.60058 15.5767 9.69907C15.6451 10.8923 15.3042 12.0731 14.6106 13.0464C13.9169 14.0197 12.9119 14.7272 11.7617 15.0519C10.6114 15.3767 9.38484 15.2992 8.28461 14.8324C7.18436 14.3655 6.27635 13.5372 5.71063 12.4844C5.14491 11.4316 4.95536 10.2172 5.1733 9.04209C5.39124 7.86694 6.00362 6.80133 6.90924 6.02138C7.81486 5.24142 8.9595 4.79382 10.154 4.75255C11.3485 4.71127 12.5213 5.0788 13.4786 5.79438L15.6114 3.66157C14.0484 2.36388 12.061 1.68941 10.031 1.7677C8.00106 1.846 6.07157 2.67153 4.61316 4.08576C3.15476 5.49998 2.27028 7.40317 2.12959 9.42978C1.98891 11.4564 2.60194 13.4635 3.85095 15.0657C5.09996 16.6679 6.89688 17.7521 8.89657 18.1101C10.8963 18.4682 12.9577 18.0747 14.6851 17.0055C16.4124 15.9362 17.6837 14.2664 18.2549 12.3169C18.8261 10.3674 18.6569 8.27551 17.7798 6.44313C17.694 6.26361 17.6831 6.05737 17.7493 5.86978C17.8156 5.68218 17.9537 5.5286 18.1332 5.44282C18.3128 5.35704 18.519 5.34609 18.7066 5.41237C18.8942 5.47865 19.0478 5.61674 19.1336 5.79626Z" fill="#3B82F6"/>
</svg>
