<svg width="25" height="17" viewBox="0 0 25 17" fill="none" xmlns="http://www.w3.org/2000/svg">
<path d="M24.1738 6.11658L21.7813 1.3297C21.6932 1.15352 21.5712 0.996416 21.4224 0.867375C21.2735 0.738333 21.1007 0.639878 20.9138 0.577633C20.7269 0.515387 20.5295 0.49057 20.333 0.504598C20.1365 0.518626 19.9447 0.571226 19.7685 0.659392L17.437 1.8247L12.5254 0.525329C12.3994 0.492533 12.267 0.492533 12.141 0.525329L7.22946 1.8247L4.8979 0.659392C4.72172 0.571226 4.52991 0.518626 4.33341 0.504598C4.1369 0.49057 3.93956 0.515387 3.75265 0.577633C3.56574 0.639878 3.39292 0.738333 3.24406 0.867375C3.0952 0.996416 2.97322 1.15352 2.88509 1.3297L0.492586 6.11564C0.40442 6.29182 0.351821 6.48363 0.337792 6.68013C0.323764 6.87664 0.348581 7.07398 0.410827 7.26089C0.473073 7.4478 0.571527 7.62062 0.700569 7.76948C0.82961 7.91834 0.986711 8.04032 1.1629 8.12845L3.69415 9.39502L8.89634 13.1103C8.97299 13.1649 9.05915 13.2046 9.1504 13.2275L15.1504 14.7275C15.276 14.759 15.4077 14.7575 15.5326 14.723C15.6574 14.6885 15.7712 14.6222 15.8629 14.5306L21.0257 9.36689L23.5026 8.12845C23.8582 7.95045 24.1285 7.63854 24.2542 7.26128C24.3799 6.88402 24.3507 6.47228 24.1729 6.11658H24.1738ZM19.0279 9.24502L15.802 6.66127C15.6574 6.54553 15.4752 6.48734 15.2904 6.4979C15.1055 6.50846 14.9311 6.58702 14.8007 6.71845C13.131 8.40033 11.2701 8.18752 10.0832 7.43752L14.137 3.50002H17.1191L19.6701 8.60095L19.0279 9.24502ZM4.22665 2.00002L6.14571 2.95814L3.74852 7.74408L1.83321 6.78689L4.22665 2.00002ZM15.1016 13.1685L9.65384 11.8072L5.04134 8.51283L7.66634 3.26283L12.3332 2.02627L13.252 2.26908L9.03321 6.36408L9.02571 6.37252C8.8669 6.53132 8.74578 6.72376 8.67129 6.93563C8.59679 7.14751 8.57083 7.3734 8.5953 7.59665C8.61978 7.8199 8.69407 8.0348 8.8127 8.2255C8.93133 8.4162 9.09127 8.57783 9.28071 8.69845C11.2082 9.92939 13.5341 9.7297 15.366 8.2297L17.9582 10.3119L15.1016 13.1685ZM20.9141 7.74314L18.5216 2.96189L20.4398 2.00002L22.8332 6.78689L20.9141 7.74314ZM12.6876 16.431C12.6471 16.5931 12.5536 16.737 12.422 16.8399C12.2903 16.9428 12.1281 16.9988 11.961 16.9991C11.8994 16.999 11.838 16.9914 11.7782 16.9766L7.87165 15.9997C7.78028 15.9772 7.69405 15.9374 7.61759 15.8825L5.14727 14.1181C4.99538 13.9989 4.89534 13.8256 4.868 13.6345C4.84065 13.4433 4.88809 13.2489 5.00045 13.0919C5.11281 12.9348 5.28143 12.8271 5.47119 12.7913C5.66095 12.7554 5.85723 12.7942 6.01915 12.8994L8.37321 14.5813L12.1457 15.5225C12.3386 15.5708 12.5045 15.6937 12.6068 15.8642C12.7091 16.0348 12.7395 16.2389 12.6913 16.4319L12.6876 16.431Z" fill="#3B82F6"/>
</svg>
