<svg width="22" height="20" viewBox="0 0 22 20" fill="none" xmlns="http://www.w3.org/2000/svg">
<path d="M15.2304 4.80531C14.5517 3.21621 13.345 1.91023 11.8145 1.10816C10.2839 0.306097 8.52332 0.0571505 6.83037 0.403412C5.13743 0.749673 3.61599 1.6699 2.52326 3.00851C1.43053 4.34713 0.83355 6.02201 0.833252 7.75V13.75C0.833252 14.1478 0.991287 14.5294 1.27259 14.8107C1.5539 15.092 1.93543 15.25 2.33325 15.25H7.45856C8.04383 16.5865 9.00556 17.7238 10.2264 18.5229C11.4471 19.322 12.8742 19.7484 14.3333 19.75H20.3333C20.7311 19.75 21.1126 19.592 21.3939 19.3107C21.6752 19.0294 21.8333 18.6478 21.8333 18.25V12.25C21.8329 10.4165 21.1609 8.64663 19.9443 7.27491C18.7277 5.90319 17.0508 5.02464 15.2304 4.80531ZM2.33325 7.75C2.33325 6.56331 2.68515 5.40327 3.34443 4.41658C4.00372 3.42988 4.94079 2.66085 6.03715 2.20672C7.13351 1.7526 8.33991 1.63378 9.50379 1.86529C10.6677 2.0968 11.7368 2.66824 12.5759 3.50736C13.415 4.34647 13.9865 5.41557 14.218 6.57946C14.4495 7.74334 14.3307 8.94974 13.8765 10.0461C13.4224 11.1425 12.6534 12.0795 11.6667 12.7388C10.68 13.3981 9.51994 13.75 8.33325 13.75H2.33325V7.75ZM20.3333 18.25H14.3333C13.2723 18.2488 12.2305 17.9669 11.3138 17.4329C10.397 16.8989 9.63778 16.1319 9.11325 15.2097C10.1405 15.1031 11.1346 14.7853 12.0332 14.2763C12.9318 13.7673 13.7155 13.078 14.335 12.2517C14.9546 11.4255 15.3967 10.48 15.6335 9.47482C15.8704 8.4696 15.8969 7.42627 15.7114 6.41031C17.0269 6.72078 18.1991 7.46638 19.038 8.52628C19.8769 9.58619 20.3333 10.8983 20.3333 12.25V18.25Z" fill="#3B82F6"/>
</svg>
