<svg width="17" height="22" viewBox="0 0 17 22" fill="none" xmlns="http://www.w3.org/2000/svg">
<path d="M12.8333 20.75C12.8333 20.9489 12.7542 21.1396 12.6136 21.2803C12.4729 21.4209 12.2822 21.5 12.0833 21.5H4.58325C4.38434 21.5 4.19357 21.4209 4.05292 21.2803C3.91227 21.1396 3.83325 20.9489 3.83325 20.75C3.83325 20.551 3.91227 20.3603 4.05292 20.2196C4.19357 20.079 4.38434 20 4.58325 20H12.0833C12.2822 20 12.4729 20.079 12.6136 20.2196C12.7542 20.3603 12.8333 20.551 12.8333 20.75ZM16.5833 8.74995C16.5865 10.0002 16.304 11.2347 15.7575 12.3592C15.2109 13.4837 14.4147 14.4685 13.4295 15.2384C13.2453 15.3796 13.0958 15.561 12.9925 15.7688C12.8891 15.9767 12.8347 16.2054 12.8333 16.4375V17C12.8333 17.3978 12.6752 17.7793 12.3939 18.0606C12.1126 18.3419 11.7311 18.5 11.3333 18.5H5.33325C4.93543 18.5 4.5539 18.3419 4.27259 18.0606C3.99129 17.7793 3.83325 17.3978 3.83325 17V16.4375C3.8331 16.2081 3.78037 15.9819 3.67912 15.7762C3.57787 15.5704 3.43079 15.3906 3.24919 15.2506C2.2665 14.4852 1.4708 13.5064 0.922295 12.3881C0.373794 11.2698 0.086874 10.0414 0.0832526 8.79589C0.0588776 4.32777 3.67013 0.606828 8.1345 0.499953C9.23452 0.473445 10.3287 0.667253 11.3527 1.06997C12.3767 1.47269 13.3098 2.07617 14.097 2.84491C14.8843 3.61365 15.5098 4.53211 15.9368 5.54622C16.3638 6.56034 16.5836 7.64962 16.5833 8.74995ZM15.0833 8.74995C15.0835 7.84964 14.9037 6.95836 14.5543 6.1286C14.2049 5.29883 13.6931 4.54735 13.0489 3.91837C12.4047 3.28939 11.6412 2.79564 10.8034 2.46618C9.96549 2.13671 9.07018 1.9782 8.17013 1.99995C4.51388 2.0862 1.56356 5.13027 1.58325 8.78652C1.58668 9.80519 1.82175 10.8097 2.27068 11.7242C2.71961 12.6386 3.37063 13.4389 4.1745 14.0646C4.53586 14.3456 4.82814 14.7054 5.02899 15.1167C5.22983 15.528 5.33391 15.9798 5.33325 16.4375V17H11.3333V16.4375C11.3343 15.9785 11.4402 15.5257 11.6428 15.1139C11.8454 14.702 12.1394 14.3419 12.5023 14.0609C13.3087 13.4307 13.9604 12.6247 14.4077 11.7042C14.855 10.7838 15.086 9.77332 15.0833 8.74995ZM13.5729 7.87433C13.3785 6.78804 12.8558 5.78742 12.0754 5.00717C11.295 4.22692 10.2943 3.70451 9.20794 3.51027C9.1108 3.49389 9.01139 3.49681 8.91538 3.51886C8.81937 3.5409 8.72865 3.58164 8.64838 3.63875C8.56812 3.69586 8.49989 3.76821 8.44759 3.85169C8.39529 3.93517 8.35994 4.02813 8.34356 4.12527C8.32719 4.2224 8.33011 4.32181 8.35215 4.41782C8.3742 4.51383 8.41494 4.60456 8.47205 4.68482C8.52915 4.76509 8.60151 4.83332 8.68499 4.88562C8.76847 4.93792 8.86143 4.97327 8.95856 4.98964C10.512 5.2512 11.8301 6.56933 12.0936 8.12558C12.1232 8.30025 12.2138 8.45878 12.3492 8.57307C12.4846 8.68736 12.6561 8.75002 12.8333 8.74995C12.8756 8.7497 12.9179 8.74625 12.9598 8.73964C13.1559 8.70617 13.3306 8.59621 13.4456 8.43394C13.5605 8.27167 13.6064 8.07038 13.5729 7.87433Z" fill="#3B82F6"/>
</svg>
