<svg width="22" height="14" viewBox="0 0 22 14" fill="none" xmlns="http://www.w3.org/2000/svg">
<path d="M21.8333 1.25V7.25C21.8333 7.44891 21.7543 7.63968 21.6136 7.78033C21.473 7.92098 21.2822 8 21.0833 8C20.8844 8 20.6936 7.92098 20.553 7.78033C20.4123 7.63968 20.3333 7.44891 20.3333 7.25V3.06031L12.6139 10.7806C12.5443 10.8504 12.4616 10.9057 12.3705 10.9434C12.2795 10.9812 12.1819 11.0006 12.0833 11.0006C11.9847 11.0006 11.8871 10.9812 11.7961 10.9434C11.705 10.9057 11.6223 10.8504 11.5527 10.7806L8.3333 7.56031L2.11393 13.7806C1.9732 13.9214 1.78233 14.0004 1.5833 14.0004C1.38428 14.0004 1.19341 13.9214 1.05268 13.7806C0.911947 13.6399 0.832886 13.449 0.832886 13.25C0.832886 13.051 0.911947 12.8601 1.05268 12.7194L7.80268 5.96937C7.87233 5.89964 7.95505 5.84432 8.0461 5.80658C8.13715 5.76884 8.23474 5.74941 8.3333 5.74941C8.43186 5.74941 8.52946 5.76884 8.62051 5.80658C8.71156 5.84432 8.79427 5.89964 8.86393 5.96937L12.0833 9.18969L19.273 2H15.0833C14.8844 2 14.6936 1.92098 14.553 1.78033C14.4123 1.63968 14.3333 1.44891 14.3333 1.25C14.3333 1.05109 14.4123 0.860322 14.553 0.71967C14.6936 0.579018 14.8844 0.5 15.0833 0.5H21.0833C21.2822 0.5 21.473 0.579018 21.6136 0.71967C21.7543 0.860322 21.8333 1.05109 21.8333 1.25Z" fill="#3B82F6"/>
</svg>
