<svg width="22" height="14" viewBox="0 0 22 14" fill="none" xmlns="http://www.w3.org/2000/svg">
<path d="M21.4507 13.6562C21.3646 13.7048 21.2697 13.7358 21.1716 13.7476C21.0734 13.7594 20.9739 13.7516 20.8788 13.7248C20.7836 13.6979 20.6947 13.6525 20.6172 13.5912C20.5397 13.5299 20.475 13.4539 20.427 13.3675L13.8945 1.75H12.0832V2.5C12.0832 2.69891 12.0042 2.88968 11.8635 3.03033C11.7229 3.17098 11.5321 3.25 11.3332 3.25C11.1343 3.25 10.9435 3.17098 10.8029 3.03033C10.6622 2.88968 10.5832 2.69891 10.5832 2.5V1.75H8.77195L2.23945 13.3675C2.14198 13.5415 1.97937 13.6697 1.78738 13.7239C1.59539 13.7781 1.38975 13.7537 1.2157 13.6562C1.04165 13.5588 0.913451 13.3962 0.8593 13.2042C0.805148 13.0122 0.829483 12.8065 0.92695 12.6325L7.0507 1.75H1.5832C1.38429 1.75 1.19352 1.67098 1.05287 1.53033C0.912218 1.38968 0.8332 1.19891 0.8332 1C0.8332 0.801088 0.912218 0.610322 1.05287 0.46967C1.19352 0.329018 1.38429 0.25 1.5832 0.25H21.0832C21.2821 0.25 21.4729 0.329018 21.6135 0.46967C21.7542 0.610322 21.8332 0.801088 21.8332 1C21.8332 1.19891 21.7542 1.38968 21.6135 1.53033C21.4729 1.67098 21.2821 1.75 21.0832 1.75H15.6157L21.7395 12.6325C21.788 12.7186 21.819 12.8135 21.8308 12.9116C21.8426 13.0098 21.8348 13.1093 21.808 13.2044C21.7811 13.2996 21.7357 13.3885 21.6744 13.466C21.6131 13.5435 21.5371 13.6082 21.4507 13.6562ZM11.3332 5.5C11.1343 5.5 10.9435 5.57902 10.8029 5.71967C10.6622 5.86032 10.5832 6.05109 10.5832 6.25V7.75C10.5832 7.94891 10.6622 8.13968 10.8029 8.28033C10.9435 8.42098 11.1343 8.5 11.3332 8.5C11.5321 8.5 11.7229 8.42098 11.8635 8.28033C12.0042 8.13968 12.0832 7.94891 12.0832 7.75V6.25C12.0832 6.05109 12.0042 5.86032 11.8635 5.71967C11.7229 5.57902 11.5321 5.5 11.3332 5.5ZM11.3332 10.75C11.1343 10.75 10.9435 10.829 10.8029 10.9697C10.6622 11.1103 10.5832 11.3011 10.5832 11.5V13C10.5832 13.1989 10.6622 13.3897 10.8029 13.5303C10.9435 13.671 11.1343 13.75 11.3332 13.75C11.5321 13.75 11.7229 13.671 11.8635 13.5303C12.0042 13.3897 12.0832 13.1989 12.0832 13V11.5C12.0832 11.3011 12.0042 11.1103 11.8635 10.9697C11.7229 10.829 11.5321 10.75 11.3332 10.75Z" fill="#3B82F6"/>
</svg>
