<svg width="16" height="21" viewBox="0 0 16 21" fill="none" xmlns="http://www.w3.org/2000/svg">
<path d="M13.6666 7C14.2963 6.52776 14.7614 5.86939 14.9961 5.11813C15.2307 4.36687 15.2231 3.56082 14.9742 2.81415C14.7253 2.06748 14.2478 1.41804 13.6093 0.957842C12.9708 0.49764 12.2037 0.25 11.4166 0.25H4.66663C3.87957 0.25 3.11247 0.49764 2.47397 0.957842C1.83547 1.41804 1.35796 2.06748 1.10907 2.81415C0.860181 3.56082 0.852532 4.36687 1.08721 5.11813C1.32188 5.86939 1.78699 6.52776 2.41663 7C1.9399 7.35728 1.55514 7.823 1.29424 8.35859C1.03334 8.89418 0.903806 9.48423 0.91636 10.0798C0.928914 10.6755 1.0832 11.2595 1.36643 11.7837C1.64967 12.3078 2.0537 12.7569 2.54507 13.0938C1.98617 13.5187 1.54497 14.0792 1.26326 14.7223C0.981545 15.3654 0.868639 16.0698 0.93523 16.7687C1.00182 17.4676 1.2457 18.138 1.64379 18.7163C2.04188 19.2947 2.58099 19.7618 3.21008 20.0735C3.83917 20.3853 4.53742 20.5313 5.23871 20.4978C5.94 20.4642 6.62112 20.2522 7.21759 19.8819C7.81406 19.5115 8.30612 18.995 8.64719 18.3814C8.98826 17.7677 9.16705 17.0771 9.16663 16.375V13C9.96228 13.5967 10.9624 13.853 11.947 13.7123C12.9315 13.5717 13.8199 13.0456 14.4166 12.25C15.0134 11.4544 15.2696 10.4542 15.1289 9.46967C14.9883 8.4851 14.4623 7.59674 13.6666 7ZM13.6666 4C13.6666 4.59674 13.4296 5.16903 13.0076 5.59099C12.5857 6.01295 12.0134 6.25 11.4166 6.25H9.16663V1.75H11.4166C12.0134 1.75 12.5857 1.98705 13.0076 2.40901C13.4296 2.83097 13.6666 3.40326 13.6666 4ZM2.41663 4C2.41663 3.40326 2.65369 2.83097 3.07564 2.40901C3.4976 1.98705 4.0699 1.75 4.66663 1.75H7.66663V6.25H4.66663C4.0699 6.25 3.4976 6.01295 3.07564 5.59099C2.65369 5.16903 2.41663 4.59674 2.41663 4ZM4.66663 12.25C4.0699 12.25 3.4976 12.0129 3.07564 11.591C2.65369 11.169 2.41663 10.5967 2.41663 10C2.41663 9.40326 2.65369 8.83097 3.07564 8.40901C3.4976 7.98705 4.0699 7.75 4.66663 7.75H7.66663V12.25H4.66663ZM7.66663 16.375C7.66663 16.8942 7.51268 17.4017 7.22424 17.8334C6.9358 18.2651 6.52583 18.6015 6.04618 18.8002C5.56652 18.9989 5.03872 19.0508 4.52952 18.9496C4.02032 18.8483 3.55259 18.5983 3.18548 18.2312C2.81837 17.864 2.56836 17.3963 2.46707 16.8871C2.36579 16.3779 2.41777 15.8501 2.61645 15.3705C2.81513 14.8908 3.15158 14.4808 3.58326 14.1924C4.01494 13.904 4.52246 13.75 5.04163 13.75H7.66663V16.375ZM11.4166 12.25C10.9716 12.25 10.5366 12.118 10.1666 11.8708C9.79659 11.6236 9.5082 11.2722 9.3379 10.861C9.16761 10.4499 9.12305 9.9975 9.20987 9.56105C9.29668 9.12459 9.51097 8.72368 9.82564 8.40901C10.1403 8.09434 10.5412 7.88005 10.9777 7.79323C11.4141 7.70642 11.8665 7.75097 12.2777 7.92127C12.6888 8.09157 13.0402 8.37996 13.2874 8.74997C13.5347 9.11998 13.6666 9.55499 13.6666 10C13.6666 10.5967 13.4296 11.169 13.0076 11.591C12.5857 12.0129 12.0134 12.25 11.4166 12.25Z" fill="#14B8A6"/>
</svg>
