<svg width="21" height="19" viewBox="0 0 21 19" fill="none" xmlns="http://www.w3.org/2000/svg">
<path d="M5.37824 3.76281C5.32849 3.61344 5.23299 3.48352 5.10528 3.39145C4.97757 3.29938 4.82412 3.24984 4.66668 3.24984C4.50924 3.24984 4.3558 3.29938 4.22808 3.39145C4.10037 3.48352 4.00487 3.61344 3.95512 3.76281L0.205119 15.0128C0.167534 15.1256 0.157281 15.2456 0.175204 15.3631C0.193127 15.4806 0.238713 15.5921 0.308206 15.6885C0.377698 15.785 0.469107 15.8635 0.574899 15.9176C0.680691 15.9718 0.797837 16 0.916682 16H8.41668C8.53553 16 8.65267 15.9718 8.75846 15.9176C8.86426 15.8635 8.95567 15.785 9.02516 15.6885C9.09465 15.5921 9.14024 15.4806 9.15816 15.3631C9.17608 15.2456 9.16583 15.1256 9.12824 15.0128L5.37824 3.76281ZM1.95731 14.5L4.66668 6.37188L7.37606 14.5H1.95731ZM18.1667 5.125C18.1667 4.16082 17.8808 3.21829 17.3451 2.4166C16.8094 1.61491 16.0481 0.990067 15.1573 0.621089C14.2665 0.252112 13.2863 0.155571 12.3406 0.343674C11.395 0.531777 10.5263 0.996075 9.84454 1.67786C9.16276 2.35964 8.69846 3.22828 8.51035 4.17394C8.32225 5.11959 8.41879 6.09979 8.78777 6.99058C9.15675 7.88137 9.78159 8.64274 10.5833 9.17842C11.385 9.71409 12.3275 10 13.2917 10C14.5842 9.99851 15.8233 9.48442 16.7372 8.5705C17.6511 7.65659 18.1652 6.41748 18.1667 5.125ZM9.91668 5.125C9.91668 4.45749 10.1146 3.80497 10.4855 3.24995C10.8563 2.69494 11.3834 2.26235 12.0001 2.00691C12.6168 1.75146 13.2954 1.68463 13.9501 1.81485C14.6048 1.94508 15.2062 2.26651 15.6782 2.73852C16.1502 3.21052 16.4716 3.81189 16.6018 4.46657C16.7321 5.12126 16.6652 5.79986 16.4098 6.41656C16.1543 7.03326 15.7217 7.56036 15.1667 7.93121C14.6117 8.30206 13.9592 8.5 13.2917 8.5C12.3966 8.5 11.5381 8.14442 10.9052 7.51149C10.2723 6.87855 9.91668 6.02011 9.91668 5.125ZM19.6667 11.5H11.4167C11.2178 11.5 11.027 11.579 10.8864 11.7197C10.7457 11.8603 10.6667 12.0511 10.6667 12.25V17.5C10.6667 17.6989 10.7457 17.8897 10.8864 18.0303C11.027 18.171 11.2178 18.25 11.4167 18.25H19.6667C19.8656 18.25 20.0564 18.171 20.197 18.0303C20.3377 17.8897 20.4167 17.6989 20.4167 17.5V12.25C20.4167 12.0511 20.3377 11.8603 20.197 11.7197C20.0564 11.579 19.8656 11.5 19.6667 11.5ZM18.9167 16.75H12.1667V13H18.9167V16.75Z" fill="#14B8A6"/>
</svg>
