<svg width="21" height="18" viewBox="0 0 21 18" fill="none" xmlns="http://www.w3.org/2000/svg">
<path d="M18.1666 2.25H15.5679L14.2901 0.33375C14.2216 0.231142 14.1289 0.147003 14.0201 0.0887865C13.9114 0.0305702 13.79 7.40671e-05 13.6666 0H7.66663C7.54328 7.40671e-05 7.42185 0.0305702 7.3131 0.0887865C7.20436 0.147003 7.11165 0.231142 7.04319 0.33375L5.76444 2.25H3.16663C2.56989 2.25 1.99759 2.48705 1.57564 2.90901C1.15368 3.33097 0.916626 3.90326 0.916626 4.5V15C0.916626 15.5967 1.15368 16.169 1.57564 16.591C1.99759 17.0129 2.56989 17.25 3.16663 17.25H18.1666C18.7634 17.25 19.3357 17.0129 19.7576 16.591C20.1796 16.169 20.4166 15.5967 20.4166 15V4.5C20.4166 3.90326 20.1796 3.33097 19.7576 2.90901C19.3357 2.48705 18.7634 2.25 18.1666 2.25ZM18.9166 15C18.9166 15.1989 18.8376 15.3897 18.697 15.5303C18.5563 15.671 18.3655 15.75 18.1666 15.75H3.16663C2.96771 15.75 2.77695 15.671 2.6363 15.5303C2.49564 15.3897 2.41663 15.1989 2.41663 15V4.5C2.41663 4.30109 2.49564 4.11032 2.6363 3.96967C2.77695 3.82902 2.96771 3.75 3.16663 3.75H6.16663C6.29013 3.75008 6.41175 3.71966 6.52067 3.66143C6.6296 3.60321 6.72245 3.51899 6.791 3.41625L8.06788 1.5H13.2644L14.5423 3.41625C14.6108 3.51899 14.7037 3.60321 14.8126 3.66143C14.9215 3.71966 15.0431 3.75008 15.1666 3.75H18.1666C18.3655 3.75 18.5563 3.82902 18.697 3.96967C18.8376 4.11032 18.9166 4.30109 18.9166 4.5V15ZM10.6666 5.25C9.85078 5.25 9.05325 5.49193 8.3749 5.94519C7.69655 6.39845 7.16783 7.04269 6.85562 7.79643C6.54341 8.55018 6.46172 9.37958 6.62089 10.1797C6.78005 10.9799 7.17292 11.7149 7.74981 12.2918C8.3267 12.8687 9.06171 13.2616 9.86188 13.4207C10.6621 13.5799 11.4915 13.4982 12.2452 13.186C12.9989 12.8738 13.6432 12.3451 14.0964 11.6667C14.5497 10.9884 14.7916 10.1908 14.7916 9.375C14.7904 8.28136 14.3554 7.23287 13.5821 6.45955C12.8088 5.68624 11.7603 5.25124 10.6666 5.25ZM10.6666 12C10.1475 12 9.63993 11.846 9.20825 11.5576C8.77658 11.2692 8.44012 10.8592 8.24144 10.3795C8.04276 9.89989 7.99078 9.37209 8.09206 8.86289C8.19335 8.35369 8.44336 7.88596 8.81047 7.51884C9.17758 7.15173 9.64531 6.90172 10.1545 6.80044C10.6637 6.69915 11.1915 6.75114 11.6712 6.94982C12.1508 7.1485 12.5608 7.48495 12.8492 7.91663C13.1377 8.34831 13.2916 8.85582 13.2916 9.375C13.2916 10.0712 13.0151 10.7389 12.5228 11.2312C12.0305 11.7234 11.3628 12 10.6666 12Z" fill="#14B8A6"/>
</svg>
