<svg width="21" height="18" viewBox="0 0 21 18" fill="none" xmlns="http://www.w3.org/2000/svg">
<path d="M2.1666 3C2.1666 2.80109 2.24562 2.61032 2.38627 2.46967C2.52693 2.32902 2.71769 2.25 2.9166 2.25H4.4166V0.75C4.4166 0.551088 4.49562 0.360322 4.63627 0.21967C4.77693 0.0790178 4.96769 0 5.1666 0C5.36552 0 5.55628 0.0790178 5.69693 0.21967C5.83759 0.360322 5.9166 0.551088 5.9166 0.75V2.25H7.4166C7.61552 2.25 7.80628 2.32902 7.94693 2.46967C8.08759 2.61032 8.1666 2.80109 8.1666 3C8.1666 3.19891 8.08759 3.38968 7.94693 3.53033C7.80628 3.67098 7.61552 3.75 7.4166 3.75H5.9166V5.25C5.9166 5.44891 5.83759 5.63968 5.69693 5.78033C5.55628 5.92098 5.36552 6 5.1666 6C4.96769 6 4.77693 5.92098 4.63627 5.78033C4.49562 5.63968 4.4166 5.44891 4.4166 5.25V3.75H2.9166C2.71769 3.75 2.52693 3.67098 2.38627 3.53033C2.24562 3.38968 2.1666 3.19891 2.1666 3ZM14.9166 15H14.1666V14.25C14.1666 14.0511 14.0876 13.8603 13.9469 13.7197C13.8063 13.579 13.6155 13.5 13.4166 13.5C13.2177 13.5 13.0269 13.579 12.8863 13.7197C12.7456 13.8603 12.6666 14.0511 12.6666 14.25V15H11.9166C11.7177 15 11.5269 15.079 11.3863 15.2197C11.2456 15.3603 11.1666 15.5511 11.1666 15.75C11.1666 15.9489 11.2456 16.1397 11.3863 16.2803C11.5269 16.421 11.7177 16.5 11.9166 16.5H12.6666V17.25C12.6666 17.4489 12.7456 17.6397 12.8863 17.7803C13.0269 17.921 13.2177 18 13.4166 18C13.6155 18 13.8063 17.921 13.9469 17.7803C14.0876 17.6397 14.1666 17.4489 14.1666 17.25V16.5H14.9166C15.1155 16.5 15.3063 16.421 15.4469 16.2803C15.5876 16.1397 15.6666 15.9489 15.6666 15.75C15.6666 15.5511 15.5876 15.3603 15.4469 15.2197C15.3063 15.079 15.1155 15 14.9166 15ZM20.1666 10.5H18.6666V9C18.6666 8.80109 18.5876 8.61032 18.4469 8.46967C18.3063 8.32902 18.1155 8.25 17.9166 8.25C17.7177 8.25 17.5269 8.32902 17.3863 8.46967C17.2456 8.61032 17.1666 8.80109 17.1666 9V10.5H15.6666C15.4677 10.5 15.2769 10.579 15.1363 10.7197C14.9956 10.8603 14.9166 11.0511 14.9166 11.25C14.9166 11.4489 14.9956 11.6397 15.1363 11.7803C15.2769 11.921 15.4677 12 15.6666 12H17.1666V13.5C17.1666 13.6989 17.2456 13.8897 17.3863 14.0303C17.5269 14.171 17.7177 14.25 17.9166 14.25C18.1155 14.25 18.3063 14.171 18.4469 14.0303C18.5876 13.8897 18.6666 13.6989 18.6666 13.5V12H20.1666C20.3655 12 20.5563 11.921 20.6969 11.7803C20.8376 11.6397 20.9166 11.4489 20.9166 11.25C20.9166 11.0511 20.8376 10.8603 20.6969 10.7197C20.5563 10.579 20.3655 10.5 20.1666 10.5ZM18.2269 4.5L5.1666 17.5603C4.88533 17.8414 4.50395 17.9993 4.10629 17.9993C3.70864 17.9993 3.32726 17.8414 3.04598 17.5603L1.10535 15.6216C0.96603 15.4823 0.85551 15.3169 0.780107 15.1349C0.704704 14.9529 0.665894 14.7578 0.665894 14.5608C0.665894 14.3638 0.704704 14.1687 0.780107 13.9867C0.85551 13.8047 0.96603 13.6393 1.10535 13.5L14.1666 0.439687C14.3059 0.300363 14.4713 0.189844 14.6533 0.11444C14.8353 0.0390367 15.0304 0.000226736 15.2274 0.000226736C15.4244 0.000226736 15.6195 0.0390367 15.8015 0.11444C15.9835 0.189844 16.1489 0.300363 16.2882 0.439687L18.2269 2.37844C18.3662 2.51773 18.4768 2.6831 18.5522 2.86511C18.6276 3.04713 18.6664 3.24221 18.6664 3.43922C18.6664 3.63623 18.6276 3.83131 18.5522 4.01332C18.4768 4.19533 18.3662 4.36071 18.2269 4.5ZM13.1054 7.5L11.1666 5.56031L2.1666 14.5603L4.10535 16.5L13.1054 7.5ZM17.1666 3.43969L15.2269 1.5L12.2269 4.5L14.1666 6.43969L17.1666 3.43969Z" fill="#14B8A6"/>
</svg>
