<svg width="23" height="18" viewBox="0 0 23 18" fill="none" xmlns="http://www.w3.org/2000/svg">
<path d="M22.6972 3.96936L19.6972 0.969365C19.5565 0.828634 19.3656 0.749573 19.1666 0.749573C18.9676 0.749573 18.7767 0.828634 18.636 0.969365C18.4952 1.1101 18.4162 1.30097 18.4162 1.49999C18.4162 1.69901 18.4952 1.88988 18.636 2.03061L20.3563 3.74999H19.1666C14.5419 3.74999 13.4432 6.38624 12.4747 8.71124C11.5954 10.8216 10.8885 12.5166 7.83598 12.7275C7.64442 11.8181 7.12205 11.0123 6.37012 10.4662C5.61819 9.92013 4.69028 9.67269 3.76628 9.77187C2.84228 9.87105 1.98802 10.3098 1.36912 11.003C0.75022 11.6963 0.410769 12.5946 0.416577 13.5239C0.422385 14.4532 0.773039 15.3472 1.40056 16.0327C2.02807 16.7181 2.88775 17.1461 3.81291 17.2337C4.73808 17.3214 5.66283 17.0624 6.40787 16.5069C7.15292 15.9515 7.66518 15.1392 7.84535 14.2275C11.901 13.9791 12.9397 11.4947 13.8585 9.2878C14.7988 7.03124 15.5413 5.24999 19.1666 5.24999H20.3563L18.636 6.96936C18.4952 7.1101 18.4162 7.30097 18.4162 7.49999C18.4162 7.69901 18.4952 7.88988 18.636 8.03061C18.7767 8.17135 18.9676 8.25041 19.1666 8.25041C19.3656 8.25041 19.5565 8.17135 19.6972 8.03061L22.6972 5.03061C22.767 4.96096 22.8223 4.87824 22.86 4.7872C22.8978 4.69615 22.9172 4.59855 22.9172 4.49999C22.9172 4.40143 22.8978 4.30383 22.86 4.21278C22.8223 4.12174 22.767 4.03902 22.6972 3.96936ZM4.1666 15.75C3.72159 15.75 3.28658 15.618 2.91657 15.3708C2.54656 15.1236 2.25817 14.7722 2.08787 14.361C1.91758 13.9499 1.87302 13.4975 1.95983 13.061C2.04665 12.6246 2.26094 12.2237 2.57561 11.909C2.89028 11.5943 3.29119 11.38 3.72765 11.2932C4.16411 11.2064 4.61651 11.251 5.02764 11.4213C5.43877 11.5916 5.79017 11.8799 6.03741 12.25C6.28464 12.62 6.4166 13.055 6.4166 13.5C6.4166 14.0967 6.17955 14.669 5.75759 15.091C5.33564 15.5129 4.76334 15.75 4.1666 15.75Z" fill="#14B8A6"/>
</svg>
