<svg width="23" height="15" viewBox="0 0 23 15" fill="none" xmlns="http://www.w3.org/2000/svg">
<path d="M7.84532 0.930331C7.78475 0.801483 7.68876 0.692537 7.56857 0.616225C7.44838 0.539914 7.30894 0.49939 7.16657 0.49939C7.0242 0.49939 6.88477 0.539914 6.76457 0.616225C6.64438 0.692537 6.54839 0.801483 6.48782 0.930331L0.487822 13.6803C0.445902 13.7695 0.421948 13.866 0.417329 13.9644C0.41271 14.0628 0.427516 14.1611 0.460902 14.2538C0.528327 14.4409 0.667338 14.5936 0.847353 14.6783C1.02737 14.763 1.23364 14.7726 1.4208 14.7052C1.60795 14.6378 1.76066 14.4988 1.84532 14.3188L3.4072 11H10.9259L12.4878 14.3188C12.5297 14.4079 12.5888 14.4879 12.6616 14.5542C12.7345 14.6205 12.8197 14.6718 12.9123 14.7052C13.005 14.7386 13.1034 14.7534 13.2017 14.7488C13.3001 14.7442 13.3967 14.7202 13.4858 14.6783C13.5749 14.6364 13.6549 14.5773 13.7212 14.5045C13.7875 14.4316 13.8389 14.3464 13.8722 14.2538C13.9056 14.1611 13.9204 14.0628 13.9158 13.9644C13.9112 13.866 13.8872 13.7695 13.8453 13.6803L7.84532 0.930331ZM4.11313 9.50002L7.16657 3.01158L10.22 9.50002H4.11313ZM18.4166 5.00002C17.2203 5.00002 16.2856 5.32533 15.6388 5.96752C15.5033 6.1087 15.4284 6.29721 15.43 6.49285C15.4316 6.68848 15.5096 6.87574 15.6473 7.01468C15.7851 7.15363 15.9716 7.23326 16.1672 7.23659C16.3628 7.23993 16.552 7.16669 16.6944 7.03252C17.0506 6.67908 17.6319 6.50002 18.4166 6.50002C19.6569 6.50002 20.6666 7.34377 20.6666 8.37502V8.67689C20.001 8.2316 19.2173 7.99585 18.4166 8.00002C16.3484 8.00002 14.6666 9.51408 14.6666 11.375C14.6666 13.236 16.3484 14.75 18.4166 14.75C19.2177 14.7535 20.0014 14.5168 20.6666 14.0703C20.6759 14.2692 20.7639 14.4563 20.9111 14.5904C21.0583 14.7244 21.2528 14.7945 21.4517 14.7852C21.6506 14.7759 21.8377 14.6879 21.9718 14.5406C22.1058 14.3934 22.1759 14.1989 22.1666 14V8.37502C22.1666 6.51408 20.4847 5.00002 18.4166 5.00002ZM18.4166 13.25C17.1763 13.25 16.1666 12.4063 16.1666 11.375C16.1666 10.3438 17.1763 9.50002 18.4166 9.50002C19.6569 9.50002 20.6666 10.3438 20.6666 11.375C20.6666 12.4063 19.6569 13.25 18.4166 13.25Z" fill="#14B8A6"/>
</svg>
