<svg width="21" height="18" viewBox="0 0 21 18" fill="none" xmlns="http://www.w3.org/2000/svg">
<path d="M18.9166 0.75H2.41663C2.0188 0.75 1.63727 0.908035 1.35597 1.18934C1.07466 1.47064 0.916626 1.85218 0.916626 2.25V15.75C0.916626 16.1478 1.07466 16.5294 1.35597 16.8107C1.63727 17.092 2.0188 17.25 2.41663 17.25H18.9166C19.3145 17.25 19.696 17.092 19.9773 16.8107C20.2586 16.5294 20.4166 16.1478 20.4166 15.75V2.25C20.4166 1.85218 20.2586 1.47064 19.9773 1.18934C19.696 0.908035 19.3145 0.75 18.9166 0.75ZM18.9166 2.25V6H2.41663V2.25H18.9166ZM2.41663 7.5H7.66663V15.75H2.41663V7.5ZM18.9166 15.75H9.16663V7.5H18.9166V15.75Z" fill="#14B8A6"/>
</svg>
