<svg width="20" height="23" viewBox="0 0 20 23" fill="none" xmlns="http://www.w3.org/2000/svg">
<path d="M13.0001 3.75C13.0001 3.15666 12.8241 2.57664 12.4945 2.08329C12.1648 1.58994 11.6963 1.20543 11.1481 0.978363C10.5999 0.7513 9.99673 0.69189 9.41479 0.807646C8.83284 0.923401 8.2983 1.20912 7.87874 1.62868C7.45918 2.04824 7.17346 2.58279 7.0577 3.16473C6.94195 3.74667 7.00136 4.34987 7.22842 4.89805C7.45548 5.44623 7.84 5.91477 8.33335 6.24441C8.8267 6.57405 9.40671 6.75 10.0001 6.75C10.7957 6.75 11.5588 6.43393 12.1214 5.87132C12.684 5.30871 13.0001 4.54565 13.0001 3.75ZM10.0001 5.25C9.70339 5.25 9.41338 5.16203 9.1667 4.99721C8.92003 4.83238 8.72777 4.59812 8.61424 4.32403C8.50071 4.04994 8.471 3.74834 8.52888 3.45737C8.58676 3.16639 8.72962 2.89912 8.9394 2.68934C9.14918 2.47956 9.41645 2.3367 9.70742 2.27882C9.99839 2.22095 10.3 2.25065 10.5741 2.36418C10.8482 2.47771 11.0824 2.66997 11.2473 2.91665C11.4121 3.16332 11.5001 3.45333 11.5001 3.75C11.5001 4.14783 11.342 4.52936 11.0607 4.81066C10.7794 5.09197 10.3979 5.25 10.0001 5.25ZM19.7032 8.22281C19.6178 7.80278 19.3884 7.42574 19.0546 7.15684C18.7209 6.88793 18.3036 6.74403 17.8751 6.75H2.12506C1.69764 6.74999 1.28304 6.89601 0.949959 7.16387C0.616881 7.43173 0.385319 7.80536 0.293641 8.22283C0.201963 8.64031 0.255672 9.07658 0.445869 9.45935C0.636065 9.84212 0.951333 10.1484 1.33943 10.3275H1.35162L6.10943 12.4228L4.14068 19.8966C3.93468 20.3503 3.91738 20.8673 4.09258 21.3339C4.26778 21.8004 4.62113 22.1782 5.0749 22.3842C5.52867 22.5902 6.04569 22.6075 6.51221 22.4323C6.97874 22.2571 7.35656 21.9038 7.56256 21.45L10.0001 17.2434L12.4376 21.45C12.6542 21.8844 13.0308 22.2179 13.4883 22.3803C13.9458 22.5427 14.4484 22.5213 14.8904 22.3207C15.3325 22.1201 15.6795 21.7559 15.8585 21.3046C16.0374 20.8534 16.0344 20.3503 15.8501 19.9013L13.8813 12.4275L18.6391 10.3322H18.6513C19.0456 10.1591 19.3668 9.85327 19.559 9.46788C19.7512 9.08249 19.8022 8.64192 19.7032 8.22281ZM18.0344 8.96344L12.6972 11.3128C12.5339 11.3848 12.4015 11.5127 12.324 11.6736C12.2465 11.8344 12.2289 12.0177 12.2744 12.1903L14.4185 20.3438C14.4294 20.3874 14.4448 20.4298 14.4644 20.4703C14.4959 20.5376 14.5067 20.6127 14.4954 20.6861C14.4841 20.7595 14.4513 20.8279 14.4011 20.8827C14.3509 20.9374 14.2855 20.976 14.2133 20.9935C14.1412 21.0111 14.0654 21.0068 13.9957 20.9813C13.9024 20.947 13.8266 20.8773 13.7847 20.7872C13.7752 20.7669 13.7646 20.7472 13.7529 20.7281L10.6488 15.375C10.5829 15.2613 10.4882 15.167 10.3744 15.1014C10.2605 15.0358 10.1314 15.0013 10.0001 15.0013C9.86867 15.0013 9.73958 15.0358 9.62572 15.1014C9.51187 15.167 9.41724 15.2613 9.35131 15.375L6.25006 20.7234C6.23832 20.7425 6.22768 20.7622 6.21818 20.7825C6.17634 20.8726 6.10048 20.9424 6.00725 20.9766C5.93751 21.0021 5.86175 21.0064 5.78958 20.9888C5.71741 20.9713 5.65208 20.9327 5.60186 20.878C5.55165 20.8233 5.51883 20.7548 5.50754 20.6814C5.49626 20.608 5.50703 20.5329 5.5385 20.4656C5.55811 20.4251 5.5735 20.3827 5.58443 20.3391L7.72568 12.1875C7.77119 12.0148 7.75362 11.8316 7.67611 11.6708C7.59861 11.5099 7.46626 11.382 7.30287 11.31L1.96568 8.96344C1.88907 8.92688 1.82713 8.86541 1.78999 8.78909C1.75284 8.71276 1.74269 8.62608 1.7612 8.54324C1.77971 8.46039 1.82577 8.38628 1.89187 8.33301C1.95796 8.27975 2.04017 8.25048 2.12506 8.25H17.8751C17.9602 8.24985 18.0428 8.27866 18.1094 8.3317C18.176 8.38475 18.2225 8.45886 18.2414 8.54187C18.2603 8.62488 18.2503 8.71184 18.2132 8.78845C18.1761 8.86507 18.1141 8.92678 18.0372 8.96344H18.0344Z" fill="#F97316"/>
</svg>
