<svg width="21" height="20" viewBox="0 0 21 20" fill="none" xmlns="http://www.w3.org/2000/svg">
<path d="M20.6502 13.8631C20.5433 13.7957 20.421 13.7564 20.2948 13.7488C20.1686 13.7413 20.0426 13.7658 19.9283 13.82C19.6426 13.9552 19.3272 14.0159 19.0117 13.9965C18.6962 13.9771 18.3907 13.8782 18.1236 13.7091C17.8565 13.54 17.6365 13.3061 17.4841 13.0291C17.3317 12.7521 17.2517 12.4411 17.2517 12.125C17.2517 11.8089 17.3317 11.4979 17.4841 11.2209C17.6365 10.944 17.8565 10.7101 18.1236 10.5409C18.3907 10.3718 18.6962 10.2729 19.0117 10.2535C19.3272 10.2342 19.6426 10.2949 19.9283 10.43C20.0427 10.4843 20.1689 10.5087 20.2952 10.5011C20.4215 10.4934 20.5439 10.4539 20.6508 10.3863C20.7578 10.3186 20.8459 10.225 20.9069 10.1141C20.968 10.0033 21 9.87876 20.9999 9.7522V5.75002C20.9999 5.35219 20.8419 4.97066 20.5606 4.68936C20.2793 4.40805 19.8977 4.25002 19.4999 4.25002H16.1043C16.1182 4.12551 16.1251 4.00031 16.1249 3.87502C16.1242 3.41407 16.0294 2.95812 15.8463 2.53511C15.6631 2.11211 15.3956 1.73095 15.0599 1.41502C14.5952 0.978528 14.0163 0.682612 13.3903 0.561536C12.7643 0.440459 12.1168 0.499176 11.5228 0.730886C10.9289 0.962596 10.4127 1.35782 10.034 1.87079C9.65536 2.38376 9.42977 2.9935 9.38334 3.62939C9.36894 3.83624 9.37333 4.04396 9.39647 4.25002H5.99991C5.60208 4.25002 5.22055 4.40805 4.93925 4.68936C4.65794 4.97066 4.49991 5.35219 4.49991 5.75002V8.77064C4.3754 8.75669 4.2502 8.7498 4.12491 8.75002C3.66397 8.75076 3.20804 8.8456 2.78504 9.02873C2.36204 9.21186 1.98088 9.47942 1.66491 9.81502C1.34667 10.1512 1.10163 10.5497 0.945264 10.9854C0.788899 11.4211 0.724614 11.8845 0.75647 12.3463C0.810215 13.1594 1.15573 13.9259 1.72947 14.5046C2.30322 15.0833 3.06662 15.4355 3.87928 15.4963C4.08612 15.5111 4.29389 15.5067 4.49991 15.4831V18.5C4.49991 18.8978 4.65794 19.2794 4.93925 19.5607C5.22055 19.842 5.60208 20 5.99991 20H19.4999C19.8977 20 20.2793 19.842 20.5606 19.5607C20.8419 19.2794 20.9999 18.8978 20.9999 18.5V14.4978C21 14.3711 20.968 14.2464 20.9068 14.1355C20.8457 14.0245 20.7574 13.9308 20.6502 13.8631ZM19.4999 18.5H5.99991V14.4978C5.99995 14.3713 5.96796 14.2468 5.90693 14.1359C5.8459 14.025 5.7578 13.9314 5.65084 13.8637C5.54388 13.7961 5.42155 13.7566 5.29522 13.749C5.16889 13.7413 5.04268 13.7658 4.92835 13.82C4.64256 13.9552 4.32725 14.0159 4.01171 13.9965C3.69617 13.9771 3.39066 13.8782 3.12358 13.7091C2.8565 13.54 2.63652 13.3061 2.48409 13.0291C2.33165 12.7521 2.25172 12.4411 2.25172 12.125C2.25172 11.8089 2.33165 11.4979 2.48409 11.2209C2.63652 10.944 2.8565 10.7101 3.12358 10.5409C3.39066 10.3718 3.69617 10.2729 4.01171 10.2535C4.32725 10.2342 4.64256 10.2949 4.92835 10.43C5.04268 10.4843 5.16889 10.5087 5.29522 10.5011C5.42155 10.4934 5.54388 10.4539 5.65084 10.3863C5.7578 10.3186 5.8459 10.225 5.90693 10.1141C5.96796 10.0033 5.99995 9.87876 5.99991 9.7522V5.75002H10.3771C10.5037 5.75006 10.6282 5.71807 10.739 5.65704C10.8499 5.596 10.9435 5.50791 11.0112 5.40095C11.0788 5.29399 11.1183 5.17165 11.126 5.04533C11.1336 4.919 11.1092 4.79279 11.0549 4.67845C10.9198 4.39267 10.859 4.07736 10.8784 3.76182C10.8978 3.44628 10.9967 3.14077 11.1658 2.87369C11.335 2.60661 11.5689 2.38663 11.8458 2.23419C12.1228 2.08176 12.4338 2.00183 12.7499 2.00183C13.066 2.00183 13.377 2.08176 13.654 2.23419C13.9309 2.38663 14.1649 2.60661 14.334 2.87369C14.5031 3.14077 14.602 3.44628 14.6214 3.76182C14.6408 4.07736 14.5801 4.39267 14.4449 4.67845C14.3906 4.79279 14.3662 4.919 14.3738 5.04533C14.3815 5.17165 14.421 5.29399 14.4886 5.40095C14.5563 5.50791 14.6499 5.596 14.7608 5.65704C14.8717 5.71807 14.9962 5.75006 15.1227 5.75002H19.4999V8.77158C19.2939 8.74798 19.0861 8.74358 18.8793 8.75845C18.0064 8.82026 17.1916 9.2187 16.6069 9.86971C16.0221 10.5207 15.713 11.3734 15.7449 12.2479C15.7768 13.1224 16.1471 13.9503 16.7776 14.5571C17.4082 15.1638 18.2498 15.5019 19.1249 15.5C19.2502 15.5002 19.3754 15.4933 19.4999 15.4794V18.5Z" fill="#F97316"/>
</svg>
