<svg width="18" height="22" viewBox="0 0 18 22" fill="none" xmlns="http://www.w3.org/2000/svg">
<path d="M15.375 7.25C14.9378 7.24952 14.5074 7.35879 14.1234 7.56781C14.0086 7.21228 13.8192 6.88536 13.5679 6.6089C13.3166 6.33244 13.0091 6.11281 12.6661 5.96469C12.3231 5.81657 11.9525 5.74338 11.5789 5.75001C11.2054 5.75664 10.8375 5.84293 10.5 6.00312V3.125C10.5 2.42881 10.2234 1.76113 9.73114 1.26884C9.23886 0.776562 8.57118 0.5 7.87498 0.5C7.17879 0.5 6.51111 0.776562 6.01883 1.26884C5.52655 1.76113 5.24998 2.42881 5.24998 3.125V10.625L4.89186 10.0503C4.7187 9.75207 4.48849 9.49085 4.21438 9.28157C3.94027 9.0723 3.62762 8.91906 3.29428 8.83061C2.62109 8.65199 1.9045 8.7481 1.30217 9.09781C0.69984 9.44753 0.261101 10.0222 0.082473 10.6954C-0.0961555 11.3686 -4.14099e-05 12.0852 0.349671 12.6875L0.787484 13.4591C4.01342 19.1459 5.34842 21.5 9.74998 21.5C11.9373 21.4975 14.0342 20.6275 15.5809 19.0809C17.1275 17.5343 17.9975 15.4373 18 13.25V9.875C18 9.17881 17.7234 8.51113 17.2311 8.01884C16.7389 7.52656 16.0712 7.25 15.375 7.25ZM16.5 13.25C16.498 15.0396 15.7862 16.7553 14.5208 18.0208C13.2553 19.2862 11.5396 19.998 9.74998 20C6.22217 20 5.26498 18.3125 2.09248 12.7175L1.6528 11.9422V11.9375C1.50351 11.6794 1.4628 11.3725 1.53962 11.0844C1.61644 10.7963 1.8045 10.5505 2.06248 10.4009C2.23337 10.302 2.4275 10.2502 2.62498 10.2509C2.82274 10.2506 3.01709 10.3025 3.18842 10.4012C3.35976 10.5 3.50204 10.6422 3.60092 10.8134C3.60474 10.8209 3.60913 10.8282 3.61405 10.835L5.36436 13.6475C5.45074 13.7854 5.57964 13.8915 5.73161 13.9497C5.88358 14.008 6.05037 14.0152 6.2068 13.9703C6.36323 13.9254 6.50082 13.8309 6.59881 13.701C6.69679 13.571 6.74986 13.4127 6.74998 13.25V3.125C6.74998 2.82663 6.86851 2.54048 7.07949 2.3295C7.29047 2.11853 7.57662 2 7.87498 2C8.17335 2 8.4595 2.11853 8.67048 2.3295C8.88146 2.54048 8.99998 2.82663 8.99998 3.125V9.5C8.99998 9.69891 9.079 9.88968 9.21965 10.0303C9.36031 10.171 9.55107 10.25 9.74998 10.25C9.9489 10.25 10.1397 10.171 10.2803 10.0303C10.421 9.88968 10.5 9.69891 10.5 9.5V8.375C10.5 8.07663 10.6185 7.79048 10.8295 7.5795C11.0405 7.36853 11.3266 7.25 11.625 7.25C11.9234 7.25 12.2095 7.36853 12.4205 7.5795C12.6315 7.79048 12.75 8.07663 12.75 8.375V10.25C12.75 10.4489 12.829 10.6397 12.9697 10.7803C13.1103 10.921 13.3011 11 13.5 11C13.6989 11 13.8897 10.921 14.0303 10.7803C14.171 10.6397 14.25 10.4489 14.25 10.25V9.875C14.25 9.57663 14.3685 9.29048 14.5795 9.0795C14.7905 8.86853 15.0766 8.75 15.375 8.75C15.6734 8.75 15.9595 8.86853 16.1705 9.0795C16.3815 9.29048 16.5 9.57663 16.5 9.875V13.25Z" fill="#F97316"/>
</svg>
