<svg width="15" height="21" viewBox="0 0 15 21" fill="none" xmlns="http://www.w3.org/2000/svg">
<path d="M12.9999 7C13.6295 6.52776 14.0946 5.86939 14.3293 5.11813C14.564 4.36687 14.5563 3.56082 14.3074 2.81415C14.0586 2.06748 13.581 1.41804 12.9425 0.957842C12.3041 0.49764 11.5369 0.25 10.7499 0.25H3.99989C3.21283 0.25 2.44572 0.49764 1.80722 0.957842C1.16873 1.41804 0.691213 2.06748 0.442323 2.81415C0.193433 3.56082 0.185784 4.36687 0.420459 5.11813C0.655135 5.86939 1.12024 6.52776 1.74989 7C1.27315 7.35728 0.888395 7.823 0.627496 8.35859C0.366596 8.89418 0.237058 9.48423 0.249612 10.0798C0.262166 10.6755 0.41645 11.2595 0.699685 11.7837C0.982921 12.3078 1.38696 12.7569 1.87832 13.0938C1.31942 13.5187 0.878223 14.0792 0.59651 14.7223C0.314797 15.3654 0.201891 16.0698 0.268482 16.7687C0.335073 17.4676 0.578957 18.138 0.977042 18.7163C1.37513 19.2947 1.91424 19.7618 2.54333 20.0735C3.17242 20.3853 3.87067 20.5313 4.57196 20.4978C5.27325 20.4642 5.95438 20.2522 6.55084 19.8819C7.14731 19.5115 7.63937 18.995 7.98044 18.3814C8.32152 17.7677 8.50031 17.0771 8.49989 16.375V13C9.29554 13.5967 10.2957 13.853 11.2802 13.7123C12.2648 13.5717 13.1531 13.0456 13.7499 12.25C14.3466 11.4544 14.6028 10.4542 14.4622 9.46967C14.3215 8.4851 13.7955 7.59674 12.9999 7ZM12.9999 4C12.9999 4.59674 12.7628 5.16903 12.3409 5.59099C11.9189 6.01295 11.3466 6.25 10.7499 6.25H8.49989V1.75H10.7499C11.3466 1.75 11.9189 1.98705 12.3409 2.40901C12.7628 2.83097 12.9999 3.40326 12.9999 4ZM1.74989 4C1.74989 3.40326 1.98694 2.83097 2.40889 2.40901C2.83085 1.98705 3.40315 1.75 3.99989 1.75H6.99989V6.25H3.99989C3.40315 6.25 2.83085 6.01295 2.40889 5.59099C1.98694 5.16903 1.74989 4.59674 1.74989 4ZM3.99989 12.25C3.40315 12.25 2.83085 12.0129 2.40889 11.591C1.98694 11.169 1.74989 10.5967 1.74989 10C1.74989 9.40326 1.98694 8.83097 2.40889 8.40901C2.83085 7.98705 3.40315 7.75 3.99989 7.75H6.99989V12.25H3.99989ZM6.99989 16.375C6.99989 16.8942 6.84593 17.4017 6.55749 17.8334C6.26905 18.2651 5.85909 18.6015 5.37943 18.8002C4.89977 18.9989 4.37197 19.0508 3.86277 18.9496C3.35357 18.8483 2.88584 18.5983 2.51873 18.2312C2.15162 17.864 1.90161 17.3963 1.80032 16.8871C1.69904 16.3779 1.75102 15.8501 1.9497 15.3705C2.14838 14.8908 2.48483 14.4808 2.91651 14.1924C3.34819 13.904 3.85571 13.75 4.37489 13.75H6.99989V16.375ZM10.7499 12.25C10.3049 12.25 9.86986 12.118 9.49985 11.8708C9.12984 11.6236 8.84145 11.2722 8.67116 10.861C8.50086 10.4499 8.4563 9.9975 8.54312 9.56105C8.62994 9.12459 8.84423 8.72368 9.1589 8.40901C9.47356 8.09434 9.87447 7.88005 10.3109 7.79323C10.7474 7.70642 11.1998 7.75097 11.6109 7.92127C12.0221 8.09157 12.3735 8.37996 12.6207 8.74997C12.8679 9.11998 12.9999 9.55499 12.9999 10C12.9999 10.5967 12.7628 11.169 12.3409 11.591C11.9189 12.0129 11.3466 12.25 10.7499 12.25Z" fill="#F97316"/>
</svg>
