<svg width="20" height="21" viewBox="0 0 20 21" fill="none" xmlns="http://www.w3.org/2000/svg">
<path d="M19.9343 15.8991C19.8781 15.7705 19.7872 15.6602 19.6718 15.5803C18.0809 14.4872 17.75 12.6225 17.75 11.25C17.75 9.59344 19.0128 8.15063 19.7656 7.43719C19.8396 7.3671 19.8986 7.28265 19.9389 7.189C19.9792 7.09535 20 6.99446 20 6.8925C20 6.79054 19.9792 6.68966 19.9389 6.59601C19.8986 6.50235 19.8396 6.4179 19.7656 6.34781C18.5768 5.22563 16.6081 4.5 14.75 4.5C13.4152 4.50103 12.1105 4.89667 11 5.63719C9.70445 4.76847 8.14672 4.37832 6.59467 4.53385C5.04262 4.68938 3.59328 5.38086 2.4959 6.48938C1.83987 7.15912 1.32514 7.95387 0.982265 8.82643C0.639392 9.69899 0.475378 10.6316 0.499965 11.5688C0.537081 13.1506 0.888968 14.7092 1.53508 16.1535C2.18119 17.5978 3.10858 18.899 4.26309 19.9809C4.95853 20.638 5.87979 21.0028 6.83653 21H15.0565C15.568 21.001 16.0743 20.8969 16.5439 20.6942C17.0135 20.4915 17.4364 20.1945 17.7865 19.8216C18.4351 19.1236 18.9961 18.3491 19.4572 17.5153C20.1153 16.3125 20.0309 16.125 19.9343 15.8991ZM16.6878 18.7997C16.4784 19.022 16.2256 19.1989 15.9449 19.3194C15.6643 19.4398 15.3619 19.5013 15.0565 19.5H6.83653C6.2635 19.5018 5.7117 19.2833 5.29528 18.8897C4.28472 17.9436 3.47283 16.8056 2.90703 15.5421C2.34123 14.2787 2.03287 12.9152 1.99997 11.5313C1.97946 10.7959 2.10708 10.064 2.37524 9.37903C2.6434 8.69405 3.04662 8.07002 3.5609 7.54406C4.04139 7.05319 4.61542 6.66363 5.24906 6.39842C5.88269 6.13321 6.56307 5.99773 7.24997 6H7.32309C8.49146 6.01231 9.62161 6.41787 10.5312 7.15125C10.6642 7.25775 10.8296 7.31578 11 7.31578C11.1704 7.31578 11.3357 7.25775 11.4687 7.15125C12.3978 6.40215 13.5565 5.99563 14.75 6C15.9418 6.01383 17.1078 6.34906 18.125 6.97031C16.9062 8.33156 16.25 9.82688 16.25 11.25C16.25 13.4784 16.9662 15.2559 18.3293 16.4344C17.9001 17.2984 17.3471 18.0953 16.6878 18.7997ZM11.0215 2.8125C11.2295 2.00692 11.6995 1.29338 12.3575 0.784213C13.0156 0.275046 13.8242 -0.000833469 14.6562 1.89152e-06H14.75C14.9489 1.89152e-06 15.1396 0.0790195 15.2803 0.219672C15.4209 0.360324 15.5 0.55109 15.5 0.750002C15.5 0.948914 15.4209 1.13968 15.2803 1.28033C15.1396 1.42098 14.9489 1.5 14.75 1.5H14.6562C14.1574 1.49996 13.6726 1.6657 13.2783 1.97116C12.8839 2.27662 12.6022 2.70449 12.4775 3.1875C12.4277 3.3802 12.3035 3.54525 12.1321 3.64634C11.9607 3.74744 11.7561 3.77629 11.5634 3.72656C11.3707 3.67684 11.2057 3.5526 11.1046 3.38118C11.0035 3.20976 10.9746 3.0052 11.0243 2.8125H11.0215Z" fill="#F97316"/>
</svg>
