<svg width="134" height="126" viewBox="0 0 134 126" fill="none" xmlns="http://www.w3.org/2000/svg">
<g clip-path="url(#clip0_1108_21223)">
<path d="M81.3655 32.63C80.0751 39.7551 77.1654 46.3642 72.9146 52.0165C71.2194 50.4933 69.6886 48.8316 68.335 47.0692C77.1401 34.556 78.0762 17.6369 69.7266 3.99073L75.1033 0.10083C81.1884 9.78152 83.415 21.3002 81.3655 32.63Z" fill="#18181B"/>
<path d="M76.5953 57.4421C75.4188 59.3052 74.3561 61.2439 73.4326 63.2707C72.5849 62.7293 71.75 62.1754 70.9277 61.5838C70.1433 61.0173 69.3842 60.4256 68.6505 59.8214C68.3722 59.5948 68.1065 59.3682 67.8408 59.1416C67.5751 58.915 67.3095 58.6758 67.0438 58.4492C65.3992 56.9511 63.8684 55.365 62.4641 53.6655C62.2364 53.4011 62.0214 53.1368 61.8063 52.8598C61.5912 52.5955 61.3762 52.3059 61.1611 52.029C60.6297 51.324 60.1111 50.5939 59.6177 49.8511C59.1243 49.1084 58.6562 48.3657 58.2008 47.5978C55.5061 43.0029 53.6084 37.9297 52.6343 32.5417C50.5722 21.1993 52.7988 9.69328 58.8966 0L64.2732 3.8899C63.7798 4.68299 63.3244 5.48866 62.9069 6.30692C62.4768 7.12519 62.0846 7.94345 61.7304 8.7743C61.3635 9.60515 61.0346 10.4486 60.731 11.3046C59.3773 15.1316 58.6435 19.097 58.517 23.0499C58.3905 27.0027 58.8586 30.9555 59.9086 34.7573C60.1743 35.7266 60.4779 36.6834 60.8195 37.6275C61.6798 40.0194 62.7551 42.3105 64.0582 44.5009C64.5895 45.3696 65.1462 46.2256 65.7408 47.069C65.9432 47.3586 66.1582 47.6607 66.3733 47.9502C66.5884 48.2398 66.8034 48.5167 67.0312 48.8063C68.0685 50.1029 69.1818 51.3366 70.3837 52.5073C70.7885 52.8976 71.206 53.2752 71.6235 53.6529C71.8765 53.8921 72.1422 54.1313 72.4078 54.3453C72.6735 54.5719 72.9392 54.7985 73.2175 55.0125C73.7362 55.4279 74.2802 55.8433 74.8242 56.2336C75.4061 56.6616 76.0007 57.0644 76.5953 57.4421Z" fill="#18181B"/>
<path d="M133.5 53.9298C126.111 62.6915 115.801 68.3564 104.339 69.9174C97.1153 70.8993 89.9169 70.1944 83.1992 67.9158C84.1354 65.8387 85.2487 63.8749 86.5138 62.0495C88.3988 62.6286 90.3217 63.0566 92.2447 63.3335C92.7381 63.4091 93.2315 63.472 93.7122 63.5224C94.6737 63.6231 95.6478 63.6986 96.6093 63.7364C104.794 64.0385 113.005 61.8103 119.963 57.2154C122.05 55.8433 124.037 54.2571 125.858 52.4569C126.643 51.689 127.402 50.8959 128.123 50.0525L133.5 53.9298Z" fill="#18181B"/>
<path d="M128.578 38.5716L126.529 44.866C110.867 41.1523 94.9267 47.3208 85.7041 59.5821C85.489 59.8717 85.274 60.1738 85.0589 60.4633C84.8565 60.7529 84.6414 61.055 84.4516 61.3571C83.2245 63.1951 82.1365 65.1337 81.2256 67.1983C81.0865 67.513 80.9473 67.8277 80.8208 68.155C80.6816 68.4697 80.5551 68.797 80.4286 69.1243C80.1883 69.7538 79.9605 70.3832 79.7581 71.0252C79.5304 71.705 79.328 72.3974 79.1509 73.0772C78.6069 72.9387 78.0755 72.8128 77.5315 72.6869C76.4562 72.4603 75.3682 72.2589 74.2676 72.0953C73.7236 72.0197 73.1669 71.9442 72.6103 71.8813H72.5977C72.7242 71.3903 72.8633 70.9119 73.0025 70.4336C73.1416 69.9426 73.2935 69.4642 73.4453 68.9859C73.7362 68.0669 74.0652 67.1731 74.4194 66.2793C74.5459 65.9646 74.6851 65.6373 74.8242 65.31C74.9507 64.9953 75.0899 64.6679 75.2417 64.3532C76.1526 62.3265 77.2026 60.3878 78.3792 58.5373C78.5689 58.2477 78.7587 57.9456 78.9611 57.6686C79.1509 57.3665 79.3533 57.077 79.5557 56.8C83.6546 50.9715 89.0946 46.15 95.5466 42.6881C102.365 39.05 109.855 37.1995 117.408 37.1995C120.671 37.1995 123.961 37.5519 127.199 38.2443C127.655 38.345 128.123 38.4583 128.578 38.5716Z" fill="#18181B"/>
<path d="M102.138 119.542L100.089 125.836C89.4368 121.569 80.8341 113.55 75.799 103.177C72.6363 96.6557 71.0802 89.6186 71.1814 82.5564C73.4586 82.7956 75.6725 83.2362 77.8232 83.8782C78.0762 99.1483 87.3114 113.399 102.138 119.542Z" fill="#18181B"/>
<path d="M113.259 116.433L106.604 116.445C105.301 100.458 94.4845 87.3024 79.9105 82.355C79.5689 82.2417 79.2274 82.1284 78.8858 82.0277C78.5316 81.9144 78.19 81.8137 77.8358 81.713C75.7104 81.1213 73.5091 80.6933 71.2572 80.4667C70.9157 80.429 70.5614 80.4038 70.2199 80.3786C69.8656 80.3408 69.5114 80.3282 69.1698 80.3031C68.4993 80.2779 67.8162 80.2527 67.1457 80.2527C66.4246 80.2527 65.7034 80.2779 64.995 80.3157C64.8558 78.1252 64.5649 75.9348 64.1221 73.757C65.1215 73.694 66.1336 73.6562 67.1457 73.6562C68.1577 73.6562 69.0813 73.694 70.0301 73.7444C70.3843 73.7696 70.7385 73.7947 71.0801 73.8325C71.4344 73.8577 71.7886 73.8954 72.1302 73.9332C74.3441 74.1598 76.5201 74.5626 78.6581 75.1039C78.9996 75.1921 79.3412 75.2802 79.6702 75.3809C80.0117 75.469 80.3407 75.5697 80.6822 75.6704C87.5138 77.7476 93.814 81.4109 99.1021 86.4463C107.464 94.4276 112.462 105.027 113.259 116.433Z" fill="#18181B"/>
<path d="M54.2665 82.3928C39.7558 87.3654 28.9771 100.495 27.6867 116.433L21.0449 116.445C21.8293 105.027 26.8391 94.4276 35.1887 86.4464C40.4516 81.4361 46.7012 77.798 53.4821 75.7083C53.9502 77.9364 54.2032 80.1772 54.2665 82.3928Z" fill="#18181B"/>
<path d="M62.9961 82.569C63.1226 89.669 61.5665 96.769 58.3785 103.34C53.3434 113.713 44.7533 121.72 34.0885 126L32.0391 119.706C42.7292 115.274 50.5095 106.626 54.1151 96.4417C54.4313 95.5479 54.7097 94.6541 54.9627 93.7477C55.8482 90.5628 56.3163 87.2646 56.3669 83.916V82.8334C56.3669 82.4683 56.3543 82.1032 56.329 81.7507C56.2531 79.5477 55.9621 77.3447 55.494 75.1417C55.4181 74.8018 55.3422 74.4619 55.2663 74.122C55.1777 73.7821 55.0892 73.4548 55.0006 73.1149C54.8235 72.4603 54.6338 71.8183 54.4187 71.1763C54.2036 70.4965 53.9633 69.8293 53.7102 69.1621C55.7597 68.3564 57.7586 67.3997 59.6942 66.3044C60.0737 67.236 60.4153 68.1802 60.7315 69.1369C61.0225 70.0559 61.3008 70.9748 61.5412 71.8938C61.6298 72.2337 61.7183 72.5736 61.7816 72.9261C61.8701 73.2534 61.946 73.6059 62.0219 73.9458C62.4774 76.111 62.7684 78.2889 62.9075 80.4793C62.9328 80.8318 62.9455 81.1717 62.9708 81.5242C62.9708 81.8766 62.9961 82.2165 62.9961 82.569Z" fill="#18181B"/>
<path d="M54.5454 56.8379C52.5592 57.9709 50.497 58.9025 48.397 59.6452C39.1617 47.4468 23.2721 41.3161 7.6481 45.0172L5.59863 38.7228C16.7442 35.9533 28.421 37.401 38.6304 42.8519C45.0445 46.276 50.4591 51.0723 54.5454 56.8379Z" fill="#18181B"/>
<path d="M65.4503 59.8213C64.6786 60.4633 63.8942 61.0802 63.0719 61.6718C62.2875 62.2383 61.4905 62.7796 60.6808 63.2832C60.3772 63.472 60.0862 63.6609 59.7826 63.8371C59.479 64.0259 59.1754 64.2022 58.8717 64.3658C56.9488 65.4736 54.9499 66.4304 52.9005 67.236C52.5715 67.3745 52.2426 67.4878 51.9263 67.6137C51.5974 67.7396 51.2558 67.8529 50.9269 67.9536C44.1713 70.2699 36.9222 71 29.6606 70.0181C18.1861 68.4571 7.87554 62.7922 0.5 54.0305L5.87668 50.1406C13.6444 59.1541 24.714 63.8623 35.9228 63.8623C39.8446 63.8623 43.7917 63.2832 47.5997 62.0999C47.9413 61.9992 48.2955 61.8859 48.6371 61.76C48.9786 61.6467 49.3202 61.5334 49.6618 61.4075C51.7239 60.6396 53.7607 59.708 55.7216 58.575C56.0126 58.3988 56.3162 58.2225 56.6199 58.0463C56.9108 57.8575 57.2018 57.6686 57.5054 57.4798C58.0621 57.1147 58.6187 56.7371 59.1754 56.3342C59.7573 55.9188 60.3266 55.4782 60.8706 55.025C62.2749 56.7245 63.8056 58.3233 65.4503 59.8213Z" fill="#18181B"/>
</g>
<defs>
<clipPath id="clip0_1108_21223">
<rect width="133" height="126" fill="white" transform="translate(0.5)"/>
</clipPath>
</defs>
</svg>
