<svg width="102" height="102" viewBox="0 0 102 102" fill="none" xmlns="http://www.w3.org/2000/svg">
<g clip-path="url(#clip0_1108_21021)">
<path d="M100.877 21.524C99.2757 12.7492 94.6494 6.15689 87.8656 2.92756C84.1512 1.32404 80.4591 0.5 76.6335 0.5C68.3596 0.5 59.9299 4.24157 52.4789 10.8116C51.9896 11.2347 51.478 11.7024 50.9887 12.1701C48.987 14.1077 47.0742 16.2012 45.2503 18.5174C44.85 19.0519 44.4274 19.5864 44.0493 20.121C42.4034 22.3703 40.802 24.7979 39.3785 27.4036C29.0138 46.2006 28.3021 67.1578 37.6436 82.1463C39.2006 84.4625 40.8465 86.6006 42.6258 88.5382C42.8037 88.4713 42.9372 88.4045 43.1151 88.2932C45.4283 87.046 47.608 85.4425 49.6097 83.5494C47.9638 81.8345 46.3624 79.8746 44.8722 77.6253C35.3972 62.3472 39.7789 41.5459 49.7877 26.8914C50.188 26.2901 50.6106 25.6888 51.0332 25.1097C52.8125 22.7267 54.7476 20.4996 56.7716 18.5397L58.2618 17.1589C66.2021 10.1657 75.6104 6.95866 84.2847 10.7002C99.2089 17.7379 93.2704 50.2762 79.2136 64.7525C88.911 87.046 74.8764 97.6916 59.8187 91.0103C59.6853 91.1884 59.5296 91.3221 59.3516 91.5002C57.1719 93.7051 55.0367 95.4868 52.857 96.9567C57.8392 99.9633 63.1995 101.522 68.493 101.522C76.2999 101.522 83.0614 98.0257 87.0649 91.8566C89.7117 87.87 93.1147 79.5183 88.9555 66.4228C98.2525 54.1068 103.39 35.4881 100.855 21.5463L100.877 21.524Z" fill="#18181B"/>
<path d="M59.3962 88.5159C61.1755 86.5783 62.8214 84.4403 64.3783 82.124C73.7199 67.1355 73.0082 46.2006 62.6435 27.3814C61.22 24.7756 59.6408 22.3481 58.0172 20.0987C56.1266 21.9249 54.3473 23.9961 52.6347 26.2678C52.5012 26.446 52.39 26.6241 52.2343 26.8023C62.2876 41.4568 66.6692 62.2581 57.1942 77.5807C55.704 79.8301 54.1026 81.79 52.4567 83.5049C51.9897 83.9948 51.5003 84.4625 51.0333 84.9302C48.7868 87.0683 46.4292 88.7386 44.0938 90.0303C43.4488 90.3867 42.8038 90.6762 42.2033 90.9657C27.1678 97.6471 13.1332 87.0014 22.8084 64.7079C8.7516 50.2316 2.81304 17.6934 17.7373 10.678C26.3893 6.93638 35.7976 10.1434 43.7602 17.1366C45.5395 14.9318 47.4301 12.816 49.5431 10.8116C42.0698 4.24157 33.6179 0.5 25.3662 0.5C21.5629 0.5 17.893 1.32404 14.1341 2.92756C7.37261 6.13462 2.72407 12.7269 1.12266 21.524C-1.36842 35.4658 3.72495 54.1068 13.022 66.4006C8.86281 79.496 12.2658 87.8477 14.9126 91.8343C18.8939 98.0034 25.6776 101.5 33.4845 101.5C38.7558 101.5 44.0938 99.8965 49.1205 96.9344C49.7655 96.5781 50.366 96.1772 51.011 95.754C53.4354 94.1728 55.704 92.2574 57.9282 90.0526C58.4175 89.5626 58.9291 89.0504 59.3962 88.5159Z" fill="#18181B"/>
</g>
<defs>
<clipPath id="clip0_1108_21021">
<rect width="101" height="101" fill="white" transform="translate(0.5 0.5)"/>
</clipPath>
</defs>
</svg>
