<svg width="112" height="112" viewBox="0 0 112 112" fill="none" xmlns="http://www.w3.org/2000/svg">
<g clip-path="url(#clip0_1108_21034)">
<path d="M111.5 56C111.5 66.3131 103.213 74.6618 93.0072 74.6618C82.8017 74.6618 74.5 66.2987 74.5 56C74.5 51.219 72.6965 46.4524 69.0896 42.798C63.035 36.6882 53.8315 35.6915 46.7607 39.8225L69.5333 0H106.533L83.7464 39.837C86.466 38.2481 89.6292 37.3382 92.9929 37.3382C103.213 37.3382 111.486 45.7013 111.486 56H111.5Z" fill="#18181B"/>
<path d="M65.2393 72.1774L42.4524 112.014H5.45242L28.2393 72.1774C25.5197 73.7663 22.3565 74.6762 18.9928 74.6762C8.77311 74.6762 0.5 66.3131 0.5 56.0144C0.5 45.7157 8.78743 37.3525 18.9928 37.3525C29.1983 37.3525 37.4857 45.7157 37.4857 56.0144C37.4857 60.7954 39.2892 65.562 42.9104 69.2163C48.965 75.3262 58.1685 76.3229 65.2393 72.1918V72.1774Z" fill="#18181B"/>
</g>
<defs>
<clipPath id="clip0_1108_21034">
<rect width="111" height="112" fill="white" transform="translate(0.5)"/>
</clipPath>
</defs>
</svg>
