<svg width="112" height="102" viewBox="0 0 112 102" fill="none" xmlns="http://www.w3.org/2000/svg">
<path d="M94.8217 29.5812V0.5H67.938C63.1008 0.593159 58.8062 2.87556 56 6.40008C53.1938 2.87556 48.8837 0.593159 44.062 0.5H17.1628V29.5812H0V92.6809H43.7519C48.6202 92.6809 52.5581 96.6402 52.5581 101.5H59.4264C59.4264 96.6402 63.3798 92.6809 68.2481 92.6809H112V29.5812H94.8217ZM59.4264 16.1973C59.4264 13.7596 60.4186 11.5549 62.0155 9.95565C62.4031 9.56749 62.8372 9.19485 63.3178 8.88432C64.7287 7.9372 66.4186 7.37825 68.2481 7.37825H87.969V29.5812H67.938C64.7752 29.6433 61.8605 30.637 59.4264 32.3138V16.1973ZM59.4264 45.2785C59.4264 42.8408 60.4186 40.6516 62.0155 39.0523C62.4031 38.6487 62.8372 38.276 63.3178 37.9655C64.7287 37.0184 66.4186 36.4594 68.2481 36.4594H87.969V56.7215H68.2481C64.9767 56.7215 61.938 57.7307 59.4264 59.4542V45.2785ZM24.031 7.37825H43.7519C45.5814 7.37825 47.2713 7.9372 48.6667 8.88432C49.1473 9.19485 49.5814 9.56749 49.9845 9.95565C51.5814 11.5549 52.5581 13.7596 52.5581 16.1973V32.3138C50.124 30.637 47.2093 29.6433 44.062 29.5812H24.031V7.37825ZM24.031 36.4594H43.7519C45.5814 36.4594 47.2713 37.0184 48.6667 37.9655C49.1473 38.276 49.5814 38.6487 49.9845 39.0523C51.5814 40.6516 52.5581 42.8408 52.5581 45.2785V59.4387C50.0465 57.7307 47.0233 56.7215 43.7519 56.7215H24.031V36.4594ZM105.132 85.8027H68.2481C63.2868 85.8027 58.8682 88.1161 56 91.7183C53.1318 88.1161 48.7132 85.8027 43.7519 85.8027H6.86822V36.4594H17.1628V63.5998H43.7519C48.6202 63.5998 52.5581 67.559 52.5581 72.4188H59.4264C59.4264 67.559 63.3798 63.5998 68.2481 63.5998H94.8217V36.4594H105.132V85.8027Z" fill="#18181B"/>
</svg>
