<svg width="120" height="124" viewBox="0 0 120 124" fill="none" xmlns="http://www.w3.org/2000/svg">
<g clip-path="url(#clip0_1108_21028)">
<path d="M115.716 82.0754C115.716 82.5264 115.682 82.9774 115.648 83.4171C114.778 94.5569 107.6 103.081 96.4545 106.227L95.6633 106.452L95.2111 107.129C94.5103 108.166 93.7642 109.147 92.9843 110.06C88.022 115.878 81.2624 119.069 73.9376 119.069C70.6821 119.069 67.3588 118.449 64.0581 117.231L63.2895 116.949L62.5208 117.231C61.3566 117.66 60.181 118.02 59.028 118.302C56.8916 118.81 54.7439 119.069 52.6527 119.069C44.0958 119.069 36.5336 114.83 31.3792 107.129L30.9157 106.452L30.1245 106.227C28.9037 105.888 27.762 105.494 26.6429 105.02C16.3226 100.769 10.4334 91.3435 10.8743 79.7865L10.9082 78.9747L10.3995 78.332C9.63086 77.3624 8.91872 76.3476 8.29702 75.3329C2.44171 65.8279 3.23296 54.7445 10.3995 45.6568L10.9082 45.0141L10.8856 44.191C10.863 43.5033 10.8517 42.8155 10.863 42.1502C11.1569 30.1648 18.3573 21.0545 30.1245 17.7509L30.9157 17.5367L31.3679 16.8602C36.5223 9.15932 44.0732 4.93116 52.6188 4.93116C55.2186 4.93116 57.875 5.32579 60.5427 6.12632C61.1983 6.31799 61.8765 6.53222 62.5321 6.769L63.3008 7.05087L64.0694 6.769C67.3701 5.54001 70.6934 4.91988 73.9489 4.91988C82.5171 4.91988 90.0679 9.15932 95.2224 16.8602L95.6746 17.5367L96.4658 17.7622C97.6866 18.1005 98.8283 18.4951 99.9474 18.9686C109.578 22.9375 115.354 31.4051 115.727 41.9135C115.806 41.8909 115.886 41.8571 115.965 41.8233C117.321 41.2708 118.644 40.3124 120 39.4893C118.825 28.3608 112.088 19.1603 101.654 14.8758C100.614 14.4361 99.563 14.064 98.4553 13.7257C92.5321 5.30324 83.6474 0.48877 73.9489 0.48877C70.4221 0.48877 66.8388 1.1089 63.2895 2.33789C62.7808 2.16876 62.2835 2.01091 61.7861 1.86433C58.7228 0.962324 55.6369 0.500045 52.6075 0.500045C42.9315 0.500045 34.0468 5.31451 28.1237 13.7257C15.034 17.7171 6.72581 28.4961 6.398 42.0488C6.398 42.5449 6.398 43.0522 6.398 43.5709C-1.37894 53.9102 -2.13629 66.8991 4.49898 77.6442C5.07547 78.5801 5.71978 79.5159 6.398 80.4292C6.19453 93.3617 13.2367 104.31 24.9248 109.113C25.9647 109.553 27.0159 109.925 28.1237 110.263C34.0468 118.686 42.9428 123.5 52.6301 123.5C55.083 123.5 57.5811 123.196 60.0453 122.598C61.1192 122.339 62.2043 122.023 63.2782 121.662C66.8275 122.88 70.4108 123.5 73.9263 123.5C82.5849 123.5 90.5427 119.745 96.3415 112.947C97.0762 112.101 97.777 111.21 98.444 110.252C110.776 106.497 118.757 96.9472 120 84.4995C118.632 83.6764 117.31 82.718 115.953 82.1543C115.874 82.1205 115.795 82.0979 115.716 82.0641V82.0754Z" fill="#18181B"/>
<path d="M68.9409 56.3342C69.6531 55.1842 70.0148 53.7184 70.0148 51.9257C70.0148 50.1329 69.6644 48.6672 68.9522 47.5284C68.2514 46.3896 67.2341 45.5214 65.9228 44.9238C64.6116 44.3263 62.4978 44.0331 59.5928 44.0557V59.9648C62.4187 59.9648 64.5099 59.6491 65.8437 59.0177C67.1889 58.3863 68.2175 57.4843 68.9409 56.3342Z" fill="#18181B"/>
<path d="M66.4661 63.167C64.9288 62.5694 62.6455 62.2763 59.5935 62.2988V75.2652L59.5596 76.7535C59.5596 77.8246 59.8422 78.6364 60.3847 79.1889C60.9386 79.7414 61.7412 80.012 62.8263 80.012C64.4202 80.012 65.8896 79.6625 67.2348 78.9521C68.5799 78.2418 69.6086 77.227 70.332 75.8853C71.0441 74.5436 71.4058 73.044 71.4058 71.3978C71.4058 69.5149 70.965 67.8236 70.0946 66.324C69.2242 64.8244 68.0147 63.7759 66.4774 63.1783L66.4661 63.167Z" fill="#18181B"/>
<path d="M107.148 44.969C108.47 43.6836 110.403 43.2326 112.347 42.8042C112.314 33.164 107.25 25.6097 98.5796 22.0355C96.9971 21.3702 95.2902 20.8629 93.4816 20.4795C86.9594 9.0691 75.2488 5.26939 63.233 10.6814C62.0009 10.1177 60.7687 9.66668 59.5366 9.30588C48.866 6.1263 38.8509 10.2417 32.9843 20.4682C21.4093 22.8585 14.3897 31.1119 14.1297 42.2179C14.1071 43.492 14.1523 44.7886 14.2993 46.1303C6.69189 54.4852 5.61804 64.7117 11.089 73.5965C11.982 75.051 13.0559 76.4829 14.2993 77.8585C13.0672 89.0884 18.2443 97.9958 27.8976 101.976C29.4801 102.641 31.187 103.148 32.9956 103.521C38.6248 113.33 48.0408 117.513 58.2028 115.066C59.8532 114.672 61.5487 114.097 63.2443 113.33C73.5645 117.964 83.67 115.833 90.4296 107.884C91.56 106.587 92.5886 105.122 93.5042 103.521C104.593 101.232 111.488 93.5759 112.291 83.1803C112.336 82.5264 112.37 81.8611 112.37 81.1846C110.426 80.7674 108.504 80.3051 107.182 79.0198C105.023 76.9113 105.068 73.1567 103.87 70.3718C102.705 67.6545 99.9247 65.1176 99.9247 61.9944C99.9247 58.8712 102.694 56.323 103.858 53.617C105.057 50.8208 105 47.0774 107.159 44.9577L107.148 44.969ZM78.233 78.6026C75.2262 81.0042 70.8516 82.2106 65.1207 82.2106H44.5367V81.1057C46.4018 81.1057 47.6791 80.9366 48.346 80.587C49.0129 80.2375 49.4877 79.7865 49.7477 79.234C50.0189 78.6815 50.1546 77.306 50.1546 75.1186V48.8927C50.1546 46.7054 50.0189 45.3298 49.7477 44.766C49.4764 44.2023 49.0129 43.7513 48.3347 43.413C47.6565 43.0748 46.3905 42.9057 44.5367 42.9057V41.8007H63.9564C68.6022 41.8007 71.8916 42.2066 73.8245 43.041C75.7574 43.864 77.2721 45.1043 78.3912 46.7392C79.5103 48.3741 80.0642 50.1217 80.0642 51.9708C80.0642 53.9214 79.352 55.6578 77.9391 57.1687C76.5261 58.6908 74.0393 59.8972 70.4786 60.788C74.3219 61.69 77.0235 62.7611 78.5721 64.0352C80.7989 65.8505 81.918 68.1844 81.918 71.0708C81.918 74.1151 80.6972 76.6295 78.2443 78.6139L78.233 78.6026Z" fill="#18181B"/>
</g>
<defs>
<clipPath id="clip0_1108_21028">
<rect width="120" height="123" fill="white" transform="translate(0 0.5)"/>
</clipPath>
</defs>
</svg>
