<svg width="114" height="62" viewBox="0 0 114 62" fill="none" xmlns="http://www.w3.org/2000/svg">
<g clip-path="url(#clip0_1108_21038)">
<path d="M113.63 51.6599V61.8699H73.1801H67.2001C64.3401 61.8699 62.0301 59.5099 62.1101 56.6299C62.1801 53.8399 64.6201 51.6799 67.4101 51.6799H69.5601C66.5901 48.0299 62.0701 45.7099 57.0001 45.7099C51.0901 45.7099 45.9201 48.8799 43.1001 53.6099C40.0301 58.7499 34.4901 61.8899 28.5101 61.8899H0.370117V51.6799H37.9601L5.40012 32.8699L10.5001 24.0299L43.0601 42.8299L24.2701 10.2699L33.1101 5.16988L51.9101 37.7299V0.129883H62.1201V37.7199L80.9001 5.15988L89.7401 10.2599L70.9401 42.8199L103.49 24.0199L108.59 32.8599L76.0301 51.6599H113.62H113.63Z" fill="#18181B"/>
</g>
<defs>
<clipPath id="clip0_1108_21038">
<rect width="113.26" height="61.74" fill="white" transform="translate(0.370117 0.129883)"/>
</clipPath>
</defs>
</svg>
