<svg width="118" height="118" viewBox="0 0 118 118" fill="none" xmlns="http://www.w3.org/2000/svg">
<g clip-path="url(#clip0_1108_21212)">
<path d="M100.255 17.74C111.635 29.12 117.315 44.06 117.315 59C117.315 73.94 111.635 88.88 100.255 100.26C86.8548 113.66 68.4848 119.17 51.0048 116.76C48.4348 116.42 45.8848 115.89 43.3748 115.19C43.0248 115.1 42.6748 115 42.3248 114.89C40.8448 114.45 39.3748 113.95 37.9348 113.39C37.9148 113.39 37.8948 113.38 37.8748 113.37C33.9248 111.85 30.0948 109.88 26.4948 107.45L35.3148 98.62L39.1548 94.79L42.3248 91.62L48.2848 85.65L51.0148 82.92L52.3948 81.55L66.2548 67.68C66.5148 67.46 66.7548 67.24 67.0048 66.99C67.2548 66.74 67.4748 66.49 67.6848 66.24C69.4348 64.14 70.3148 61.56 70.3148 58.98C70.3148 58.16 70.2248 57.36 70.0448 56.56C69.6048 54.53 68.5848 52.58 66.9948 50.99C62.5748 46.57 55.4048 46.57 50.9848 50.99C48.7748 53.2 47.6648 56.1 47.6648 59H42.3048H35.4848C35.4848 53 37.7648 47.01 42.3048 42.43L42.3648 42.37C51.5348 33.2 66.4448 33.2 75.6248 42.37C80.2048 46.95 82.5048 52.98 82.5048 59C82.5048 65.01 80.2148 71.03 75.6348 75.61L47.5448 103.7C47.5448 103.7 47.5848 103.71 47.6048 103.72C48.7248 104.01 49.8648 104.25 51.0048 104.45C51.9048 104.61 52.8248 104.74 53.7248 104.84C67.2248 106.38 81.2848 101.99 91.6248 91.64C100.625 82.64 105.125 70.81 105.125 59C105.125 47.17 100.625 35.36 91.6248 26.36C73.6248 8.36999 44.3448 8.36999 26.3548 26.36C17.3548 35.36 12.8548 47.18 12.8548 59C12.8548 70.83 17.3648 82.64 26.3548 91.64C27.8148 93.1 30.9448 95.67 30.9448 95.67L22.2548 104.35C20.6948 103.08 19.1848 101.72 17.7248 100.27C6.3648 88.89 0.674805 73.95 0.674805 59C0.674805 44.05 6.3648 29.12 17.7448 17.74C40.4948 -5.01001 77.5148 -5.01001 100.265 17.74H100.255Z" fill="#18181B"/>
<path d="M87.945 30.0598C95.915 38.0398 99.915 48.5198 99.915 58.9998C99.915 69.4798 95.925 79.9599 87.945 87.9398C79.885 95.9998 69.255 99.9998 58.665 99.9099L78.165 80.4098C78.555 80.0598 78.935 79.6998 79.315 79.3298C79.685 78.9598 80.045 78.5798 80.385 78.1898C80.415 78.1598 80.435 78.1298 80.465 78.0998C84.125 73.9898 86.405 69.0798 87.285 63.9598C87.575 62.3198 87.715 60.6598 87.715 58.9998C87.715 51.6398 84.915 44.2798 79.315 38.6798C68.105 27.4698 49.875 27.4698 38.665 38.6798C33.065 44.2798 30.275 51.6398 30.265 58.9998C30.265 66.3598 33.065 73.7098 38.665 79.3198C39.805 80.4598 41.035 81.4999 42.315 82.4099C42.675 82.6699 43.065 82.9298 43.445 83.1698L34.685 91.9298C33.065 90.7398 31.515 89.3998 30.055 87.9398C22.075 79.9599 18.085 69.4898 18.085 58.9998C18.085 48.5198 22.065 38.0398 30.055 30.0598C46.015 14.0998 71.995 14.0998 87.945 30.0598Z" fill="#18181B"/>
</g>
<defs>
<clipPath id="clip0_1108_21212">
<rect width="116.65" height="116.64" fill="white" transform="translate(0.674805 0.679932)"/>
</clipPath>
</defs>
</svg>
