<svg width="106" height="106" viewBox="0 0 106 106" fill="none" xmlns="http://www.w3.org/2000/svg">
<g clip-path="url(#clip0_1108_21206)">
<path d="M92.9118 27.2455L80.3236 39.8337H86.3876V46.4758H68.7618L62.2376 53L68.7618 59.5242H88.9713C94.7522 59.5242 99.436 54.8404 99.436 49.0595V39.8337H105.5L92.9118 27.2455ZM59.5242 68.7618L73.823 83.0607C77.9169 87.1427 84.5354 87.1427 88.6174 83.0607L95.1534 76.5247L99.436 80.8191V63.0163H81.6331L85.9275 67.3107L81.232 72.0062L68.7618 59.536H59.536V68.7618H59.5242ZM68.75 46.4758L83.0489 32.177C87.1309 28.0831 87.1309 21.4646 83.0489 17.3826L76.5247 10.8584L80.8191 6.56404H63.0163V24.3669L67.2989 20.0725L72.0062 24.768L59.536 37.2382V46.464H68.7618L68.75 46.4758ZM46.464 68.7618V88.9713C46.464 94.7522 51.1478 99.436 56.9286 99.436H66.1545V105.5L78.7427 92.9118L66.1545 80.3236V86.3876H59.5124V68.7618L52.9882 62.2376L46.464 68.7618ZM59.5124 37.25V17.0287C59.5124 11.2478 54.8287 6.56404 49.0478 6.56404H39.8219V0.5L27.2337 13.0882L39.8219 25.6764V19.6124H46.464V37.2382L52.9882 43.7624L59.5124 37.2382V37.25ZM22.9275 73.8348C18.8455 77.9286 18.8455 84.5472 22.9275 88.6292L29.4635 95.1652L25.1691 99.4478H42.9719V81.6449L38.6775 85.9393L33.982 81.2438L46.4522 68.7736V59.5477H37.2264L22.9275 73.8466V73.8348ZM46.4522 37.25L45.9685 36.7663L32.1534 22.9629C28.0595 18.8691 21.441 18.8691 17.359 22.9629L10.823 29.4871L6.54045 25.1927V42.9955H24.3433L20.0489 38.7129L24.7444 34.0056L37.2146 46.4758H46.4404V37.25H46.4522ZM37.2264 46.4758H17.0287C11.2478 46.4758 6.56404 51.1595 6.56404 56.9404V66.1663H0.5L13.0882 78.7545L25.6764 66.1663H19.6124V59.5242H37.2382L43.7624 53L37.2382 46.4758H37.2264Z" fill="#18181B"/>
</g>
<defs>
<clipPath id="clip0_1108_21206">
<rect width="105" height="105" fill="white" transform="translate(0.5 0.5)"/>
</clipPath>
</defs>
</svg>
