<svg width="124" height="64" viewBox="0 0 124 64" fill="none" xmlns="http://www.w3.org/2000/svg">
<g clip-path="url(#clip0_1108_21235)">
<path d="M93.8815 1.7251C77.7514 1.7251 64.5788 14.4333 63.7627 30.429H123.995V1.7251H93.8757H93.8815Z" fill="#18181B"/>
<path d="M63.7686 62.2634H93.8874C110.018 62.2634 123.19 49.5552 124.006 33.5596H63.7686V62.2634Z" fill="#18181B"/>
<path d="M63.716 30.4289H63.7623C63.6987 29.3312 63.5887 28.2508 63.4035 27.1879C63.4035 27.1705 63.4035 27.1415 63.3861 27.1241C61.0595 11.7673 47.8348 0 31.8783 0C14.2723 0 0 14.3229 0 31.9913C0 49.6597 14.2723 64 31.8783 64C47.8348 64 61.0595 52.2327 63.3861 36.8643C63.4035 36.8469 63.4035 36.8179 63.4035 36.8004C63.5887 35.7375 63.6987 34.6514 63.7623 33.5595H33.4583V45.0132H30.333V18.9752H33.4583V30.4289H63.716Z" fill="#18181B"/>
</g>
<defs>
<clipPath id="clip0_1108_21235">
<rect width="124" height="64" fill="white"/>
</clipPath>
</defs>
</svg>
