<svg width="116" height="58" viewBox="0 0 116 58" fill="none" xmlns="http://www.w3.org/2000/svg">
<path d="M29.455 57.5451H86.545C87.365 57.5451 88.185 57.5051 88.995 57.4351C89.145 57.4151 89.285 57.4151 89.415 57.3951C89.665 57.3751 89.915 57.3451 90.165 57.3151C96.595 56.4951 102.365 53.5451 106.725 49.1851C111.345 44.5551 114.395 38.3551 114.975 31.4451C115.045 30.6351 115.085 29.8251 115.085 28.9951C115.085 28.1651 115.055 27.3551 114.975 26.5451C113.845 13.1351 103.435 2.37508 90.185 0.685078C89.935 0.665078 89.675 0.625078 89.415 0.605078C89.275 0.585078 89.135 0.585078 88.995 0.565078C88.195 0.495078 87.385 0.455078 86.555 0.455078H29.455C21.565 0.455078 14.445 3.65508 9.27504 8.81508C4.11504 13.9851 0.915039 21.1151 0.915039 28.9951C0.915039 44.7551 13.695 57.5351 29.455 57.5351V57.5451ZM95.485 50.8751C100.135 44.4151 102.715 37.9351 103.235 31.4451H110.015C109.105 40.2451 103.355 47.6251 95.485 50.8751ZM110.015 26.5551H103.235C102.715 20.0751 100.135 13.5951 95.495 7.13508C103.365 10.3851 109.105 17.7551 110.015 26.5551ZM88.985 6.73508C94.535 13.3851 97.615 19.9751 98.225 26.5551H88.985V6.73508ZM88.985 31.4451H98.225C97.615 38.0251 94.535 44.6051 88.985 51.2551V31.4451ZM74.835 31.4451H84.095V51.2451C78.555 44.6051 75.455 37.9651 74.835 31.4451ZM84.095 6.74508V26.5551H74.835C75.455 20.0351 78.555 13.3951 84.095 6.74508ZM77.655 7.07508C73.035 13.5351 70.445 20.0451 69.925 26.5551H62.965C63.885 17.6951 69.705 10.2751 77.655 7.07508ZM69.925 31.4551C70.445 37.9751 73.045 44.4851 77.665 50.9451C69.705 47.7351 63.895 40.3151 62.965 31.4551H69.925Z" fill="#18181B"/>
</svg>
