<svg width="98" height="120" viewBox="0 0 98 120" fill="none" xmlns="http://www.w3.org/2000/svg">
<g clip-path="url(#clip0_1108_21209)">
<path d="M57.3294 65.5649L46.1294 76.7649H74.8794C62.3594 88.1249 49.0494 96.8249 37.3394 101.285C25.4694 105.805 16.2194 105.595 11.2994 100.685C5.98942 95.3749 6.13942 85.2049 11.7394 72.0549C17.3594 58.8349 27.7994 44.2249 41.1394 30.8949C54.9594 17.0549 70.0394 6.4249 83.6094 0.954902L83.4594 0.524902C67.4694 5.0849 49.4794 16.5149 34.0994 31.9049C19.6494 46.3549 8.86942 62.7349 3.72942 78.0449C-1.43058 93.4049 -0.280581 105.845 6.94942 113.075C11.1994 117.325 17.2694 119.475 24.6694 119.475C29.6494 119.475 35.2294 118.505 41.2694 116.545C56.0694 111.745 72.0294 101.545 86.2594 87.7949V116.625L97.4594 105.425V65.5549H57.3294V65.5649Z" fill="#18181B"/>
</g>
<defs>
<clipPath id="clip0_1108_21209">
<rect width="96.9" height="118.95" fill="white" transform="translate(0.549805 0.524902)"/>
</clipPath>
</defs>
</svg>
