<svg width="116" height="116" viewBox="0 0 116 116" fill="none" xmlns="http://www.w3.org/2000/svg">
<mask id="mask0_1108_21053" style="mask-type:luminance" maskUnits="userSpaceOnUse" x="0" y="0" width="116" height="116">
<path d="M112.25 55.33C112.21 55.24 112.17 55.13 112.11 55.01C110.19 50.73 107.52 46.85 104.16 43.49C96.97 36.3 87.41 32.28 77.24 32.19C77.12 32.19 77 32.19 76.88 32.19H76.86C76.73 32.19 76.61 32.19 76.49 32.19C75.03 32.21 73.57 32.36 72.15 32.62C68.45 33.31 65.06 34.78 62.13 36.83C62.31 36.62 62.49 36.41 62.69 36.21L62.73 36.17C62.73 36.17 62.77 36.13 62.78 36.11C62.81 36.08 62.84 36.05 62.87 36.02L62.96 35.93C63.56 35.34 64.19 34.78 64.84 34.26L64.86 34.24C69.29 30.68 74.65 28.8 80.38 28.8C83.46 28.8 86.45 29.35 89.28 30.43L89.39 30.47C92.58 31.71 95.46 33.58 97.93 36.04L102.76 40.8L112.43 31.13L107.61 26.31C103.82 22.53 99.4 19.64 94.48 17.72C94.39 17.68 94.28 17.64 94.16 17.6C89.78 15.93 85.14 15.08 80.39 15.08C70.22 15.08 60.62 19 53.37 26.13C53.28 26.21 53.2 26.3 53.11 26.38L53.09 26.4C53 26.49 52.92 26.57 52.83 26.66C51.82 27.7 50.89 28.84 50.07 30.03C47.94 33.13 46.58 36.57 45.96 40.09C45.94 39.81 45.92 39.54 45.92 39.26V39.21C45.92 39.21 45.92 39.13 45.92 39.09V38.87C45.92 38.03 45.98 37.18 46.07 36.35C46.68 30.69 49.15 25.56 53.2 21.51C55.38 19.33 57.88 17.6 60.64 16.37L60.75 16.32C63.88 14.94 67.24 14.23 70.73 14.22L77.51 14.17V0.540039H70.85H70.7C65.35 0.550039 60.18 1.63004 55.34 3.75004C55.25 3.79004 55.14 3.83004 55.02 3.89004C50.74 5.81004 46.86 8.48004 43.5 11.84C39.9 15.44 37.1 19.63 35.19 24.19C33.28 28.75 32.25 33.68 32.21 38.77C32.21 38.89 32.21 39.01 32.21 39.13V39.15C32.21 39.27 32.21 39.39 32.21 39.51C32.23 40.97 32.38 42.43 32.64 43.86C33.33 47.56 34.8 50.95 36.85 53.88C36.64 53.7 36.43 53.52 36.23 53.32C36.21 53.3 36.18 53.27 36.16 53.25L36.11 53.2C36.11 53.2 36.02 53.11 35.98 53.07H35.97C35.37 52.45 34.81 51.81 34.28 51.15C30.72 46.72 28.84 41.35 28.84 35.63C28.84 32.55 29.39 29.56 30.47 26.73L30.51 26.62C31.75 23.43 33.62 20.55 36.08 18.08L40.84 13.25L31.16 3.58004L26.45 8.29004L26.34 8.40004C22.57 12.19 19.68 16.6 17.75 21.52C17.71 21.62 17.67 21.73 17.62 21.85C15.94 26.24 15.09 30.87 15.09 35.63C15.09 45.8 19.01 55.4 26.14 62.65C26.22 62.74 26.31 62.82 26.39 62.91L26.65 63.16C27.7 64.18 28.85 65.12 30.04 65.94C33.09 68.03 36.5 69.42 40.09 70.05C39.82 70.07 39.56 70.09 39.29 70.09C39.25 70.09 39.22 70.09 39.18 70.09H39.11C39.05 70.09 38.98 70.09 38.92 70.09H38.9C38.05 70.09 37.2 70.03 36.36 69.94C30.71 69.32 25.59 66.86 21.54 62.81C19.36 60.63 17.63 58.13 16.4 55.37L16.35 55.26C14.97 52.13 14.26 48.77 14.26 45.28L14.21 38.5H0.540039V45.31C0.550039 50.66 1.63004 55.82 3.74004 60.66C3.77004 60.74 3.82004 60.85 3.88004 60.98C5.80004 65.27 8.47004 69.15 11.84 72.51C19.03 79.7 28.59 83.72 38.76 83.81C38.88 83.81 39 83.81 39.12 83.81H39.48C40.95 83.79 42.42 83.64 43.84 83.37C47.47 82.69 50.87 81.26 53.85 79.17C53.68 79.37 53.5 79.57 53.31 79.77C53.28 79.8 53.26 79.82 53.23 79.85L53.03 80.05C52.42 80.65 51.78 81.21 51.13 81.74C46.7 85.3 41.33 87.18 35.61 87.18C32.53 87.18 29.54 86.63 26.71 85.55L26.6 85.51C23.41 84.27 20.53 82.4 18.06 79.94L13.23 75.18L3.56004 84.85L8.27004 89.56L8.38004 89.67C12.17 93.44 16.58 96.33 21.5 98.26C21.58 98.29 21.69 98.34 21.82 98.39C26.21 100.07 30.84 100.92 35.6 100.92C45.78 100.92 55.37 97 62.62 89.87C62.71 89.79 62.79 89.7 62.88 89.62L63.13 89.36C64.15 88.31 65.09 87.16 65.91 85.97C68 82.92 69.39 79.51 70.02 75.92C70.04 76.19 70.06 76.46 70.06 76.73C70.06 76.76 70.06 76.8 70.06 76.83V77.11C70.06 77.96 70 78.81 69.91 79.65C69.29 85.3 66.83 90.42 62.78 94.47C60.6 96.65 58.1 98.38 55.34 99.61L55.23 99.66C52.1 101.04 48.74 101.75 45.25 101.76L38.47 101.81V115.48H45.28C50.63 115.47 55.79 114.39 60.62 112.28C60.7 112.25 60.81 112.2 60.94 112.14C65.23 110.22 69.11 107.55 72.47 104.18C79.66 96.99 83.68 87.43 83.77 77.26C83.77 77.14 83.77 77.02 83.77 76.9V76.54C83.75 75.07 83.6 73.6 83.33 72.18C82.65 68.55 81.22 65.15 79.13 62.17C79.34 62.35 79.54 62.53 79.74 62.72L79.77 62.75C79.77 62.75 79.81 62.79 79.83 62.81C79.86 62.84 79.89 62.87 79.92 62.9L80.01 62.99C80.59 63.58 81.15 64.2 81.67 64.85L81.71 64.89C85.27 69.32 87.15 74.68 87.15 80.41C87.15 83.49 86.6 86.48 85.52 89.31L85.48 89.42C84.24 92.61 82.37 95.49 79.91 97.96L75.15 102.79L84.81 112.46L89.52 107.75L89.62 107.65C93.4 103.86 96.29 99.44 98.21 94.52C98.25 94.43 98.29 94.32 98.34 94.19C100.01 89.81 100.86 85.17 100.86 80.42C100.86 70.25 96.94 60.65 89.81 53.4C89.73 53.32 89.65 53.24 89.57 53.15L89.55 53.13C89.46 53.04 89.38 52.96 89.29 52.87C88.25 51.85 87.11 50.93 85.91 50.11C82.81 47.98 79.37 46.62 75.85 46C76.13 45.98 76.4 45.96 76.68 45.96H76.73C76.73 45.96 76.78 45.96 76.81 45.96C76.85 45.96 76.89 45.96 76.94 45.96H77.06C77.9 45.96 78.74 46.01 79.57 46.11H79.6C85.25 46.73 90.37 49.19 94.42 53.24C96.6 55.42 98.33 57.92 99.56 60.68L99.61 60.79C100.99 63.92 101.7 67.28 101.71 70.77L101.76 77.55H115.43V70.74C115.42 65.39 114.34 60.22 112.22 55.38L112.25 55.33ZM70.45 58.8C64.62 60.06 60.06 64.61 58.81 70.44L58 74.18L57.19 70.44C55.93 64.61 51.38 60.05 45.55 58.8L41.81 57.99L45.55 57.19C51.38 55.93 55.94 51.38 57.19 45.55L58 41.81L58.81 45.55C60.06 51.38 64.62 55.94 70.45 57.19L74.19 57.99L70.45 58.8Z" fill="white"/>
</mask>
<g mask="url(#mask0_1108_21053)">
<path d="M74.1896 41.8101H41.8096V74.1901H74.1896V41.8101Z" fill="#18181B"/>
<path d="M74.5205 58V74.52H41.4805V41.48H74.5205V58Z" fill="#18181B"/>
<path d="M74.5205 58V74.52H41.4805V41.48H74.5205V58Z" fill="#18181B"/>
<path d="M74.5205 58V74.52H41.4805V41.48H74.5205V58Z" fill="#18181B"/>
<path d="M74.5205 58V74.52H41.4805V41.48H74.5205V58Z" fill="#18181B"/>
<path d="M74.5205 58V74.52H41.4805V41.48H74.5205V58Z" fill="#18181B"/>
<path d="M74.5205 58V74.52H41.4805V41.48H74.5205V58Z" fill="#18181B"/>
<path d="M74.5205 58V74.52H41.4805V41.48H74.5205V58Z" fill="#18181B"/>
<path d="M74.5205 58V74.52H41.4805V41.48H74.5205V58Z" fill="#18181B"/>
<path d="M74.5205 58V74.52H41.4805V41.48H74.5205V58Z" fill="#18181B"/>
<path d="M74.5205 58V74.52H41.4805V41.48H74.5205V58Z" fill="#18181B"/>
<path d="M74.5205 58V74.52H41.4805V41.48H74.5205V58Z" fill="#18181B"/>
<path d="M74.5205 58V74.52H41.4805V41.48H74.5205V58Z" fill="#18181B"/>
<path d="M74.5205 58V74.52H41.4805V41.48H74.5205V58Z" fill="#18181B"/>
<path d="M74.5205 58V74.52H41.4805V41.48H74.5205V58Z" fill="#18181B"/>
<path d="M74.5205 58V74.52H41.4805V41.48H74.5205V58Z" fill="#18181B"/>
<path d="M74.5205 58V74.52H41.4805V41.48H74.5205V58Z" fill="#18181B"/>
<path d="M74.5205 58V74.52H41.4805V41.48H74.5205V58Z" fill="#18181B"/>
<path d="M74.5205 58V74.52H41.4805V41.48H74.5205V58Z" fill="#18181B"/>
<path d="M74.5205 58V74.52H41.4805V41.48H74.5205V58Z" fill="#18181B"/>
<path d="M74.5205 58V74.52H41.4805V41.48H74.5205V58Z" fill="#18181B"/>
<path d="M74.5205 58V74.52H41.4805V41.48H74.5205V58Z" fill="#18181B"/>
<path d="M74.5205 58V74.52H41.4805V41.48H74.5205V58Z" fill="#18181B"/>
<path d="M74.5205 58V74.52H41.4805V41.48H74.5205V58Z" fill="#18181B"/>
<path d="M74.5205 58V74.52H41.4805V41.48H74.5205V58Z" fill="#18181B"/>
<path d="M74.5205 58V74.52H41.4805V41.48H74.5205V58Z" fill="#18181B"/>
<path d="M74.5205 58V74.52H41.4805V41.48H74.5205V58Z" fill="#18181B"/>
<path d="M74.5205 58V74.52H41.4805V41.48H74.5205V58Z" fill="#18181B"/>
<path d="M74.5205 58V74.52H41.4805V41.48H74.5205V58Z" fill="#18181B"/>
<path d="M74.5205 58V74.52H41.4805V41.48H74.5205V58Z" fill="#18181B"/>
<path d="M74.5205 58V74.52H41.4805V41.48H74.5205V58Z" fill="#18181B"/>
<path d="M74.5205 58V74.52H41.4805V41.48H74.5205V58Z" fill="#18181B"/>
<path d="M74.5205 58V74.52H41.4805V41.48H74.5205V58Z" fill="#18181B"/>
<path d="M74.5205 58V74.52H41.4805V41.48H74.5205V58Z" fill="#18181B"/>
<path d="M74.5205 58V74.52H41.4805V41.48H74.5205V58Z" fill="#18181B"/>
<path d="M74.5205 58V74.52H41.4805V41.48H74.5205V58Z" fill="#18181B"/>
<path d="M74.5205 58V74.52H41.4805V41.48H74.5205V58Z" fill="#18181B"/>
<path d="M74.5205 58V74.52H41.4805V41.48H74.5205V58Z" fill="#18181B"/>
<path d="M74.5205 58V74.52H41.4805V41.48H74.5205V58Z" fill="#18181B"/>
<path d="M74.5205 58V74.52H41.4805V41.48H74.5205V58Z" fill="#18181B"/>
<path d="M74.5205 58V74.52H41.4805V41.48H74.5205V58Z" fill="#18181B"/>
<path d="M74.5205 58V74.52H41.4805V41.48H74.5205V58Z" fill="#18181B"/>
<path d="M74.5205 58V74.52H41.4805V41.48H74.5205V58Z" fill="#18181B"/>
<path d="M74.5205 58V74.52H41.4805V41.48H74.5205V58Z" fill="#18181B"/>
<path d="M74.5205 58V74.52H41.4805V41.48H74.5205V58Z" fill="#18181B"/>
<path d="M74.5197 58.0001V72.5201H75.6096C75.1396 73.0801 74.6496 73.6201 74.1396 74.1401C73.6196 74.6601 73.0797 75.1501 72.5197 75.6101V74.5201H43.4796V75.6101C42.9196 75.1401 42.3796 74.6501 41.8596 74.1401C41.3396 73.6301 40.8496 73.0801 40.3896 72.5201H41.4897V43.4801H40.3896C40.8596 42.9201 41.3496 42.3801 41.8596 41.8601C42.3696 41.3401 42.9196 40.8501 43.4796 40.3901V41.4901H72.5197V40.3901C73.0797 40.8601 73.6196 41.3501 74.1396 41.8601C74.6596 42.3701 75.1497 42.9201 75.6096 43.4801H74.5197V58.0001Z" fill="#18181B"/>
<path d="M74.5202 58V70.32H76.2802C75.4902 71.49 74.5902 72.58 73.5902 73.58C72.5902 74.58 71.5002 75.48 70.3302 76.27V74.51H45.6902V76.27C44.5202 75.48 43.4302 74.58 42.4302 73.58C41.4302 72.58 40.5302 71.49 39.7402 70.32H41.5002V45.68H39.7402C40.5302 44.51 41.4302 43.42 42.4302 42.42C43.4302 41.42 44.5202 40.52 45.6902 39.73V41.49H70.3302V39.73C71.5002 40.52 72.5902 41.42 73.5902 42.42C74.5902 43.42 75.4902 44.51 76.2802 45.68H74.5202V58Z" fill="#18181B"/>
<path d="M74.5204 58.0001V69.8801H75.6204C74.8604 71.0101 73.9904 72.0601 73.0204 73.0301C72.0604 73.9901 71.0104 74.8601 69.8704 75.6301V74.5301H46.1104V75.6301C44.9804 74.8701 43.9304 74.0001 42.9604 73.0301C41.9904 72.0601 41.1304 71.0201 40.3604 69.8801H41.4604V46.1201H40.3604C41.1204 44.9901 41.9904 43.9401 42.9604 42.9701C43.9204 42.0101 44.9704 41.1401 46.1104 40.3701V41.4701H69.8704V40.3701C71.0004 41.1301 72.0504 42.0001 73.0204 42.9701C73.9804 43.9301 74.8504 44.9801 75.6204 46.1201H74.5204V58.0001Z" fill="#18181B"/>
<path d="M74.5203 58V69.44H74.9703C74.2303 70.53 73.4003 71.54 72.4703 72.47C71.5403 73.4 70.5303 74.23 69.4403 74.97V74.52H46.5603V74.97C45.4703 74.23 44.4603 73.4 43.5303 72.47C42.6003 71.54 41.7703 70.53 41.0303 69.44H41.4803V46.56H41.0303C41.7703 45.47 42.6003 44.46 43.5303 43.53C44.4603 42.6 45.4703 41.77 46.5603 41.03V41.48H69.4403V41.03C70.5303 41.77 71.5403 42.6 72.4703 43.53C73.4003 44.46 74.2303 45.47 74.9703 46.56H74.5203V58Z" fill="#18181B"/>
<path d="M74.5201 58.0001V65.6601H76.1301C75.1301 68.0101 73.6901 70.1301 71.9101 71.9101C70.1301 73.6901 68.0101 75.1301 65.6601 76.1301V74.5201H50.3401V76.1301C47.9901 75.1301 45.8701 73.6901 44.0901 71.9101C42.3101 70.1301 40.8701 68.0101 39.8701 65.6601H41.4801V50.3401H39.8701C40.8701 47.9901 42.3101 45.8701 44.0901 44.0901C45.8701 42.3101 47.9901 40.8701 50.3401 39.8701V41.4801H65.6601V39.8701C68.0101 40.8701 70.1301 42.3101 71.9101 44.0901C73.6901 45.8701 75.1301 47.9901 76.1301 50.3401H74.5201V58.0001Z" fill="#18181B"/>
<path d="M74.5196 58.0001V65.3501H75.4096C74.4496 67.6101 73.0696 69.6501 71.3596 71.3501C69.6496 73.0601 67.6196 74.4401 65.3596 75.4001V74.5101H50.6496V75.4001C48.3896 74.4401 46.3496 73.0601 44.6496 71.3501C42.9396 69.6401 41.5596 67.6101 40.5996 65.3501H41.4896V50.6401H40.5996C41.5596 48.3801 42.9396 46.3401 44.6496 44.6401C46.3596 42.9401 48.3896 41.5501 50.6496 40.5901V41.4801H65.3596V40.5901C67.6196 41.5501 69.6596 42.9301 71.3596 44.6401C73.0696 46.3501 74.4496 48.3801 75.4096 50.6401H74.5196V57.9901V58.0001Z" fill="#18181B"/>
<path d="M58.0004 76.1001C67.9967 76.1001 76.1004 67.9965 76.1004 58.0001C76.1004 48.0038 67.9967 39.9001 58.0004 39.9001C48.004 39.9001 39.9004 48.0038 39.9004 58.0001C39.9004 67.9965 48.004 76.1001 58.0004 76.1001Z" fill="#18181B"/>
<path d="M57.9997 75.3199C67.5653 75.3199 75.3197 67.5655 75.3197 57.9999C75.3197 48.4344 67.5653 40.6799 57.9997 40.6799C48.4341 40.6799 40.6797 48.4344 40.6797 57.9999C40.6797 67.5655 48.4341 75.3199 57.9997 75.3199Z" fill="#18181B"/>
<path d="M57.9997 74.53C67.129 74.53 74.5297 67.1292 74.5297 58C74.5297 48.8707 67.129 41.47 57.9997 41.47C48.8705 41.47 41.4697 48.8707 41.4697 58C41.4697 67.1292 48.8705 74.53 57.9997 74.53Z" fill="#18181B"/>
<path d="M57.9998 73.74C66.6927 73.74 73.7398 66.693 73.7398 58C73.7398 49.307 66.6927 42.26 57.9998 42.26C49.3068 42.26 42.2598 49.307 42.2598 58C42.2598 66.693 49.3068 73.74 57.9998 73.74Z" fill="#18181B"/>
<path d="M57.9998 72.9501C66.2565 72.9501 72.9498 66.2567 72.9498 58C72.9498 49.7434 66.2565 43.05 57.9998 43.05C49.7431 43.05 43.0498 49.7434 43.0498 58C43.0498 66.2567 49.7431 72.9501 57.9998 72.9501Z" fill="#18181B"/>
<path d="M58.0001 72.1701C65.826 72.1701 72.1701 65.826 72.1701 58.0001C72.1701 50.1742 65.826 43.8301 58.0001 43.8301C50.1742 43.8301 43.8301 50.1742 43.8301 58.0001C43.8301 65.826 50.1742 72.1701 58.0001 72.1701Z" fill="#18181B"/>
<path d="M58.0001 71.3801C65.3897 71.3801 71.3801 65.3897 71.3801 58.0001C71.3801 50.6105 65.3897 44.6201 58.0001 44.6201C50.6105 44.6201 44.6201 50.6105 44.6201 58.0001C44.6201 65.3897 50.6105 71.3801 58.0001 71.3801Z" fill="#18181B"/>
<path d="M58.0002 70.5902C64.9534 70.5902 70.5902 64.9534 70.5902 58.0002C70.5902 51.0469 64.9534 45.4102 58.0002 45.4102C51.0469 45.4102 45.4102 51.0469 45.4102 58.0002C45.4102 64.9534 51.0469 70.5902 58.0002 70.5902Z" fill="#18181B"/>
<path d="M58.0004 69.8099C64.5229 69.8099 69.8104 64.5224 69.8104 57.9999C69.8104 51.4775 64.5229 46.1899 58.0004 46.1899C51.4779 46.1899 46.1904 51.4775 46.1904 57.9999C46.1904 64.5224 51.4779 69.8099 58.0004 69.8099Z" fill="#18181B"/>
<path d="M58.0005 69.02C64.0866 69.02 69.0205 64.0862 69.0205 58C69.0205 51.9138 64.0866 46.98 58.0005 46.98C51.9143 46.98 46.9805 51.9138 46.9805 58C46.9805 64.0862 51.9143 69.02 58.0005 69.02Z" fill="#18181B"/>
<path d="M58.0005 68.23C63.6504 68.23 68.2305 63.6499 68.2305 58C68.2305 52.3501 63.6504 47.77 58.0005 47.77C52.3506 47.77 47.7705 52.3501 47.7705 58C47.7705 63.6499 52.3506 68.23 58.0005 68.23Z" fill="#18181B"/>
<path d="M57.9998 67.4501C63.2189 67.4501 67.4498 63.2191 67.4498 58C67.4498 52.781 63.2189 48.55 57.9998 48.55C52.7807 48.55 48.5498 52.781 48.5498 58C48.5498 63.2191 52.7807 67.4501 57.9998 67.4501Z" fill="#18181B"/>
<path d="M57.9998 66.6601C62.7826 66.6601 66.6598 62.7829 66.6598 58.0001C66.6598 53.2173 62.7826 49.3401 57.9998 49.3401C53.2171 49.3401 49.3398 53.2173 49.3398 58.0001C49.3398 62.7829 53.2171 66.6601 57.9998 66.6601Z" fill="#18181B"/>
<path d="M57.9999 65.8701C62.3464 65.8701 65.8699 62.3466 65.8699 58.0001C65.8699 53.6536 62.3464 50.1301 57.9999 50.1301C53.6534 50.1301 50.1299 53.6536 50.1299 58.0001C50.1299 62.3466 53.6534 65.8701 57.9999 65.8701Z" fill="#18181B"/>
<path d="M57.9999 65.0799C61.9101 65.0799 65.0799 61.9101 65.0799 57.9999C65.0799 54.0897 61.9101 50.9199 57.9999 50.9199C54.0897 50.9199 50.9199 54.0897 50.9199 57.9999C50.9199 61.9101 54.0897 65.0799 57.9999 65.0799Z" fill="#18181B"/>
<path d="M58.0002 64.2999C61.4796 64.2999 64.3002 61.4793 64.3002 58C64.3002 54.5206 61.4796 51.7 58.0002 51.7C54.5208 51.7 51.7002 54.5206 51.7002 58C51.7002 61.4793 54.5208 64.2999 58.0002 64.2999Z" fill="#18181B"/>
<path d="M58.0002 63.51C61.0433 63.51 63.5102 61.0431 63.5102 58C63.5102 54.9569 61.0433 52.49 58.0002 52.49C54.9571 52.49 52.4902 54.9569 52.4902 58C52.4902 61.0431 54.9571 63.51 58.0002 63.51Z" fill="#18181B"/>
<path d="M58.0003 62.72C60.6071 62.72 62.7203 60.6068 62.7203 58C62.7203 55.3932 60.6071 53.28 58.0003 53.28C55.3935 53.28 53.2803 55.3932 53.2803 58C53.2803 60.6068 55.3935 62.72 58.0003 62.72Z" fill="#18181B"/>
<path d="M57.9996 61.9401C60.1756 61.9401 61.9396 60.1761 61.9396 58.0001C61.9396 55.8241 60.1756 54.0601 57.9996 54.0601C55.8236 54.0601 54.0596 55.8241 54.0596 58.0001C54.0596 60.1761 55.8236 61.9401 57.9996 61.9401Z" fill="#18181B"/>
<path d="M57.9996 61.1501C59.7393 61.1501 61.1496 59.7398 61.1496 58.0001C61.1496 56.2604 59.7393 54.8501 57.9996 54.8501C56.2599 54.8501 54.8496 56.2604 54.8496 58.0001C54.8496 59.7398 56.2599 61.1501 57.9996 61.1501Z" fill="#18181B"/>
<path d="M57.9996 60.3601C59.303 60.3601 60.3596 59.3035 60.3596 58.0001C60.3596 56.6967 59.303 55.6401 57.9996 55.6401C56.6963 55.6401 55.6396 56.6967 55.6396 58.0001C55.6396 59.3035 56.6963 60.3601 57.9996 60.3601Z" fill="#18181B"/>
<path d="M57.9997 59.5699C58.8668 59.5699 59.5697 58.867 59.5697 57.9999C59.5697 57.1328 58.8668 56.4299 57.9997 56.4299C57.1326 56.4299 56.4297 57.1328 56.4297 57.9999C56.4297 58.867 57.1326 59.5699 57.9997 59.5699Z" fill="#18181B"/>
<path d="M58 58.79C58.4363 58.79 58.79 58.4363 58.79 58C58.79 57.5637 58.4363 57.21 58 57.21C57.5637 57.21 57.21 57.5637 57.21 58C57.21 58.4363 57.5637 58.79 58 58.79Z" fill="#18181B"/>
<path d="M115.46 0.540039H0.540039V115.46H115.46V0.540039Z" fill="#18181B"/>
<path d="M58 115.46C89.7343 115.46 115.46 89.7343 115.46 58C115.46 26.2658 89.7343 0.540039 58 0.540039C26.2658 0.540039 0.540039 26.2658 0.540039 58C0.540039 89.7343 26.2658 115.46 58 115.46Z" fill="#18181B"/>
<path d="M58.0001 114.67C89.298 114.67 114.67 89.298 114.67 58.0001C114.67 26.7021 89.298 1.33008 58.0001 1.33008C26.7021 1.33008 1.33008 26.7021 1.33008 58.0001C1.33008 89.298 26.7021 114.67 58.0001 114.67Z" fill="#18181B"/>
<path d="M58.0001 113.88C88.8618 113.88 113.88 88.8618 113.88 58.0001C113.88 27.1384 88.8618 2.12012 58.0001 2.12012C27.1384 2.12012 2.12012 27.1384 2.12012 58.0001C2.12012 88.8618 27.1384 113.88 58.0001 113.88Z" fill="#18181B"/>
<path d="M58.0004 113.1C88.4313 113.1 113.1 88.431 113.1 58.0001C113.1 27.5693 88.4313 2.90015 58.0004 2.90015C27.5695 2.90015 2.90039 27.5693 2.90039 58.0001C2.90039 88.431 27.5695 113.1 58.0004 113.1Z" fill="#18181B"/>
<path d="M58.0004 112.31C87.995 112.31 112.31 87.9945 112.31 57.9999C112.31 28.0054 87.995 3.68994 58.0004 3.68994C28.0058 3.68994 3.69043 28.0054 3.69043 57.9999C3.69043 87.9945 28.0058 112.31 58.0004 112.31Z" fill="#18181B"/>
<path d="M58.0005 111.52C87.5587 111.52 111.52 87.5583 111.52 58C111.52 28.4417 87.5587 4.47998 58.0005 4.47998C28.4422 4.47998 4.48047 28.4417 4.48047 58C4.48047 87.5583 28.4422 111.52 58.0005 111.52Z" fill="#18181B"/>
<path d="M57.9998 110.74C87.1273 110.74 110.74 87.1275 110.74 58C110.74 28.8725 87.1273 5.26001 57.9998 5.26001C28.8723 5.26001 5.25977 28.8725 5.25977 58C5.25977 87.1275 28.8723 110.74 57.9998 110.74Z" fill="#18181B"/>
<path d="M57.9998 109.95C86.691 109.95 109.95 86.6912 109.95 58C109.95 29.3089 86.691 6.05005 57.9998 6.05005C29.3086 6.05005 6.0498 29.3089 6.0498 58C6.0498 86.6912 29.3086 109.95 57.9998 109.95Z" fill="#18181B"/>
<path d="M57.9998 109.16C86.2547 109.16 109.16 86.255 109.16 58.0001C109.16 29.7452 86.2547 6.84009 57.9998 6.84009C29.745 6.84009 6.83984 29.7452 6.83984 58.0001C6.83984 86.255 29.745 109.16 57.9998 109.16Z" fill="#18181B"/>
<path d="M57.9999 108.37C85.8185 108.37 108.37 85.8187 108.37 58.0001C108.37 30.1815 85.8185 7.63013 57.9999 7.63013C30.1813 7.63013 7.62988 30.1815 7.62988 58.0001C7.62988 85.8187 30.1813 108.37 57.9999 108.37Z" fill="#18181B"/>
<path d="M58.0002 107.59C85.388 107.59 107.59 85.388 107.59 58.0002C107.59 30.6124 85.388 8.41016 58.0002 8.41016C30.6124 8.41016 8.41016 30.6124 8.41016 58.0002C8.41016 85.388 30.6124 107.59 58.0002 107.59Z" fill="#18181B"/>
<path d="M58.0002 106.8C84.9517 106.8 106.8 84.9514 106.8 58C106.8 31.0485 84.9517 9.19995 58.0002 9.19995C31.0487 9.19995 9.2002 31.0485 9.2002 58C9.2002 84.9514 31.0487 106.8 58.0002 106.8Z" fill="#18181B"/>
<path d="M58.0002 106.01C84.5154 106.01 106.01 84.5152 106.01 58C106.01 31.4848 84.5154 9.98999 58.0002 9.98999C31.485 9.98999 9.99023 31.4848 9.99023 58C9.99023 84.5152 31.485 106.01 58.0002 106.01Z" fill="#18181B"/>
<path d="M58.0005 105.23C84.0849 105.23 105.231 84.0844 105.231 58C105.231 31.9156 84.0849 10.77 58.0005 10.77C31.9161 10.77 10.7705 31.9156 10.7705 58C10.7705 84.0844 31.9161 105.23 58.0005 105.23Z" fill="#18181B"/>
<path d="M57.9996 104.44C83.6477 104.44 104.44 83.6482 104.44 58.0001C104.44 32.352 83.6477 11.5601 57.9996 11.5601C32.3515 11.5601 11.5596 32.352 11.5596 58.0001C11.5596 83.6482 32.3515 104.44 57.9996 104.44Z" fill="#18181B"/>
<path d="M57.9996 103.65C83.2114 103.65 103.65 83.2119 103.65 58.0001C103.65 32.7883 83.2114 12.3501 57.9996 12.3501C32.7878 12.3501 12.3496 32.7883 12.3496 58.0001C12.3496 83.2119 32.7878 103.65 57.9996 103.65Z" fill="#18181B"/>
<path d="M57.9996 102.86C82.7751 102.86 102.86 82.7756 102.86 58.0001C102.86 33.2246 82.7751 13.1401 57.9996 13.1401C33.2242 13.1401 13.1396 33.2246 13.1396 58.0001C13.1396 82.7756 33.2242 102.86 57.9996 102.86Z" fill="#18181B"/>
<path d="M57.9999 102.08C82.3446 102.08 102.08 82.3446 102.08 57.9999C102.08 33.6552 82.3446 13.9199 57.9999 13.9199C33.6552 13.9199 13.9199 33.6552 13.9199 57.9999C13.9199 82.3446 33.6552 102.08 57.9999 102.08Z" fill="#18181B"/>
<path d="M58 101.29C81.9084 101.29 101.29 81.9084 101.29 58C101.29 34.0916 81.9084 14.71 58 14.71C34.0916 14.71 14.71 34.0916 14.71 58C14.71 81.9084 34.0916 101.29 58 101.29Z" fill="#18181B"/>
<path d="M58 100.5C81.4721 100.5 100.5 81.4721 100.5 58C100.5 34.5279 81.4721 15.5 58 15.5C34.5279 15.5 15.5 34.5279 15.5 58C15.5 81.4721 34.5279 100.5 58 100.5Z" fill="#18181B"/>
<path d="M58.0003 99.72C81.0416 99.72 99.7203 81.0414 99.7203 58C99.7203 34.9587 81.0416 16.28 58.0003 16.28C34.959 16.28 16.2803 34.9587 16.2803 58C16.2803 81.0414 34.959 99.72 58.0003 99.72Z" fill="#18181B"/>
<path d="M58.0003 98.9301C80.6053 98.9301 98.9303 80.6051 98.9303 58.0001C98.9303 35.3951 80.6053 17.0701 58.0003 17.0701C35.3953 17.0701 17.0703 35.3951 17.0703 58.0001C17.0703 80.6051 35.3953 98.9301 58.0003 98.9301Z" fill="#18181B"/>
<path d="M58.0004 98.1401C80.1691 98.1401 98.1404 80.1688 98.1404 58.0001C98.1404 35.8314 80.1691 17.8601 58.0004 17.8601C35.8316 17.8601 17.8604 35.8314 17.8604 58.0001C17.8604 80.1688 35.8316 98.1401 58.0004 98.1401Z" fill="#18181B"/>
<path d="M57.9996 97.3601C79.7376 97.3601 97.3596 79.7381 97.3596 58.0001C97.3596 36.2622 79.7376 18.6401 57.9996 18.6401C36.2617 18.6401 18.6396 36.2622 18.6396 58.0001C18.6396 79.7381 36.2617 97.3601 57.9996 97.3601Z" fill="#18181B"/>
<path d="M57.9997 96.5699C79.3013 96.5699 96.5697 79.3016 96.5697 57.9999C96.5697 36.6983 79.3013 19.4299 57.9997 19.4299C36.6981 19.4299 19.4297 36.6983 19.4297 57.9999C19.4297 79.3016 36.6981 96.5699 57.9997 96.5699Z" fill="#18181B"/>
<path d="M57.9997 95.78C78.865 95.78 95.7797 78.8653 95.7797 58C95.7797 37.1347 78.865 20.22 57.9997 20.22C37.1344 20.22 20.2197 37.1347 20.2197 58C20.2197 78.8653 37.1344 95.78 57.9997 95.78Z" fill="#18181B"/>
<path d="M57.9998 94.99C78.4288 94.99 94.9898 78.429 94.9898 58C94.9898 37.571 78.4288 21.01 57.9998 21.01C37.5708 21.01 21.0098 37.571 21.0098 58C21.0098 78.429 37.5708 94.99 57.9998 94.99Z" fill="#18181B"/>
<path d="M58 94.21C77.9983 94.21 94.21 77.9983 94.21 58C94.21 38.0018 77.9983 21.79 58 21.79C38.0018 21.79 21.79 38.0018 21.79 58C21.79 77.9983 38.0018 94.21 58 94.21Z" fill="#18181B"/>
<path d="M58.0001 93.4201C77.562 93.4201 93.4201 77.562 93.4201 58.0001C93.4201 38.4382 77.562 22.5801 58.0001 22.5801C38.4382 22.5801 22.5801 38.4382 22.5801 58.0001C22.5801 77.562 38.4382 93.4201 58.0001 93.4201Z" fill="#18181B"/>
<path d="M58.0001 92.6301C77.1257 92.6301 92.6301 77.1257 92.6301 58.0001C92.6301 38.8745 77.1257 23.3701 58.0001 23.3701C38.8745 23.3701 23.3701 38.8745 23.3701 58.0001C23.3701 77.1257 38.8745 92.6301 58.0001 92.6301Z" fill="#18181B"/>
<path d="M58.0004 91.8501C76.6952 91.8501 91.8504 76.695 91.8504 58.0001C91.8504 39.3053 76.6952 24.1501 58.0004 24.1501C39.3055 24.1501 24.1504 39.3053 24.1504 58.0001C24.1504 76.695 39.3055 91.8501 58.0004 91.8501Z" fill="#18181B"/>
<path d="M58.0004 91.0599C76.259 91.0599 91.0604 76.2585 91.0604 57.9999C91.0604 39.7414 76.259 24.9399 58.0004 24.9399C39.7419 24.9399 24.9404 39.7414 24.9404 57.9999C24.9404 76.2585 39.7419 91.0599 58.0004 91.0599Z" fill="#18181B"/>
<path d="M58.0005 90.27C75.8227 90.27 90.2705 75.8222 90.2705 58C90.2705 40.1777 75.8227 25.73 58.0005 25.73C40.1782 25.73 25.7305 40.1777 25.7305 58C25.7305 75.8222 40.1782 90.27 58.0005 90.27Z" fill="#18181B"/>
<path d="M58.0005 89.48C75.3864 89.48 89.4805 75.3859 89.4805 58C89.4805 40.6141 75.3864 26.52 58.0005 26.52C40.6146 26.52 26.5205 40.6141 26.5205 58C26.5205 75.3859 40.6146 89.48 58.0005 89.48Z" fill="#18181B"/>
<path d="M57.9998 88.7001C74.9549 88.7001 88.6998 74.9552 88.6998 58C88.6998 41.0449 74.9549 27.3 57.9998 27.3C41.0447 27.3 27.2998 41.0449 27.2998 58C27.2998 74.9552 41.0447 88.7001 57.9998 88.7001Z" fill="#18181B"/>
<path d="M57.9998 87.9101C74.5187 87.9101 87.9098 74.5189 87.9098 58.0001C87.9098 41.4813 74.5187 28.0901 57.9998 28.0901C41.481 28.0901 28.0898 41.4813 28.0898 58.0001C28.0898 74.5189 41.481 87.9101 57.9998 87.9101Z" fill="#18181B"/>
<path d="M57.9999 87.1201C74.0824 87.1201 87.1199 74.0827 87.1199 58.0001C87.1199 41.9176 74.0824 28.8801 57.9999 28.8801C41.9174 28.8801 28.8799 41.9176 28.8799 58.0001C28.8799 74.0827 41.9174 87.1201 57.9999 87.1201Z" fill="#18181B"/>
<path d="M58.0002 86.3402C73.6519 86.3402 86.3402 73.6519 86.3402 58.0002C86.3402 42.3484 73.6519 29.6602 58.0002 29.6602C42.3484 29.6602 29.6602 42.3484 29.6602 58.0002C29.6602 73.6519 42.3484 86.3402 58.0002 86.3402Z" fill="#18181B"/>
<path d="M58.0002 85.55C73.2156 85.55 85.5502 73.2154 85.5502 58C85.5502 42.7845 73.2156 30.45 58.0002 30.45C42.7847 30.45 30.4502 42.7845 30.4502 58C30.4502 73.2154 42.7847 85.55 58.0002 85.55Z" fill="#18181B"/>
<path d="M58.0002 84.76C72.7794 84.76 84.7602 72.7791 84.7602 58C84.7602 43.2208 72.7794 31.24 58.0002 31.24C43.2211 31.24 31.2402 43.2208 31.2402 58C31.2402 72.7791 43.2211 84.76 58.0002 84.76Z" fill="#18181B"/>
<path d="M58.0003 83.97C72.3431 83.97 83.9703 72.3429 83.9703 58C83.9703 43.6572 72.3431 32.03 58.0003 32.03C43.6574 32.03 32.0303 43.6572 32.0303 58C32.0303 72.3429 43.6574 83.97 58.0003 83.97Z" fill="#18181B"/>
<path d="M57.9996 83.1901C71.9116 83.1901 83.1896 71.9121 83.1896 58.0001C83.1896 44.088 71.9116 32.8101 57.9996 32.8101C44.0875 32.8101 32.8096 44.088 32.8096 58.0001C32.8096 71.9121 44.0875 83.1901 57.9996 83.1901Z" fill="#18181B"/>
<path d="M57.9996 82.4001C71.4754 82.4001 82.3996 71.4758 82.3996 58.0001C82.3996 44.5243 71.4754 33.6001 57.9996 33.6001C44.5239 33.6001 33.5996 44.5243 33.5996 58.0001C33.5996 71.4758 44.5239 82.4001 57.9996 82.4001Z" fill="#18181B"/>
<path d="M57.9996 81.6101C71.0391 81.6101 81.6096 71.0396 81.6096 58.0001C81.6096 44.9607 71.0391 34.3901 57.9996 34.3901C44.9602 34.3901 34.3896 44.9607 34.3896 58.0001C34.3896 71.0396 44.9602 81.6101 57.9996 81.6101Z" fill="#18181B"/>
<path d="M57.9999 80.8299C70.6086 80.8299 80.8299 70.6086 80.8299 57.9999C80.8299 45.3913 70.6086 35.1699 57.9999 35.1699C45.3913 35.1699 35.1699 45.3913 35.1699 57.9999C35.1699 70.6086 45.3913 80.8299 57.9999 80.8299Z" fill="#18181B"/>
<path d="M58 80.04C70.1723 80.04 80.04 70.1723 80.04 58C80.04 45.8276 70.1723 35.96 58 35.96C45.8276 35.96 35.96 45.8276 35.96 58C35.96 70.1723 45.8276 80.04 58 80.04Z" fill="#18181B"/>
<path d="M58 79.25C69.736 79.25 79.25 69.736 79.25 58C79.25 46.2639 69.736 36.75 58 36.75C46.2639 36.75 36.75 46.2639 36.75 58C36.75 69.736 46.2639 79.25 58 79.25Z" fill="#18181B"/>
<path d="M58 78.46C69.2998 78.46 78.46 69.2998 78.46 58C78.46 46.7003 69.2998 37.54 58 37.54C46.7003 37.54 37.54 46.7003 37.54 58C37.54 69.2998 46.7003 78.46 58 78.46Z" fill="#18181B"/>
<path d="M58.0003 77.6801C68.8693 77.6801 77.6803 68.869 77.6803 58.0001C77.6803 47.1311 68.8693 38.3201 58.0003 38.3201C47.1313 38.3201 38.3203 47.1311 38.3203 58.0001C38.3203 68.869 47.1313 77.6801 58.0003 77.6801Z" fill="#18181B"/>
<path d="M58.0004 76.8901C68.433 76.8901 76.8904 68.4328 76.8904 58.0001C76.8904 47.5674 68.433 39.1101 58.0004 39.1101C47.5677 39.1101 39.1104 47.5674 39.1104 58.0001C39.1104 68.4328 47.5677 76.8901 58.0004 76.8901Z" fill="#18181B"/>
<path d="M58.0004 76.1001C67.9967 76.1001 76.1004 67.9965 76.1004 58.0001C76.1004 48.0038 67.9967 39.9001 58.0004 39.9001C48.004 39.9001 39.9004 48.0038 39.9004 58.0001C39.9004 67.9965 48.004 76.1001 58.0004 76.1001Z" fill="#18181B"/>
<path d="M57.9997 75.3199C67.5653 75.3199 75.3197 67.5655 75.3197 57.9999C75.3197 48.4344 67.5653 40.6799 57.9997 40.6799C48.4341 40.6799 40.6797 48.4344 40.6797 57.9999C40.6797 67.5655 48.4341 75.3199 57.9997 75.3199Z" fill="#18181B"/>
<path d="M57.9997 74.53C67.129 74.53 74.5297 67.1292 74.5297 58C74.5297 48.8707 67.129 41.47 57.9997 41.47C48.8705 41.47 41.4697 48.8707 41.4697 58C41.4697 67.1292 48.8705 74.53 57.9997 74.53Z" fill="#18181B"/>
<path d="M57.9998 73.74C66.6927 73.74 73.7398 66.693 73.7398 58C73.7398 49.307 66.6927 42.26 57.9998 42.26C49.3068 42.26 42.2598 49.307 42.2598 58C42.2598 66.693 49.3068 73.74 57.9998 73.74Z" fill="#18181B"/>
<path d="M57.9998 72.9501C66.2565 72.9501 72.9498 66.2567 72.9498 58C72.9498 49.7434 66.2565 43.05 57.9998 43.05C49.7431 43.05 43.0498 49.7434 43.0498 58C43.0498 66.2567 49.7431 72.9501 57.9998 72.9501Z" fill="#18181B"/>
<path d="M58.0001 72.1701C65.826 72.1701 72.1701 65.826 72.1701 58.0001C72.1701 50.1742 65.826 43.8301 58.0001 43.8301C50.1742 43.8301 43.8301 50.1742 43.8301 58.0001C43.8301 65.826 50.1742 72.1701 58.0001 72.1701Z" fill="#18181B"/>
<path d="M58.0001 71.3801C65.3897 71.3801 71.3801 65.3897 71.3801 58.0001C71.3801 50.6105 65.3897 44.6201 58.0001 44.6201C50.6105 44.6201 44.6201 50.6105 44.6201 58.0001C44.6201 65.3897 50.6105 71.3801 58.0001 71.3801Z" fill="#18181B"/>
<path d="M58.0002 70.5902C64.9534 70.5902 70.5902 64.9534 70.5902 58.0002C70.5902 51.0469 64.9534 45.4102 58.0002 45.4102C51.0469 45.4102 45.4102 51.0469 45.4102 58.0002C45.4102 64.9534 51.0469 70.5902 58.0002 70.5902Z" fill="#18181B"/>
<path d="M58.0004 69.8099C64.5229 69.8099 69.8104 64.5224 69.8104 57.9999C69.8104 51.4775 64.5229 46.1899 58.0004 46.1899C51.4779 46.1899 46.1904 51.4775 46.1904 57.9999C46.1904 64.5224 51.4779 69.8099 58.0004 69.8099Z" fill="#18181B"/>
<path d="M58.0005 69.02C64.0866 69.02 69.0205 64.0862 69.0205 58C69.0205 51.9138 64.0866 46.98 58.0005 46.98C51.9143 46.98 46.9805 51.9138 46.9805 58C46.9805 64.0862 51.9143 69.02 58.0005 69.02Z" fill="#18181B"/>
<path d="M58.0005 68.23C63.6504 68.23 68.2305 63.6499 68.2305 58C68.2305 52.3501 63.6504 47.77 58.0005 47.77C52.3506 47.77 47.7705 52.3501 47.7705 58C47.7705 63.6499 52.3506 68.23 58.0005 68.23Z" fill="#18181B"/>
<path d="M57.9998 67.4501C63.2189 67.4501 67.4498 63.2191 67.4498 58C67.4498 52.781 63.2189 48.55 57.9998 48.55C52.7807 48.55 48.5498 52.781 48.5498 58C48.5498 63.2191 52.7807 67.4501 57.9998 67.4501Z" fill="#18181B"/>
<path d="M57.9998 66.6601C62.7826 66.6601 66.6598 62.7829 66.6598 58.0001C66.6598 53.2173 62.7826 49.3401 57.9998 49.3401C53.2171 49.3401 49.3398 53.2173 49.3398 58.0001C49.3398 62.7829 53.2171 66.6601 57.9998 66.6601Z" fill="#18181B"/>
<path d="M57.9999 65.8701C62.3464 65.8701 65.8699 62.3466 65.8699 58.0001C65.8699 53.6536 62.3464 50.1301 57.9999 50.1301C53.6534 50.1301 50.1299 53.6536 50.1299 58.0001C50.1299 62.3466 53.6534 65.8701 57.9999 65.8701Z" fill="#18181B"/>
<path d="M57.9999 65.0799C61.9101 65.0799 65.0799 61.9101 65.0799 57.9999C65.0799 54.0897 61.9101 50.9199 57.9999 50.9199C54.0897 50.9199 50.9199 54.0897 50.9199 57.9999C50.9199 61.9101 54.0897 65.0799 57.9999 65.0799Z" fill="#18181B"/>
<path d="M58.0002 64.2999C61.4796 64.2999 64.3002 61.4793 64.3002 58C64.3002 54.5206 61.4796 51.7 58.0002 51.7C54.5208 51.7 51.7002 54.5206 51.7002 58C51.7002 61.4793 54.5208 64.2999 58.0002 64.2999Z" fill="#18181B"/>
<path d="M58.0002 63.51C61.0433 63.51 63.5102 61.0431 63.5102 58C63.5102 54.9569 61.0433 52.49 58.0002 52.49C54.9571 52.49 52.4902 54.9569 52.4902 58C52.4902 61.0431 54.9571 63.51 58.0002 63.51Z" fill="#18181B"/>
<path d="M58.0003 62.72C60.6071 62.72 62.7203 60.6068 62.7203 58C62.7203 55.3932 60.6071 53.28 58.0003 53.28C55.3935 53.28 53.2803 55.3932 53.2803 58C53.2803 60.6068 55.3935 62.72 58.0003 62.72Z" fill="#18181B"/>
<path d="M57.9996 61.9401C60.1756 61.9401 61.9396 60.1761 61.9396 58.0001C61.9396 55.8241 60.1756 54.0601 57.9996 54.0601C55.8236 54.0601 54.0596 55.8241 54.0596 58.0001C54.0596 60.1761 55.8236 61.9401 57.9996 61.9401Z" fill="#18181B"/>
<path d="M57.9996 61.1501C59.7393 61.1501 61.1496 59.7398 61.1496 58.0001C61.1496 56.2604 59.7393 54.8501 57.9996 54.8501C56.2599 54.8501 54.8496 56.2604 54.8496 58.0001C54.8496 59.7398 56.2599 61.1501 57.9996 61.1501Z" fill="#18181B"/>
<path d="M57.9996 60.3601C59.303 60.3601 60.3596 59.3035 60.3596 58.0001C60.3596 56.6967 59.303 55.6401 57.9996 55.6401C56.6963 55.6401 55.6396 56.6967 55.6396 58.0001C55.6396 59.3035 56.6963 60.3601 57.9996 60.3601Z" fill="#18181B"/>
<path d="M57.9997 59.5699C58.8668 59.5699 59.5697 58.867 59.5697 57.9999C59.5697 57.1328 58.8668 56.4299 57.9997 56.4299C57.1326 56.4299 56.4297 57.1328 56.4297 57.9999C56.4297 58.867 57.1326 59.5699 57.9997 59.5699Z" fill="#18181B"/>
<path d="M58 58.79C58.4363 58.79 58.79 58.4363 58.79 58C58.79 57.5637 58.4363 57.21 58 57.21C57.5637 57.21 57.21 57.5637 57.21 58C57.21 58.4363 57.5637 58.79 58 58.79Z" fill="#18181B"/>
</g>
</svg>
