<svg width="112" height="104" viewBox="0 0 112 104" fill="none" xmlns="http://www.w3.org/2000/svg">
<g clip-path="url(#clip0_1108_21048)">
<path d="M50.4304 67.0027C76.648 67.0342 80.3767 35.3615 71.4217 30.4222C101.212 32.7739 114.746 12.4819 111.548 0.267474C111.548 0.267474 35.1024 -3.48417 31.4751 17.2167C29.5562 28.1649 36.3583 43.5726 34.6266 44.0288C33.3005 44.3827 31.6546 37.7918 27.9961 32.9705C19.1425 21.2908 9.58686 21.7627 4.61793 31.9166C3.05002 32.4829 1.68493 33.2222 0.0078125 34.9132C10.3747 34.9132 8.90042 43.2973 12.0596 53.695C19.3687 77.7228 31.8652 88.3643 60.4697 86.28C69.0893 122.05 119.738 97.9361 103.107 64.651C76.2892 84.2272 57.6849 74.7734 50.4304 67.0106V67.0027ZM12.1532 32.5143C11.2484 32.5143 10.5151 31.775 10.5151 30.8626C10.5151 29.9503 11.2484 29.211 12.1532 29.211C13.0581 29.211 13.7913 29.9503 13.7913 30.8626C13.7913 31.775 13.0581 32.5143 12.1532 32.5143Z" fill="#18181B"/>
</g>
<defs>
<clipPath id="clip0_1108_21048">
<rect width="112" height="104" fill="white"/>
</clipPath>
</defs>
</svg>
