<svg width="124" height="72" viewBox="0 0 124 72" fill="none" xmlns="http://www.w3.org/2000/svg">
<g clip-path="url(#clip0_1108_21045)">
<path d="M92.0552 66.5251C96.9652 58.9851 101.875 51.4451 106.785 43.8951C111.695 36.3551 116.595 28.8251 121.495 21.2851C131.445 5.62507 108.065 -8.03493 99.2752 8.14507C95.1852 16.1751 91.1052 24.2151 87.0252 32.2551C85.5252 35.2051 84.0252 38.1551 82.5252 41.0951C82.4552 41.4851 81.4552 39.6151 81.2552 39.4051C79.9852 37.4551 78.7152 35.4951 77.4452 33.5451C73.8852 28.0651 70.3152 22.5951 66.7552 17.1151C65.2052 14.7251 63.6552 12.3451 62.0952 9.95507C59.2452 5.20507 51.5252 5.92507 49.5752 11.0851C44.9252 20.2251 40.2752 29.3751 35.6252 38.5151C33.2252 43.2251 30.8252 47.9451 28.4352 52.6651C28.2852 53.2551 27.9552 52.1951 27.6852 51.9351C26.8752 50.6851 26.0652 49.4351 25.2452 48.1951C22.9852 44.7251 20.7352 41.2551 18.4752 37.7851C14.1352 31.1951 9.92517 24.6951 5.65517 18.1151C4.62517 16.5251 3.59517 14.9351 2.55517 13.3451C1.87517 11.7251 -0.614831 12.8951 0.265169 14.4451C0.405169 14.7351 0.555169 15.0251 0.705169 15.3051C6.12517 25.9551 11.5252 36.5951 16.9352 47.2551C18.7152 50.7651 20.5052 54.2751 22.2852 57.7751C23.1352 59.4451 23.9752 61.1151 24.8252 62.7751C25.9752 65.8551 30.7052 66.2551 32.3352 63.4151C38.2252 54.3651 44.1252 45.3051 50.0152 36.2451C51.2852 34.2951 52.5552 32.3451 53.8252 30.3851C54.2452 29.7351 54.6752 29.0851 55.0952 28.4351C55.4352 27.7751 55.4452 28.1751 55.7052 28.6451C57.1052 31.4051 58.5052 34.1651 59.9152 36.9251C63.2152 43.4151 66.5252 49.9251 69.8252 56.4151C71.2552 59.2351 72.6952 62.0551 74.1252 64.8651C76.9152 72.3751 88.0252 73.3751 92.0452 66.5051L92.0552 66.5251Z" fill="#18181B"/>
</g>
<defs>
<clipPath id="clip0_1108_21045">
<rect width="123.83" height="70.27" fill="white" transform="translate(0.0849609 0.86499)"/>
</clipPath>
</defs>
</svg>
