<svg width="116" height="116" viewBox="0 0 116 116" fill="none" xmlns="http://www.w3.org/2000/svg">
<g clip-path="url(#clip0_1108_21216)">
<path d="M115.835 57.4551L115.215 57.4451C115.325 57.5651 115.435 57.6851 115.535 57.8051C115.435 57.9251 115.325 58.0451 115.215 58.1651H115.845V58.0051C115.845 57.8251 115.845 57.6351 115.845 57.4551H115.835ZM57.3453 91.6751L57.4253 91.2751C57.4253 91.2751 57.3153 91.2851 57.2653 91.2751L57.3453 91.6751ZM0.155273 57.4451C0.155273 57.6351 0.155273 57.8251 0.155273 58.0051V58.1651H0.785273C0.675273 58.0451 0.565273 57.9251 0.465273 57.8051C0.565273 57.6851 0.675273 57.5651 0.785273 57.4451H0.155273Z" fill="#18181B"/>
<path d="M115.845 58.165C115.755 90.035 89.8953 115.845 58.0053 115.845C26.1153 115.845 0.245273 90.035 0.155273 58.165H0.785273C19.6053 79.955 38.4353 90.995 57.2653 91.275L57.3453 91.675L57.4253 91.275C76.6953 91.505 95.9553 80.465 115.215 58.165H115.845Z" fill="#18181B"/>
<path d="M115.835 57.445H115.215C95.9353 35.115 76.6353 24.075 57.3453 24.335C38.4953 24.585 19.6253 35.615 0.785273 57.445H0.155273C0.455273 25.755 26.2453 0.155029 58.0053 0.155029C89.7653 0.155029 115.545 25.755 115.835 57.445Z" fill="#18181B"/>
<path d="M91.0148 58.005L90.2148 58.165L70.4848 62.115C65.9348 63.035 62.3748 66.595 61.4648 71.145L57.4248 91.275C57.4248 91.275 57.3148 91.285 57.2648 91.275L53.2248 71.145C52.3148 66.595 48.7548 63.035 44.2048 62.115L24.4748 58.165L23.6748 58.005L26.4648 57.445L44.2048 53.885C48.7548 52.965 52.3148 49.415 53.2248 44.865L57.3448 24.335L61.4648 44.865C62.3748 49.415 65.9348 52.965 70.4848 53.885L88.2248 57.445L91.0148 58.005Z" fill="#18181B"/>
<path d="M57.4256 91.2751L57.3456 91.6751L57.2656 91.2751C57.3156 91.2851 57.3756 91.2851 57.4256 91.2751Z" fill="#18181B"/>
</g>
<defs>
<clipPath id="clip0_1108_21216">
<rect width="115.69" height="115.69" fill="white" transform="translate(0.155273 0.155029)"/>
</clipPath>
</defs>
</svg>
