<svg width="94" height="84" viewBox="0 0 94 84" fill="none" xmlns="http://www.w3.org/2000/svg">
<g clip-path="url(#clip0_1108_21008)">
<path d="M57.9765 33.9745L46.9945 0L36.0235 33.9745H0.5L18.1957 46.9228C25.3499 52.1586 33.9637 54.9732 42.8088 54.9732L46.9945 41.9972L51.1857 54.9732C60.0308 54.9732 68.6446 52.153 75.7988 46.9228L93.4945 33.9745H57.9765Z" fill="#18181B"/>
<path d="M36.0293 75.9774L47.0003 84L57.9713 75.9774L46.9948 67.9602L36.0293 75.9774Z" fill="#18181B"/>
<path d="M29.2491 54.9788H29.2381L23.1248 73.9329L22.4639 75.9829L36.0289 75.9774L40.2091 63.007L29.2491 54.9788Z" fill="#18181B"/>
<path d="M64.7561 54.9788L53.7852 63.007L57.9764 75.9829H71.5524L70.886 73.9274L64.7561 54.9788Z" fill="#18181B"/>
</g>
<defs>
<clipPath id="clip0_1108_21008">
<rect width="93" height="84" fill="white" transform="translate(0.5)"/>
</clipPath>
</defs>
</svg>
