<svg width="94" height="106" viewBox="0 0 94 106" fill="none" xmlns="http://www.w3.org/2000/svg">
<g clip-path="url(#clip0_1108_21247)">
<path d="M93.4498 77.4999C93.4498 93.1399 80.7298 105.86 65.0898 105.86H0.549805V77.4999L40.0498 90.8299L58.4598 97.0399H58.4798C60.5498 97.7399 62.7698 98.1199 65.0798 98.1199C76.4798 98.1199 85.7098 88.8799 85.7098 77.4899C85.7098 66.0999 76.4798 56.8599 65.0798 56.8599H0.549805V49.1199H65.0798C76.4798 49.1199 85.7098 39.8799 85.7098 28.4899C85.7098 17.0999 76.4798 7.85989 65.0798 7.85989C62.7698 7.85989 60.5498 8.23989 58.4798 8.93989H58.4598L40.0498 15.1599L4.1998 27.2799L0.549805 28.5099V0.139893H65.0798C80.7198 0.139893 93.4398 12.8599 93.4398 28.4999C93.4398 38.9399 87.7798 48.0699 79.3598 52.9999C87.7798 57.9299 93.4398 67.0599 93.4398 77.4999H93.4498Z" fill="#18181B"/>
</g>
<defs>
<clipPath id="clip0_1108_21247">
<rect width="92.9" height="105.72" fill="white" transform="translate(0.549805 0.139893)"/>
</clipPath>
</defs>
</svg>
