<svg width="118" height="108" viewBox="0 0 118 108" fill="none" xmlns="http://www.w3.org/2000/svg">
<g clip-path="url(#clip0_1108_21240)">
<path d="M80.6448 0.5H37.3555L22.918 21.1442L59.0001 69.9672L95.0823 21.1442L80.6448 0.5ZM77.7829 5.9818L86.4385 18.3567H72.1528L71.1015 16.7704L63.9528 5.9818H77.7829ZM65.5648 18.3567H52.4355L59.0001 8.45444L65.5648 18.3567ZM39.5281 6.96152L40.2173 5.9818H54.0591L45.8592 18.3567H31.5735L39.5281 6.96152ZM31.737 23.8501H45.205L45.6606 25.588L46.525 28.8537L52.6925 52.2038L31.737 23.8501ZM50.8936 23.8501H67.1183L59.0001 54.5948L50.8936 23.8501ZM65.3078 52.2155L72.7952 23.8501H86.2749L65.3078 52.2155Z" fill="#18181B"/>
<path d="M51.8046 78.7964L48.8026 74.5043C48.6274 74.2594 48.4639 74.0378 48.2887 73.7928C45.2867 69.7806 41.0348 66.9114 36.2223 65.6285L32.1107 59.7501V47.7251C32.1107 43.4563 30.4403 39.4208 27.3916 36.3767C25.0204 34.009 22.0418 32.4811 18.8179 31.9212C18.7711 27.7108 17.1008 23.7452 14.1105 20.736C11.0618 17.7152 7.02019 16.0474 2.745 16.0474H0V68.4977L21.8198 99.6972C25.3241 104.713 31.001 107.5 36.8297 107.5C39.2944 107.5 41.7941 106.999 44.1536 105.96C45.2516 105.482 46.3029 104.899 47.2724 104.211C50.9402 101.657 53.5334 97.8544 54.5846 93.4923H54.573C55.7994 88.4304 54.7949 83.0769 51.8046 78.7964ZM18.8179 37.5313C20.57 37.9979 22.1936 38.9309 23.5136 40.2489C25.511 42.255 26.6207 44.9143 26.6207 47.7251V53.3586C24.3546 51.679 21.668 50.606 18.8179 50.2911V37.5313ZM49.2582 92.1044C49.2465 92.1394 49.2465 92.1743 49.2348 92.2093V92.221C48.5106 95.2768 46.7001 97.9361 44.1303 99.7206C43.4528 100.199 42.7286 100.607 41.946 100.945C36.3859 103.395 29.8095 101.552 26.3286 96.5598L17.0307 83.2635L13.2928 77.9217L5.49 66.7715V21.8791C7.26549 22.3573 8.88913 23.2903 10.2207 24.6083C12.1247 26.5094 13.211 29.0054 13.3162 31.6763H13.2928V50.6293C13.0942 50.676 12.8957 50.7226 12.7088 50.781C12.4284 50.8509 12.1481 50.9442 11.8794 51.0376C11.5874 51.1309 11.2954 51.2475 11.0034 51.3641L10.5128 51.5741C10.2091 51.7024 9.91705 51.8423 9.62502 52.0056C9.36805 52.1339 9.11107 52.2855 8.85409 52.4255C8.51534 52.6354 8.1766 52.8454 7.84953 53.0786L5.59513 54.6415L13.2928 65.6518L18.7828 73.5129L29.354 88.6403L31.6084 87.0774L33.8628 85.5029L18.7828 63.9373L13.4447 56.2977C14.3558 55.9595 15.3019 55.7612 16.2714 55.6912C17.1125 55.6329 17.9535 55.6679 18.7828 55.8079C21.5512 56.2627 24.0859 57.8373 25.7212 60.1933L26.6207 61.4763L31.5967 68.591L32.9283 70.5038L33.9913 70.7254C37.9394 71.5768 41.467 73.8278 43.885 77.0586C44.0251 77.2569 44.1653 77.4551 44.3172 77.6534L47.2958 81.9339C49.3633 84.8964 50.0875 88.6053 49.2582 92.1044Z" fill="#18181B"/>
<path d="M115.255 16.0474C110.979 16.0474 106.938 17.7152 103.889 20.7477C100.899 23.7452 99.2402 27.6991 99.1934 31.9096C95.9578 32.4694 92.9792 34.009 90.5846 36.3767C87.5476 39.4208 85.8889 43.4563 85.8889 47.7251V59.7618L81.789 65.6285C76.9764 66.9114 72.7129 69.7806 69.711 73.8045C69.5357 74.0378 69.3722 74.2594 69.2087 74.5043L66.2067 78.7964C63.2164 83.0769 62.2002 88.4304 63.4267 93.4923V93.504C64.4662 97.8661 67.0594 101.657 70.7272 104.211C71.6967 104.899 72.748 105.482 73.846 105.96C76.2055 106.999 78.7052 107.5 81.1699 107.5C86.9986 107.5 92.6872 104.713 96.1798 99.6972L118 68.4977V16.0474H115.255ZM91.3789 47.7251C91.3789 44.9143 92.4769 42.255 94.4627 40.2606C95.7943 38.9309 97.4296 37.9979 99.1934 37.5313V50.2911C96.3433 50.606 93.6567 51.679 91.3789 53.3586V47.7251ZM112.51 66.7715L104.707 77.9333L100.981 83.2635L91.6826 96.5598C88.2018 101.552 81.6254 103.395 76.042 100.934C75.2827 100.607 74.5468 100.199 73.8693 99.7206C71.3112 97.9361 69.489 95.2768 68.7648 92.221C68.7531 92.186 68.7414 92.1394 68.7414 92.1044C67.9238 88.5937 68.6363 84.8964 70.7038 81.9339L73.6941 77.6534C73.8343 77.4551 73.9745 77.2569 74.1146 77.0703C76.5443 73.8278 80.0602 71.5768 84.02 70.7254L85.0713 70.5038L86.4029 68.591L91.3789 61.4763L92.2784 60.1933C93.9254 57.849 96.4368 56.2861 99.2168 55.8195C99.7892 55.7146 100.385 55.6679 100.981 55.6679C101.238 55.6679 101.483 55.6679 101.74 55.6912C102.698 55.7612 103.656 55.9595 104.567 56.2977L99.2168 63.9489L84.1485 85.5029L86.3912 87.0658V87.0774L88.6456 88.6403L99.2168 73.5246L104.707 65.6634L112.416 54.6415L110.162 53.0786C109.835 52.857 109.508 52.6354 109.169 52.4372C108.9 52.2739 108.62 52.1222 108.34 51.9823C108.059 51.8307 107.779 51.7024 107.487 51.5741C107.323 51.5041 107.16 51.4341 106.996 51.3641C106.447 51.1309 105.875 50.9442 105.303 50.781C105.104 50.7226 104.905 50.676 104.707 50.6293V31.6763H104.683C104.789 29.0054 105.887 26.5094 107.767 24.62C109.11 23.2903 110.746 22.3573 112.51 21.8791V66.7715Z" fill="#18181B"/>
</g>
<defs>
<clipPath id="clip0_1108_21240">
<rect width="118" height="107" fill="white" transform="translate(0 0.5)"/>
</clipPath>
</defs>
</svg>
