<svg width="18" height="19" viewBox="0 0 18 19" fill="none" xmlns="http://www.w3.org/2000/svg">
<path d="M11.5 3.125C11.5 2.63055 11.3534 2.1472 11.0787 1.73608C10.804 1.32495 10.4136 1.00452 9.95676 0.815302C9.49994 0.626083 8.99728 0.576575 8.51232 0.673038C8.02737 0.769501 7.58191 1.0076 7.23228 1.35723C6.88265 1.70687 6.64455 2.15232 6.54808 2.63728C6.45162 3.12223 6.50113 3.62489 6.69035 4.08171C6.87957 4.53853 7.2 4.92897 7.61112 5.20368C8.02225 5.47838 8.5056 5.625 9.00005 5.625C9.66309 5.625 10.299 5.36161 10.7678 4.89277C11.2367 4.42393 11.5 3.78804 11.5 3.125ZM9.00005 4.375C8.75282 4.375 8.51115 4.30169 8.30559 4.16434C8.10002 4.02699 7.93981 3.83176 7.8452 3.60336C7.75059 3.37495 7.72584 3.12361 7.77407 2.88114C7.8223 2.63866 7.94135 2.41593 8.11617 2.24112C8.29098 2.0663 8.51371 1.94725 8.75619 1.89902C8.99866 1.85079 9.25 1.87554 9.4784 1.97015C9.70681 2.06476 9.90203 2.22498 10.0394 2.43054C10.1767 2.6361 10.25 2.87777 10.25 3.125C10.25 3.45652 10.1184 3.77446 9.88393 4.00889C9.64951 4.24331 9.33157 4.375 9.00005 4.375ZM17.086 6.85235C17.0148 6.50231 16.8237 6.18812 16.5455 5.96403C16.2674 5.73994 15.9197 5.62003 15.5625 5.625H2.43755C2.08136 5.62499 1.73586 5.74668 1.4583 5.96989C1.18073 6.19311 0.987766 6.50446 0.911367 6.85236C0.834969 7.20026 0.879726 7.56381 1.03822 7.88279C1.19672 8.20177 1.45944 8.45702 1.78286 8.60625H1.79302L5.75786 10.3523L4.11724 16.5805C3.94557 16.9586 3.93115 17.3895 4.07715 17.7782C4.22315 18.167 4.51761 18.4819 4.89575 18.6535C5.27389 18.8252 5.70474 18.8396 6.09351 18.6936C6.48228 18.5476 6.79713 18.2531 6.9688 17.875L9.00005 14.3695L11.0313 17.875C11.2118 18.237 11.5257 18.5149 11.9069 18.6503C12.2881 18.7856 12.707 18.7678 13.0754 18.6006C13.4437 18.4334 13.7329 18.1299 13.882 17.7539C14.0312 17.3778 14.0287 16.9586 13.875 16.5844L12.2344 10.3563L16.1993 8.61016H16.2094C16.538 8.46592 16.8057 8.21106 16.9658 7.8899C17.126 7.56874 17.1685 7.2016 17.086 6.85235ZM15.6954 7.46953L11.2477 9.42735C11.1115 9.48734 11.0013 9.59394 10.9367 9.72799C10.8721 9.86203 10.8574 10.0147 10.8954 10.1586L12.6821 16.9531C12.6912 16.9895 12.704 17.0248 12.7204 17.0586C12.7466 17.1147 12.7556 17.1773 12.7462 17.2384C12.7368 17.2996 12.7094 17.3566 12.6676 17.4022C12.6257 17.4478 12.5713 17.48 12.5111 17.4946C12.451 17.5092 12.3879 17.5057 12.3297 17.4844C12.252 17.4559 12.1888 17.3977 12.154 17.3227C12.146 17.3058 12.1372 17.2893 12.1274 17.2734L9.54067 12.8125C9.48573 12.7178 9.40687 12.6392 9.31199 12.5845C9.21711 12.5299 9.10954 12.5011 9.00005 12.5011C8.89055 12.5011 8.78298 12.5299 8.6881 12.5845C8.59322 12.6392 8.51436 12.7178 8.45942 12.8125L5.87505 17.2695C5.86527 17.2854 5.8564 17.3019 5.84849 17.3188C5.81362 17.3938 5.7504 17.452 5.67271 17.4805C5.61459 17.5018 5.55146 17.5053 5.49132 17.4907C5.43118 17.4761 5.37673 17.4439 5.33489 17.3983C5.29304 17.3527 5.26569 17.2957 5.25629 17.2345C5.24688 17.1733 5.25586 17.1108 5.28208 17.0547C5.29842 17.0209 5.31125 16.9856 5.32036 16.9492L7.10474 10.1563C7.14266 10.0124 7.12802 9.85969 7.06343 9.72564C6.99884 9.5916 6.88855 9.485 6.75239 9.425L2.30474 7.46953C2.24089 7.43907 2.18927 7.38785 2.15832 7.32424C2.12737 7.26063 2.11891 7.1884 2.13433 7.11937C2.14976 7.05033 2.18814 6.98857 2.24322 6.94418C2.2983 6.89979 2.36681 6.8754 2.43755 6.875H15.5625C15.6335 6.87487 15.7024 6.89888 15.7578 6.94309C15.8133 6.98729 15.8521 7.04905 15.8678 7.11823C15.8836 7.1874 15.8753 7.25987 15.8444 7.32371C15.8134 7.38756 15.7617 7.43898 15.6977 7.46953H15.6954Z" fill="#343330"/>
</svg>
