<svg width="20" height="21" viewBox="0 0 20 21" fill="none" xmlns="http://www.w3.org/2000/svg">
<path d="M17.5 10.5001C17.5 10.6659 17.4342 10.8248 17.3169 10.942C17.1997 11.0593 17.0408 11.1251 16.875 11.1251H4.6336L9.19219 15.6829C9.25026 15.741 9.29632 15.8099 9.32775 15.8858C9.35918 15.9617 9.37535 16.043 9.37535 16.1251C9.37535 16.2072 9.35918 16.2885 9.32775 16.3644C9.29632 16.4403 9.25026 16.5092 9.19219 16.5673C9.13412 16.6254 9.06519 16.6714 8.98931 16.7028C8.91344 16.7343 8.83213 16.7505 8.75 16.7505C8.66788 16.7505 8.58656 16.7343 8.51069 16.7028C8.43482 16.6714 8.36589 16.6254 8.30782 16.5673L2.68282 10.9423C2.62471 10.8842 2.57861 10.8153 2.54715 10.7394C2.5157 10.6636 2.49951 10.5822 2.49951 10.5001C2.49951 10.418 2.5157 10.3366 2.54715 10.2608C2.57861 10.1849 2.62471 10.116 2.68282 10.0579L8.30782 4.43292C8.42509 4.31564 8.58415 4.24976 8.75 4.24976C8.91586 4.24976 9.07492 4.31564 9.19219 4.43292C9.30947 4.55019 9.37535 4.70925 9.37535 4.8751C9.37535 5.04096 9.30947 5.20002 9.19219 5.31729L4.6336 9.8751H16.875C17.0408 9.8751 17.1997 9.94095 17.3169 10.0582C17.4342 10.1754 17.5 10.3343 17.5 10.5001Z" fill="#666666"/>
</svg>
