<svg width="6" height="10" viewBox="0 0 6 10" fill="none" xmlns="http://www.w3.org/2000/svg">
<path d="M5.64844 5.39795L1.89844 9.14795C1.79276 9.25362 1.64944 9.31299 1.5 9.31299C1.35056 9.31299 1.20723 9.25362 1.10156 9.14795C0.995889 9.04228 0.936523 8.89895 0.936523 8.74951C0.936523 8.60007 0.995889 8.45675 1.10156 8.35107L4.45359 4.99998L1.1025 1.64795C1.05018 1.59562 1.00867 1.53351 0.980353 1.46514C0.952036 1.39678 0.937461 1.32351 0.937461 1.24951C0.937461 1.17551 0.952036 1.10224 0.980353 1.03388C1.00867 0.965514 1.05018 0.903397 1.1025 0.851073C1.15482 0.79875 1.21694 0.757245 1.2853 0.728927C1.35367 0.70061 1.42694 0.686035 1.50094 0.686035C1.57493 0.686035 1.64821 0.70061 1.71657 0.728927C1.78493 0.757245 1.84705 0.79875 1.89937 0.851073L5.64937 4.60107C5.70175 4.65339 5.74329 4.71554 5.7716 4.78394C5.79991 4.85235 5.81444 4.92567 5.81435 4.99971C5.81426 5.07374 5.79956 5.14703 5.77109 5.21537C5.74262 5.2837 5.70094 5.34575 5.64844 5.39795Z" fill="#343330"/>
</svg>
