<svg width="18" height="18" viewBox="0 0 18 18" fill="none" xmlns="http://www.w3.org/2000/svg">
<path d="M9 0.875C7.39303 0.875 5.82214 1.35152 4.486 2.24431C3.14985 3.1371 2.10844 4.40605 1.49348 5.8907C0.87852 7.37535 0.717618 9.00901 1.03112 10.5851C1.34463 12.1612 2.11846 13.6089 3.25476 14.7452C4.39106 15.8815 5.8388 16.6554 7.41489 16.9689C8.99099 17.2824 10.6247 17.1215 12.1093 16.5065C13.594 15.8916 14.8629 14.8502 15.7557 13.514C16.6485 12.1779 17.125 10.607 17.125 9C17.1227 6.84581 16.266 4.78051 14.7427 3.25727C13.2195 1.73403 11.1542 0.877275 9 0.875ZM15.8477 8.38906C15.6487 8.37969 15.4495 8.375 15.25 8.375C14.0906 8.37533 12.9364 8.52874 11.8172 8.83125C11.5443 8.02154 11.1924 7.24069 10.7664 6.5C11.8773 5.83009 12.883 4.99948 13.7508 4.03516C14.9549 5.18396 15.7001 6.73141 15.8477 8.38906ZM12.7719 3.25469C11.9912 4.11249 11.0889 4.85108 10.0938 5.44687C9.2603 4.27376 8.2409 3.2446 7.07579 2.4C8.03159 2.12098 9.03659 2.0529 10.0213 2.20047C11.006 2.34804 11.9469 2.70774 12.7789 3.25469H12.7719ZM5.69141 2.975C6.96844 3.77922 8.08177 4.81779 8.97266 6.03594C7.41346 6.75457 5.71684 7.12615 4 7.125C3.47013 7.12473 2.94086 7.0895 2.41563 7.01953C2.93825 5.29571 4.11376 3.84433 5.69141 2.975ZM2.125 9C2.12497 8.74839 2.13879 8.49697 2.16641 8.24688C2.77389 8.33216 3.38657 8.37498 4 8.375C5.96058 8.37685 7.89662 7.93902 9.66563 7.09375C10.0554 7.76679 10.3775 8.47676 10.6273 9.21328C9.96343 9.46268 9.32094 9.76577 8.70625 10.1195C6.99146 11.1102 5.52114 12.4734 4.40391 14.1086C3.68646 13.465 3.1127 12.6774 2.72004 11.7972C2.32738 10.9169 2.12463 9.96384 2.125 9ZM5.40625 14.8594C6.4206 13.3591 7.76276 12.1091 9.33125 11.2039C9.85565 10.9013 10.4029 10.6401 10.968 10.4227C11.1614 11.2808 11.2591 12.1578 11.2594 13.0375C11.2598 13.8927 11.1684 14.7455 10.9867 15.5813C10.0583 15.8617 9.08102 15.9424 8.11918 15.818C7.15733 15.6936 6.23274 15.3669 5.40625 14.8594ZM12.3641 14.9945C12.4605 14.348 12.5091 13.6951 12.5094 13.0414C12.5093 12.0296 12.3926 11.0211 12.1617 10.0359C13.1687 9.7642 14.207 9.62604 15.25 9.625C15.4479 9.625 15.6461 9.62995 15.8445 9.63984C15.7399 10.747 15.3686 11.8123 14.7625 12.7447C14.1564 13.6771 13.3335 14.4488 12.3641 14.9938V14.9945Z" fill="#343330"/>
</svg>
