<svg width="20" height="20" viewBox="0 0 20 20" fill="none" xmlns="http://www.w3.org/2000/svg">
<path d="M6.74402 1.45561C6.68354 1.41819 6.63494 1.36434 6.6039 1.30035C6.57286 1.23636 6.56066 1.16486 6.56872 1.0942C6.57677 1.02353 6.60476 0.956616 6.64942 0.901257C6.69407 0.845897 6.75354 0.804378 6.8209 0.781543C8.18871 0.310251 9.64431 0.149443 11.082 0.310792C12.5197 0.47214 13.9035 0.951597 15.1328 1.71436C15.1773 1.74244 15.2155 1.7796 15.2447 1.8234C15.2739 1.86721 15.2936 1.91668 15.3024 1.96859C15.3113 2.02051 15.3091 2.0737 15.296 2.12472C15.2829 2.17573 15.2593 2.22341 15.2265 2.26467C14.141 3.65177 12.8099 4.82755 11.2993 5.73342C10.0791 4.01991 8.53074 2.56584 6.74402 1.45561ZM9.96059 6.43748C8.59136 4.56914 6.79001 3.06019 4.71059 2.03967C4.65104 2.01075 4.58482 1.99836 4.51885 2.00381C4.45288 2.00925 4.38959 2.03232 4.33559 2.07061C2.6522 3.27473 1.39381 4.98147 0.741212 6.94561C0.724817 6.99583 0.719218 7.04895 0.724784 7.10149C0.730349 7.15402 0.746953 7.20479 0.773507 7.25046C0.800061 7.29614 0.835966 7.33568 0.878869 7.36651C0.921772 7.39734 0.970705 7.41876 1.02246 7.42936C2.00098 7.64028 2.99897 7.74775 3.99996 7.74998C6.05864 7.7511 8.09278 7.30319 9.96059 6.43748ZM19.6918 8.93967C19.4534 6.76516 18.4894 4.73438 16.9553 3.17498C16.9179 3.13698 16.8728 3.1074 16.8231 3.0882C16.7733 3.069 16.72 3.06063 16.6668 3.06365C16.6136 3.06667 16.5616 3.081 16.5143 3.10569C16.4671 3.13039 16.4256 3.16488 16.3928 3.20686C15.2062 4.71846 13.7548 6.00182 12.1093 6.99436C12.6234 7.88495 13.0489 8.82382 13.3797 9.79748C14.7228 9.43337 16.1083 9.24926 17.5 9.24998C18.0951 9.25 18.6898 9.2835 19.2812 9.35029C19.3363 9.35578 19.3918 9.34903 19.4439 9.33052C19.4961 9.31201 19.5435 9.2822 19.5827 9.24322C19.6219 9.20424 19.6521 9.15707 19.6709 9.10507C19.6898 9.05308 19.697 8.99756 19.6918 8.94248V8.93967ZM13.794 11.2365C14.0719 12.4186 14.2119 13.6288 14.2112 14.8431C14.2106 16.0054 14.0814 17.164 13.8259 18.2978C13.8096 18.3672 13.8134 18.4399 13.8369 18.5073C13.8604 18.5746 13.9026 18.6339 13.9586 18.6781C14.0146 18.7222 14.0821 18.7495 14.1531 18.7568C14.224 18.764 14.2956 18.7508 14.3593 18.7187C15.7812 18.0054 17.0075 16.9559 17.9317 15.6611C18.856 14.3663 19.4502 12.8656 19.6628 11.289C19.6692 11.2399 19.6658 11.1899 19.6528 11.1421C19.6398 11.0942 19.6174 11.0494 19.587 11.0103C19.5566 10.9712 19.5187 10.9384 19.4755 10.914C19.4324 10.8896 19.3848 10.874 19.3356 10.8681C17.4817 10.6295 15.5989 10.7569 13.794 11.2431V11.2365ZM11.9528 10.2569C11.6505 9.37038 11.2614 8.51593 10.7912 7.70592C8.6721 8.72397 6.35093 9.25171 3.99996 9.24998C2.90102 9.25004 1.80508 9.13535 0.729962 8.90779C0.678089 8.89685 0.624486 8.89703 0.572689 8.90832C0.520891 8.91961 0.472076 8.94176 0.429463 8.97329C0.386851 9.00483 0.35141 9.04505 0.325479 9.09129C0.299547 9.13753 0.283714 9.18874 0.279024 9.24154C0.259649 9.49154 0.249649 9.74436 0.249024 9.99998C0.248532 11.335 0.522965 12.6559 1.05523 13.8803C1.58749 15.1046 2.36618 16.2063 3.34277 17.1165C3.38397 17.1543 3.43308 17.1824 3.48652 17.1987C3.53995 17.215 3.59637 17.2192 3.65163 17.211C3.7069 17.2027 3.75961 17.1822 3.80593 17.1509C3.85225 17.1197 3.89099 17.0785 3.91934 17.0303C5.74916 13.9254 8.58285 11.5372 11.9528 10.2597V10.2569ZM5.0959 17.9922C5.07126 18.0352 5.05539 18.0827 5.04922 18.1319C5.04305 18.1811 5.04669 18.231 5.05995 18.2788C5.0732 18.3266 5.09579 18.3712 5.12643 18.4102C5.15706 18.4492 5.19512 18.4817 5.2384 18.5059C7.19902 19.6052 9.47952 19.9924 11.6931 19.6019C11.7589 19.5904 11.8204 19.5612 11.871 19.5174C11.9215 19.4736 11.9592 19.417 11.98 19.3534C12.4635 17.8998 12.7104 16.3779 12.7112 14.8459C12.7114 13.7905 12.5938 12.7384 12.3606 11.709C9.28869 12.9059 6.72309 15.1249 5.0959 17.9922Z" fill="#71717A"/>
</svg>
