<svg width="27" height="26" viewBox="0 0 27 26" fill="none" xmlns="http://www.w3.org/2000/svg">
<path d="M13.667 0C11.0958 0 8.58242 0.762437 6.44458 2.1909C4.30675 3.61935 2.6405 5.64968 1.65656 8.02512C0.672625 10.4006 0.415182 13.0144 0.916789 15.5362C1.4184 18.0579 2.65653 20.3743 4.47461 22.1924C6.29269 24.0105 8.60907 25.2486 11.1308 25.7502C13.6526 26.2518 16.2664 25.9944 18.6419 25.0104C21.0173 24.0265 23.0476 22.3603 24.4761 20.2224C25.9046 18.0846 26.667 15.5712 26.667 13C26.663 9.5534 25.2921 6.24911 22.855 3.812C20.4179 1.37488 17.1136 0.00396997 13.667 0ZM24.667 13C24.6679 14.0145 24.5278 15.0241 24.2507 16H19.437C19.7437 14.0118 19.7437 11.9882 19.437 10H24.2507C24.5278 10.9759 24.6679 11.9855 24.667 13ZM10.417 18H16.917C16.2766 20.0982 15.165 22.0223 13.667 23.625C12.1696 22.0218 11.058 20.098 10.417 18ZM9.9295 16C9.58617 14.0147 9.58617 11.9853 9.9295 10H17.4145C17.7578 11.9853 17.7578 14.0147 17.4145 16H9.9295ZM2.667 13C2.66613 11.9855 2.80622 10.9759 3.08325 10H7.897C7.59033 11.9882 7.59033 14.0118 7.897 16H3.08325C2.80622 15.0241 2.66613 14.0145 2.667 13ZM16.917 8H10.417C11.0574 5.90176 12.169 3.97773 13.667 2.375C15.1644 3.97815 16.276 5.90204 16.917 8ZM23.4582 8H19.0057C18.4446 5.94113 17.4988 4.00709 16.2182 2.3C17.7654 2.67166 19.2139 3.37347 20.4644 4.35732C21.7149 5.34117 22.7379 6.58379 23.4632 8H23.4582ZM11.1157 2.3C9.83525 4.00709 8.88943 5.94113 8.32825 8H3.87075C4.59609 6.58379 5.61908 5.34117 6.86961 4.35732C8.12013 3.37347 9.56861 2.67166 11.1157 2.3ZM3.87075 18H8.32825C8.88943 20.0589 9.83525 21.9929 11.1157 23.7C9.56861 23.3283 8.12013 22.6265 6.86961 21.6427C5.61908 20.6588 4.59609 19.4162 3.87075 18ZM16.2182 23.7C17.4988 21.9929 18.4446 20.0589 19.0057 18H23.4632C22.7379 19.4162 21.7149 20.6588 20.4644 21.6427C19.2139 22.6265 17.7654 23.3283 16.2182 23.7Z" fill="#161616"/>
</svg>
