<svg width="26" height="28" viewBox="0 0 26 28" fill="none" xmlns="http://www.w3.org/2000/svg">
<path d="M25.9125 21.1988C25.8375 21.0274 25.7164 20.8802 25.5625 20.7738C23.4413 19.3163 23 16.83 23 15C23 12.7913 24.6838 10.8675 25.6875 9.91625C25.7863 9.8228 25.8649 9.7102 25.9186 9.58533C25.9724 9.46046 26.0001 9.32595 26.0001 9.19C26.0001 9.05406 25.9724 8.91954 25.9186 8.79467C25.8649 8.6698 25.7863 8.5572 25.6875 8.46375C24.1025 6.9675 21.4775 6 19 6C17.2203 6.00137 15.4807 6.5289 14 7.51625C12.2727 6.35795 10.1957 5.83776 8.12631 6.04513C6.05691 6.2525 4.12445 7.17448 2.66129 8.6525C1.78658 9.54549 1.10026 10.6052 0.643101 11.7686C0.185938 12.932 -0.0327473 14.1754 3.50117e-05 15.425C0.0495225 17.5341 0.518705 19.6122 1.38019 21.538C2.24167 23.4638 3.47818 25.1986 5.01753 26.6413C5.94478 27.5173 7.17313 28.0037 8.44878 28H19.4088C20.0908 28.0013 20.7657 27.8625 21.3919 27.5922C22.018 27.3219 22.582 26.9259 23.0488 26.4288C23.9135 25.4981 24.6616 24.4655 25.2763 23.3538C26.1538 21.75 26.0413 21.5 25.9125 21.1988ZM21.5838 25.0663C21.3046 25.3627 20.9675 25.5985 20.5933 25.7592C20.2192 25.9198 19.816 26.0018 19.4088 26H8.44878C7.68475 26.0025 6.94901 25.7111 6.39378 25.1863C5.04637 23.9248 3.96385 22.4074 3.20945 20.7228C2.45506 19.0383 2.04391 17.2203 2.00004 15.375C1.97269 14.3946 2.14286 13.4187 2.50041 12.5054C2.85795 11.5921 3.39558 10.76 4.08128 10.0588C4.72193 9.40425 5.48731 8.88483 6.33216 8.53122C7.177 8.17761 8.08418 7.99698 9.00004 8H9.09754C10.6554 8.01641 12.1622 8.55716 13.375 9.535C13.5524 9.67701 13.7728 9.75438 14 9.75438C14.2272 9.75438 14.4477 9.67701 14.625 9.535C15.8639 8.5362 17.4087 7.99418 19 8C20.5891 8.01845 22.1438 8.46541 23.5 9.29375C21.875 11.1088 21 13.1025 21 15C21 17.9713 21.955 20.3413 23.7725 21.9125C23.2002 23.0646 22.4628 24.127 21.5838 25.0663ZM14.0288 3.75C14.3061 2.67589 14.9328 1.72451 15.8101 1.04562C16.6875 0.366728 17.7657 -0.00111129 18.875 2.52202e-06H19C19.2653 2.52202e-06 19.5196 0.105359 19.7071 0.292896C19.8947 0.480432 20 0.734786 20 1C20 1.26522 19.8947 1.51957 19.7071 1.70711C19.5196 1.89465 19.2653 2 19 2H18.875C18.2099 1.99994 17.5636 2.22093 17.0378 2.62821C16.5119 3.0355 16.1363 3.60599 15.97 4.25C15.9037 4.50693 15.7381 4.727 15.5095 4.86179C15.281 4.99658 15.0082 5.03506 14.7513 4.96875C14.4944 4.90245 14.2743 4.7368 14.1395 4.50824C14.0047 4.27968 13.9662 4.00693 14.0325 3.75H14.0288Z" fill="#71717A"/>
</svg>
