<svg width="33" height="20" viewBox="0 0 33 20" fill="none" xmlns="http://www.w3.org/2000/svg">
<path d="M27 7C26.277 6.99968 25.56 7.13055 24.8837 7.38625L21.7412 2H25C25.2652 2 25.5195 2.10536 25.7071 2.29289C25.8946 2.48043 26 2.73478 26 3C26 3.26522 26.1053 3.51957 26.2929 3.70711C26.4804 3.89464 26.7348 4 27 4C27.2652 4 27.5195 3.89464 27.7071 3.70711C27.8946 3.51957 28 3.26522 28 3C28 2.20435 27.6839 1.44129 27.1213 0.87868C26.5587 0.316071 25.7956 0 25 0H20C19.8246 0.000398717 19.6525 0.0468952 19.5008 0.134826C19.3491 0.222757 19.2232 0.349032 19.1357 0.500984C19.0482 0.652936 19.0021 0.825224 19.0022 1.00057C19.0023 1.17591 19.0486 1.34815 19.1362 1.5L20.5925 4H13.4075L11.3637 0.5C11.2762 0.348314 11.1503 0.222291 10.9987 0.134542C10.8471 0.046794 10.6751 0.000398802 10.5 0H6.99998C6.73476 0 6.4804 0.105357 6.29287 0.292893C6.10533 0.48043 5.99998 0.734784 5.99998 1C5.99998 1.26522 6.10533 1.51957 6.29287 1.70711C6.4804 1.89464 6.73476 2 6.99998 2H9.92623L11.64 4.93875L9.67623 7.6325C8.327 6.9573 6.77333 6.81368 5.3232 7.23013C3.87306 7.64657 2.63233 8.59266 1.84695 9.88087C1.06157 11.1691 0.788867 12.7054 1.08291 14.1852C1.37695 15.665 2.21627 16.9803 3.43449 17.8704C4.6527 18.7605 6.16088 19.1604 7.66007 18.9908C9.15925 18.8212 10.54 18.0945 11.5286 16.9548C12.5172 15.815 13.0415 14.3455 12.9975 12.8374C12.9535 11.3292 12.3445 9.89271 11.2912 8.8125L12.74 6.825L16.6362 13.5C16.6971 13.6223 16.7824 13.7308 16.8868 13.8189C16.9913 13.9069 17.1127 13.9726 17.2435 14.012C17.3743 14.0513 17.5118 14.0634 17.6475 14.0475C17.7832 14.0317 17.9142 13.9882 18.0324 13.9198C18.1506 13.8513 18.2536 13.7594 18.3349 13.6496C18.4162 13.5399 18.4742 13.4146 18.5052 13.2816C18.5363 13.1485 18.5397 13.0105 18.5154 12.8761C18.4911 12.7417 18.4394 12.6137 18.3637 12.5L14.5737 6H21.7587L23.1575 8.39625C22.0746 9.30134 21.3454 10.5592 21.0981 11.9487C20.8508 13.3382 21.1013 14.7704 21.8054 15.9936C22.5096 17.2167 23.6224 18.1525 24.9482 18.6363C26.274 19.1202 27.7279 19.1212 29.0544 18.6392C30.3809 18.1572 31.495 17.2231 32.2009 16.0009C32.9068 14.7788 33.1593 13.3469 32.9139 11.9571C32.6686 10.5672 31.9412 9.30831 30.8596 8.40169C29.7779 7.49507 28.4113 6.99875 27 7ZM11 13C11.0002 13.8556 10.7261 14.6887 10.218 15.3769C9.70979 16.0652 8.99432 16.5725 8.17661 16.8241C7.3589 17.0758 6.48205 17.0587 5.6748 16.7752C4.86756 16.4918 4.17246 15.957 3.69159 15.2493C3.21071 14.5417 2.9694 13.6985 3.00308 12.8436C3.03676 11.9888 3.34366 11.1672 3.87871 10.4996C4.41377 9.83196 5.14878 9.3535 5.97582 9.13444C6.80286 8.91539 7.67835 8.96728 8.47373 9.2825L6.19248 12.4075C6.10942 12.5131 6.04851 12.6344 6.01338 12.7641C5.97824 12.8938 5.96961 13.0293 5.988 13.1624C6.00638 13.2955 6.05141 13.4236 6.12039 13.5389C6.18936 13.6542 6.28087 13.7544 6.38946 13.8336C6.49804 13.9128 6.62146 13.9692 6.75235 13.9996C6.88324 14.03 7.01892 14.0338 7.15128 14.0106C7.28364 13.9873 7.40996 13.9377 7.52271 13.8646C7.63545 13.7915 7.7323 13.6964 7.80748 13.585L10.0887 10.46C10.6786 11.1749 11.0009 12.0731 11 13ZM27 17C26.2077 16.9994 25.4335 16.7635 24.7754 16.3223C24.1174 15.8811 23.6052 15.2544 23.3038 14.5217C23.0024 13.7891 22.9254 12.9834 23.0825 12.2068C23.2396 11.4303 23.6237 10.7179 24.1862 10.16L26.1362 13.5C26.1971 13.6223 26.2824 13.7308 26.3869 13.8189C26.4913 13.9069 26.6127 13.9726 26.7435 14.012C26.8743 14.0513 27.0118 14.0634 27.1475 14.0475C27.2832 14.0317 27.4142 13.9882 27.5324 13.9198C27.6506 13.8513 27.7536 13.7594 27.8349 13.6496C27.9162 13.5399 27.9742 13.4146 28.0052 13.2816C28.0363 13.1485 28.0397 13.0105 28.0154 12.8761C27.9911 12.7417 27.9394 12.6137 27.8637 12.5L25.9125 9.15125C26.4627 8.99549 27.0399 8.95951 27.6052 9.04574C28.1705 9.13197 28.7108 9.33841 29.1895 9.65113C29.6683 9.96385 30.0744 10.3756 30.3805 10.8586C30.6867 11.3416 30.8857 11.8846 30.9642 12.451C31.0427 13.0174 30.9988 13.5941 30.8355 14.1421C30.6722 14.6902 30.3933 15.1968 30.0176 15.6279C29.6419 16.0591 29.1782 16.4046 28.6576 16.6413C28.1371 16.878 27.5718 17.0003 27 17Z" fill="#71717A"/>
</svg>
