<svg width="21" height="27" viewBox="0 0 21 27" fill="none" xmlns="http://www.w3.org/2000/svg">
<path d="M19.8899 13.455C19.9544 13.3377 19.9946 13.2087 20.0082 13.0756C20.0218 12.9425 20.0086 12.808 19.9693 12.68C19.93 12.5521 19.8655 12.4334 19.7795 12.3309C19.6935 12.2284 19.5878 12.1442 19.4686 12.0833C19.3495 12.0224 19.2193 11.986 19.0858 11.9763C18.9524 11.9666 18.8183 11.9838 18.6916 12.0268C18.5649 12.0699 18.4482 12.1379 18.3483 12.2269C18.2483 12.316 18.1673 12.4241 18.1099 12.545C17.1855 14.3259 15.7441 15.7857 13.9749 16.7325L11.9024 12.0675C12.6945 11.5019 13.3043 10.7174 13.6571 9.81029C14.0098 8.90315 14.09 7.91279 13.8881 6.96068C13.6861 6.00857 13.2106 5.13612 12.5199 4.45033C11.8293 3.76455 10.9535 3.29525 9.99995 3.1V1C9.99995 0.734784 9.89459 0.48043 9.70705 0.292893C9.51952 0.105357 9.26516 0 8.99995 0C8.73473 0 8.48038 0.105357 8.29284 0.292893C8.1053 0.48043 7.99995 0.734784 7.99995 1V3.1C7.04643 3.29525 6.17064 3.76455 5.47998 4.45033C4.78932 5.13612 4.31383 6.00857 4.11184 6.96068C3.90985 7.91279 3.99013 8.90315 4.34284 9.81029C4.69555 10.7174 5.30535 11.5019 6.09745 12.0675L0.0861967 25.5938C0.0321244 25.7139 0.0023123 25.8435 -0.00152798 25.9751C-0.00536826 26.1068 0.0168394 26.2379 0.0638192 26.361C0.110799 26.484 0.181625 26.5966 0.272231 26.6922C0.362836 26.7878 0.471436 26.8645 0.591792 26.918C0.712149 26.9715 0.84189 27.0007 0.973566 27.004C1.10524 27.0072 1.23626 26.9844 1.35909 26.9368C1.48192 26.8893 1.59415 26.8179 1.68932 26.7269C1.7845 26.6358 1.86075 26.5269 1.9137 26.4062L5.0562 19.3363C6.32409 19.7777 7.65739 20.0021 8.99995 20C10.3432 19.9984 11.6773 19.7785 12.9499 19.3487L16.0862 26.4062C16.1947 26.6473 16.3944 26.8356 16.6414 26.93C16.8884 27.0243 17.1627 27.0169 17.4043 26.9095C17.6459 26.8021 17.8351 26.6033 17.9306 26.3568C18.0261 26.1102 18.02 25.8359 17.9137 25.5938L14.7887 18.5625C16.9739 17.4252 18.7553 15.6416 19.8899 13.455ZM8.99995 5C9.59329 5 10.1733 5.17595 10.6667 5.50559C11.16 5.83524 11.5445 6.30377 11.7716 6.85195C11.9986 7.40013 12.0581 8.00333 11.9423 8.58527C11.8265 9.16721 11.5408 9.70176 11.1213 10.1213C10.7017 10.5409 10.1672 10.8266 9.58522 10.9424C9.00327 11.0581 8.40007 10.9987 7.8519 10.7716C7.30372 10.5446 6.83518 10.1601 6.50554 9.66671C6.17589 9.17336 5.99995 8.59334 5.99995 8C5.99995 7.20435 6.31602 6.44129 6.87863 5.87868C7.44124 5.31607 8.2043 5 8.99995 5ZM8.99995 18C7.93826 18.0013 6.88323 17.8325 5.87495 17.5L7.92745 12.8825C8.63555 13.0392 9.36934 13.0392 10.0774 12.8825L12.1374 17.515C11.1226 17.8363 10.0644 17.9998 8.99995 18Z" fill="#71717A"/>
</svg>
