<svg width="28" height="25" viewBox="0 0 28 25" fill="none" xmlns="http://www.w3.org/2000/svg">
<path d="M27.8937 23.5525L20.8937 9.5525C20.8107 9.38642 20.683 9.24675 20.5251 9.14914C20.3671 9.05152 20.1851 8.99982 19.9994 8.99982C19.8137 8.99982 19.6317 9.05152 19.4737 9.14914C19.3157 9.24675 19.1881 9.38642 19.105 9.5525L16.3913 14.9813C14.2641 14.8616 12.2175 14.1269 10.5 12.8663C12.5151 10.7143 13.7361 7.93951 13.9613 5H17C17.2652 5 17.5196 4.89464 17.7071 4.70711C17.8946 4.51957 18 4.26522 18 4C18 3.73478 17.8946 3.48043 17.7071 3.29289C17.5196 3.10536 17.2652 3 17 3H10V1C10 0.734784 9.89464 0.48043 9.70711 0.292893C9.51957 0.105357 9.26522 0 9 0C8.73478 0 8.48043 0.105357 8.29289 0.292893C8.10536 0.48043 8 0.734784 8 1V3H1C0.734784 3 0.48043 3.10536 0.292893 3.29289C0.105357 3.48043 0 3.73478 0 4C0 4.26522 0.105357 4.51957 0.292893 4.70711C0.48043 4.89464 0.734784 5 1 5H11.9537C11.731 7.45081 10.6907 9.75556 9 11.5437C7.94645 10.4321 7.13741 9.11208 6.625 7.66875C6.58287 7.54282 6.51607 7.42655 6.42852 7.32671C6.34096 7.22687 6.2344 7.14547 6.11505 7.08726C5.9957 7.02904 5.86595 6.99518 5.73337 6.98765C5.6008 6.98013 5.46805 6.99908 5.34287 7.0434C5.2177 7.08773 5.10261 7.15654 5.00431 7.24582C4.90602 7.33511 4.82649 7.44307 4.77037 7.56342C4.71425 7.68377 4.68266 7.81409 4.67744 7.94678C4.67223 8.07947 4.6935 8.21187 4.74 8.33625C5.33658 10.0236 6.27634 11.569 7.5 12.875C5.61595 14.2595 3.33803 15.0042 1 15C0.734784 15 0.48043 15.1054 0.292893 15.2929C0.105357 15.4804 0 15.7348 0 16C0 16.2652 0.105357 16.5196 0.292893 16.7071C0.48043 16.8946 0.734784 17 1 17C3.90073 17.0032 6.71833 16.0312 9 14.24C10.862 15.6948 13.0847 16.6156 15.43 16.9037L12.105 23.5525C12.0462 23.67 12.0112 23.7978 12.0018 23.9288C11.9925 24.0598 12.009 24.1914 12.0505 24.316C12.1343 24.5676 12.3147 24.7757 12.5519 24.8944C12.7891 25.0131 13.0637 25.0327 13.3154 24.9488C13.567 24.865 13.7751 24.6847 13.8937 24.4475L15.6175 21H24.3813L26.105 24.4475C26.1881 24.6136 26.3159 24.7533 26.474 24.8509C26.6321 24.9485 26.8142 25.0001 27 25C27.1704 24.9999 27.338 24.9563 27.4869 24.8732C27.6357 24.7901 27.7608 24.6704 27.8503 24.5254C27.9399 24.3803 27.9909 24.2148 27.9985 24.0446C28.0061 23.8743 27.97 23.7049 27.8937 23.5525ZM16.6175 19L20 12.2362L23.3813 19H16.6175Z" fill="#71717A"/>
</svg>
