<svg width="20" height="20" viewBox="0 0 20 20" fill="none" xmlns="http://www.w3.org/2000/svg">
<path d="M19.0819 13.0821C18.4763 15.0593 17.2624 16.7951 15.6132 18.0424C14.1652 19.1322 12.4421 19.7969 10.6373 19.9618C8.83256 20.1268 7.01754 19.7854 5.396 18.9761C3.77446 18.1668 2.41057 16.9215 1.45743 15.3802C0.504283 13.8388 -0.000393014 12.0622 4.58827e-05 10.2499C-0.00647008 8.13461 0.681195 6.07556 1.95755 4.38868C3.20492 2.73942 4.9407 1.5256 6.91786 0.91993C7.04817 0.879805 7.18695 0.875963 7.31928 0.908816C7.45161 0.94167 7.57249 1.00998 7.6689 1.10639C7.76531 1.2028 7.83362 1.32367 7.86647 1.456C7.89932 1.58834 7.89548 1.72712 7.85536 1.85743C7.42302 3.28752 7.38677 4.80811 7.75047 6.25718C8.11417 7.70624 8.8642 9.02949 9.92062 10.0859C10.977 11.1423 12.3003 11.8924 13.7494 12.2561C15.1984 12.6198 16.719 12.5835 18.1491 12.1512C18.2794 12.1111 18.4182 12.1072 18.5505 12.1401C18.6829 12.1729 18.8037 12.2412 18.9001 12.3376C18.9966 12.4341 19.0649 12.5549 19.0977 12.6873C19.1306 12.8196 19.1267 12.9584 19.0866 13.0887L19.0819 13.0821Z" fill="#555555"/>
</svg>
