<svg width="30" height="22" viewBox="0 0 30 22" fill="none" xmlns="http://www.w3.org/2000/svg">
<path d="M21 21C21 21.2652 20.8946 21.5196 20.7071 21.7071C20.5196 21.8946 20.2652 22 20 22H1.99998C1.73477 22 1.48041 21.8946 1.29288 21.7071C1.10534 21.5196 0.999984 21.2652 0.999984 21C0.999984 20.7348 1.10534 20.4804 1.29288 20.2929C1.48041 20.1054 1.73477 20 1.99998 20H20C20.2652 20 20.5196 20.1054 20.7071 20.2929C20.8946 20.4804 21 20.7348 21 21ZM29.9825 5.64374C29.9563 5.78293 29.9009 5.91496 29.8199 6.03111C29.7388 6.14726 29.6341 6.24488 29.5125 6.31749L11.0862 17.3175C10.3182 17.7679 9.44414 18.006 8.55373 18.0075C7.28538 18.0061 6.06551 17.52 5.14373 16.6487L5.12873 16.6337L0.624984 12.225C0.386696 11.9987 0.207836 11.7172 0.104221 11.4053C0.000605613 11.0935 -0.0245722 10.7609 0.0309137 10.437C0.0863995 10.1131 0.22084 9.8079 0.422345 9.54832C0.623851 9.28874 0.886214 9.08281 1.18623 8.94874L1.56123 8.765C1.79805 8.64873 2.07122 8.63076 2.32123 8.715L5.85373 9.9075L8.37498 8.38249L5.64623 5.73375C5.40083 5.50766 5.2159 5.22377 5.10827 4.90793C5.00065 4.5921 4.97375 4.25435 5.03004 3.92546C5.08632 3.59657 5.224 3.28699 5.43053 3.02492C5.63705 2.76285 5.90587 2.55661 6.21248 2.42499L6.25248 2.40874L7.14623 2.06999C7.37157 1.98597 7.61965 1.98597 7.84498 2.06999L14.5875 4.54749L21.0337 0.699995C22.061 0.088604 23.274 -0.132655 24.451 0.0766659C25.6279 0.285987 26.6903 0.911905 27.4437 1.83999L27.4587 1.85874L29.7887 4.845C29.8758 4.95681 29.9381 5.08584 29.9715 5.22354C30.0049 5.36125 30.0086 5.50448 29.9825 5.64374ZM27.515 5.18124L25.89 3.09749C25.4377 2.5442 24.8019 2.17153 24.0982 2.04721C23.3945 1.92289 22.6695 2.05516 22.055 2.41999L15.205 6.50999C15.0767 6.58606 14.9331 6.6327 14.7846 6.64653C14.6361 6.66037 14.4864 6.64106 14.3462 6.58999L7.49998 4.07249L6.99998 4.26374L7.02623 4.28874L10.6962 7.85C10.8058 7.95649 10.8896 8.0867 10.941 8.2306C10.9925 8.37451 11.0102 8.52829 10.993 8.68013C10.9757 8.83198 10.9239 8.97785 10.8414 9.10654C10.759 9.23523 10.6482 9.34331 10.5175 9.42249L6.49123 11.8587C6.36668 11.934 6.22721 11.9811 6.08256 11.9969C5.93791 12.0126 5.79156 11.9966 5.65373 11.95L2.06998 10.7412L2.04623 10.7537L1.99998 10.775C2.006 10.7793 2.01146 10.7843 2.01623 10.79L6.51623 15.1975C6.98586 15.6388 7.58585 15.9161 8.2263 15.9877C8.86675 16.0594 9.51318 15.9216 10.0687 15.595L27.515 5.18124Z" fill="#71717A"/>
</svg>
