<svg width="29" height="29" viewBox="0 0 29 29" fill="none" xmlns="http://www.w3.org/2000/svg">
<path d="M22.6975 15.1325L16.25 12.75L13.875 6.2975C13.7343 5.91541 13.4798 5.58566 13.1459 5.35273C12.812 5.11981 12.4146 4.99492 12.0075 4.99492C11.6003 4.99492 11.2029 5.11981 10.869 5.35273C10.5351 5.58566 10.2806 5.91541 10.14 6.2975L7.74995 12.75L1.29745 15.125C0.915366 15.2656 0.585613 15.5201 0.352687 15.854C0.119761 16.188 -0.00512695 16.5853 -0.00512695 16.9925C-0.00512695 17.3997 0.119761 17.797 0.352687 18.131C0.585613 18.4649 0.915366 18.7194 1.29745 18.86L7.74995 21.25L10.125 27.7025C10.2656 28.0846 10.5201 28.4143 10.854 28.6473C11.1879 28.8802 11.5853 29.0051 11.9925 29.0051C12.3996 29.0051 12.797 28.8802 13.1309 28.6473C13.4648 28.4143 13.7193 28.0846 13.86 27.7025L16.25 21.25L22.7025 18.875C23.0845 18.7344 23.4143 18.4799 23.6472 18.146C23.8801 17.812 24.005 17.4147 24.005 17.0075C24.005 16.6003 23.8801 16.203 23.6472 15.869C23.4143 15.5351 23.0845 15.2806 22.7025 15.14L22.6975 15.1325ZM15.125 19.5275C14.9892 19.5775 14.8659 19.6564 14.7637 19.7587C14.6614 19.861 14.5825 19.9843 14.5325 20.12L12 26.9813L9.47246 20.125C9.42251 19.9878 9.34314 19.8633 9.23991 19.76C9.13669 19.6568 9.01212 19.5774 8.87496 19.5275L2.0187 17L8.87496 14.4725C9.01212 14.4226 9.13669 14.3432 9.23991 14.24C9.34314 14.1367 9.42251 14.0122 9.47246 13.875L12 7.01875L14.5275 13.875C14.5775 14.0107 14.6564 14.134 14.7587 14.2363C14.8609 14.3386 14.9842 14.4175 15.12 14.4675L21.9812 17L15.125 19.5275ZM16 4C16 3.73478 16.1053 3.48043 16.2928 3.29289C16.4804 3.10536 16.7347 3 17 3H19V1C19 0.734784 19.1053 0.48043 19.2928 0.292893C19.4804 0.105357 19.7347 0 20 0C20.2652 0 20.5195 0.105357 20.7071 0.292893C20.8946 0.48043 21 0.734784 21 1V3H23C23.2652 3 23.5195 3.10536 23.7071 3.29289C23.8946 3.48043 24 3.73478 24 4C24 4.26522 23.8946 4.51957 23.7071 4.70711C23.5195 4.89464 23.2652 5 23 5H21V7C21 7.26522 20.8946 7.51957 20.7071 7.70711C20.5195 7.89464 20.2652 8 20 8C19.7347 8 19.4804 7.89464 19.2928 7.70711C19.1053 7.51957 19 7.26522 19 7V5H17C16.7347 5 16.4804 4.89464 16.2928 4.70711C16.1053 4.51957 16 4.26522 16 4ZM29 10C29 10.2652 28.8946 10.5196 28.7071 10.7071C28.5195 10.8946 28.2652 11 28 11H27V12C27 12.2652 26.8946 12.5196 26.7071 12.7071C26.5195 12.8946 26.2652 13 26 13C25.7347 13 25.4804 12.8946 25.2928 12.7071C25.1053 12.5196 25 12.2652 25 12V11H24C23.7347 11 23.4804 10.8946 23.2928 10.7071C23.1053 10.5196 23 10.2652 23 10C23 9.73478 23.1053 9.48043 23.2928 9.29289C23.4804 9.10536 23.7347 9 24 9H25V8C25 7.73478 25.1053 7.48043 25.2928 7.29289C25.4804 7.10536 25.7347 7 26 7C26.2652 7 26.5195 7.10536 26.7071 7.29289C26.8946 7.48043 27 7.73478 27 8V9H28C28.2652 9 28.5195 9.10536 28.7071 9.29289C28.8946 9.48043 29 9.73478 29 10Z" fill="#71717A"/>
</svg>
