<svg width="18" height="14" viewBox="0 0 18 14" fill="none" xmlns="http://www.w3.org/2000/svg">
<path d="M14 0.75H4C3.66848 0.75 3.35054 0.881696 3.11612 1.11612C2.8817 1.35054 2.75 1.66848 2.75 2V12C2.75 12.3315 2.8817 12.6495 3.11612 12.8839C3.35054 13.1183 3.66848 13.25 4 13.25H14C14.3315 13.25 14.6495 13.1183 14.8839 12.8839C15.1183 12.6495 15.25 12.3315 15.25 12V2C15.25 1.66848 15.1183 1.35054 14.8839 1.11612C14.6495 0.881696 14.3315 0.75 14 0.75ZM14 12H4V2H14V12ZM17.75 1.375V12.625C17.75 12.7908 17.6842 12.9497 17.5669 13.0669C17.4497 13.1842 17.2908 13.25 17.125 13.25C16.9592 13.25 16.8003 13.1842 16.6831 13.0669C16.5658 12.9497 16.5 12.7908 16.5 12.625V1.375C16.5 1.20924 16.5658 1.05027 16.6831 0.933058C16.8003 0.815848 16.9592 0.75 17.125 0.75C17.2908 0.75 17.4497 0.815848 17.5669 0.933058C17.6842 1.05027 17.75 1.20924 17.75 1.375ZM1.5 1.375V12.625C1.5 12.7908 1.43415 12.9497 1.31694 13.0669C1.19973 13.1842 1.04076 13.25 0.875 13.25C0.70924 13.25 0.550268 13.1842 0.433058 13.0669C0.315848 12.9497 0.25 12.7908 0.25 12.625V1.375C0.25 1.20924 0.315848 1.05027 0.433058 0.933058C0.550268 0.815848 0.70924 0.75 0.875 0.75C1.04076 0.75 1.19973 0.815848 1.31694 0.933058C1.43415 1.05027 1.5 1.20924 1.5 1.375Z" fill="#343330"/>
</svg>
