<svg width="18" height="22" viewBox="0 0 18 22" fill="none" xmlns="http://www.w3.org/2000/svg">
<path d="M16.7607 2.67969L4.54975 0.523438C4.15802 0.454505 3.75496 0.543974 3.42919 0.772171C3.10342 1.00037 2.88162 1.34861 2.81256 1.74031L0.0234978 17.5841C-0.0106151 17.7782 -0.00614616 17.9771 0.0366492 18.1694C0.0794446 18.3618 0.159727 18.5439 0.27291 18.7052C0.386093 18.8665 0.529957 19.004 0.69628 19.1097C0.862604 19.2154 1.04813 19.2873 1.24225 19.3212L13.4532 21.4775C13.6474 21.5117 13.8464 21.5074 14.0388 21.4647C14.2313 21.4219 14.4135 21.3417 14.5749 21.2285C14.7363 21.1153 14.8739 20.9714 14.9796 20.805C15.0854 20.6386 15.1573 20.453 15.1913 20.2587L17.9804 4.415C18.0487 4.02315 17.9586 3.6202 17.7299 3.29478C17.5011 2.96936 17.1525 2.74811 16.7607 2.67969ZM9.70319 11.3337C9.67257 11.5072 9.58186 11.6644 9.44695 11.7777C9.31204 11.8911 9.14155 11.9533 8.96537 11.9534C8.92138 11.9534 8.87747 11.9497 8.83412 11.9422L4.9435 11.255C4.7586 11.2095 4.59792 11.0954 4.49405 10.9358C4.39018 10.7762 4.3509 10.5831 4.38417 10.3956C4.41745 10.2082 4.52078 10.0404 4.67323 9.92626C4.82567 9.81216 5.0158 9.76032 5.20506 9.78125L9.09381 10.4647C9.19092 10.4817 9.28372 10.5176 9.36692 10.5705C9.45012 10.6234 9.52207 10.6922 9.57867 10.7729C9.63526 10.8536 9.6754 10.9447 9.69676 11.0409C9.71813 11.1372 9.72031 11.2367 9.70319 11.3337ZM14.1094 9.06687C14.0789 9.24022 13.9883 9.39728 13.8536 9.51057C13.7188 9.62386 13.5486 9.68616 13.3726 9.68656C13.3282 9.68665 13.284 9.68257 13.2404 9.67437L5.45912 8.30094C5.26319 8.26625 5.08907 8.15516 4.97505 7.99209C4.86104 7.82902 4.81647 7.62734 4.85115 7.43141C4.88584 7.23548 4.99694 7.06135 5.16 6.94734C5.32307 6.83332 5.52476 6.78875 5.72068 6.82344L13.5019 8.19781C13.5991 8.21469 13.692 8.25057 13.7753 8.30341C13.8586 8.35625 13.9307 8.425 13.9874 8.50572C14.0441 8.58645 14.0843 8.67757 14.1057 8.77386C14.1271 8.87015 14.1294 8.96972 14.1122 9.06687H14.1094ZM14.6297 6.11188C14.5991 6.28538 14.5084 6.44256 14.3735 6.55587C14.2386 6.66918 14.0681 6.73138 13.8919 6.73156C13.8479 6.7315 13.804 6.72774 13.7607 6.72031L5.97943 5.34594C5.88021 5.33133 5.78492 5.29698 5.6992 5.2449C5.61349 5.19282 5.53909 5.12408 5.48041 5.04274C5.42173 4.96141 5.37996 4.86912 5.35757 4.77136C5.33518 4.6736 5.33262 4.57233 5.35006 4.47357C5.36749 4.3748 5.40456 4.28053 5.45906 4.19634C5.51357 4.11214 5.58441 4.03974 5.66739 3.98341C5.75037 3.92708 5.84381 3.88796 5.94217 3.86837C6.04054 3.84879 6.14183 3.84913 6.24006 3.86938L14.0213 5.24281C14.1186 5.25958 14.2116 5.29539 14.295 5.34818C14.3784 5.40097 14.4506 5.4697 14.5074 5.55044C14.5642 5.63118 14.6044 5.72233 14.6259 5.81868C14.6474 5.91502 14.6497 6.01466 14.6326 6.11188H14.6297Z" fill="#71717A"/>
</svg>
