<svg width="18" height="14" viewBox="0 0 18 14" fill="none" xmlns="http://www.w3.org/2000/svg">
<path d="M9 4.5H17.125C17.2908 4.5 17.4497 4.56585 17.5669 4.68306C17.6842 4.80027 17.75 4.95924 17.75 5.125C17.75 5.29076 17.6842 5.44973 17.5669 5.56694C17.4497 5.68415 17.2908 5.75 17.125 5.75H9C8.83424 5.75 8.67527 5.68415 8.55806 5.56694C8.44085 5.44973 8.375 5.29076 8.375 5.125C8.375 4.95924 8.44085 4.80027 8.55806 4.68306C8.67527 4.56585 8.83424 4.5 9 4.5ZM17.125 7H9C8.83424 7 8.67527 7.06585 8.55806 7.18306C8.44085 7.30027 8.375 7.45924 8.375 7.625C8.375 7.79076 8.44085 7.94973 8.55806 8.06694C8.67527 8.18415 8.83424 8.25 9 8.25H17.125C17.2908 8.25 17.4497 8.18415 17.5669 8.06694C17.6842 7.94973 17.75 7.79076 17.75 7.625C17.75 7.45924 17.6842 7.30027 17.5669 7.18306C17.4497 7.06585 17.2908 7 17.125 7ZM17.125 9.5H5.25C5.08424 9.5 4.92527 9.56585 4.80806 9.68306C4.69085 9.80027 4.625 9.95924 4.625 10.125C4.625 10.2908 4.69085 10.4497 4.80806 10.5669C4.92527 10.6842 5.08424 10.75 5.25 10.75H17.125C17.2908 10.75 17.4497 10.6842 17.5669 10.5669C17.6842 10.4497 17.75 10.2908 17.75 10.125C17.75 9.95924 17.6842 9.80027 17.5669 9.68306C17.4497 9.56585 17.2908 9.5 17.125 9.5ZM17.125 12H5.25C5.08424 12 4.92527 12.0658 4.80806 12.1831C4.69085 12.3003 4.625 12.4592 4.625 12.625C4.625 12.7908 4.69085 12.9497 4.80806 13.0669C4.92527 13.1842 5.08424 13.25 5.25 13.25H17.125C17.2908 13.25 17.4497 13.1842 17.5669 13.0669C17.6842 12.9497 17.75 12.7908 17.75 12.625C17.75 12.4592 17.6842 12.3003 17.5669 12.1831C17.4497 12.0658 17.2908 12 17.125 12ZM6.5 8.25C6.66576 8.25 6.82473 8.18415 6.94194 8.06694C7.05915 7.94973 7.125 7.79076 7.125 7.625C7.125 7.45924 7.05915 7.30027 6.94194 7.18306C6.82473 7.06585 6.66576 7 6.5 7H5.875V2H8.375V2.625C8.375 2.79076 8.44085 2.94973 8.55806 3.06694C8.67527 3.18415 8.83424 3.25 9 3.25C9.16576 3.25 9.32473 3.18415 9.44194 3.06694C9.55915 2.94973 9.625 2.79076 9.625 2.625V1.375C9.625 1.20924 9.55915 1.05027 9.44194 0.933058C9.32473 0.815848 9.16576 0.75 9 0.75H1.5C1.33424 0.75 1.17527 0.815848 1.05806 0.933058C0.940848 1.05027 0.875 1.20924 0.875 1.375V2.625C0.875 2.79076 0.940848 2.94973 1.05806 3.06694C1.17527 3.18415 1.33424 3.25 1.5 3.25C1.66576 3.25 1.82473 3.18415 1.94194 3.06694C2.05915 2.94973 2.125 2.79076 2.125 2.625V2H4.625V7H4C3.83424 7 3.67527 7.06585 3.55806 7.18306C3.44085 7.30027 3.375 7.45924 3.375 7.625C3.375 7.79076 3.44085 7.94973 3.55806 8.06694C3.67527 8.18415 3.83424 8.25 4 8.25H6.5Z" fill="#343330"/>
</svg>
